<mxGraphModel dx="0" dy="0" grid="1" gridSize="10" guides="1" tooltips="1" connect="1" arrows="1" fold="1" page="0" pageScale="1" background="none" math="0" shadow="0">
  <root>
    <mxCell id="0" />
    <mxCell id="1" parent="0" />
    <mxCell id="node70" parent="1" vertex="1" value="&lt;p style=&quot;margin:0px;margin-top:4px;text-align:center;&quot;&gt;&lt;b&gt;AbstractDispatchStepHandler&lt;/b&gt;&lt;/p&gt;&lt;hr size=&quot;1&quot;/&gt;&lt;p style=&quot;margin:0 0 0 4px;line-height:1.6;&quot;&gt;# eventRepository: EventRepository&lt;br/&gt;# nextHandler: DispatchStepHandler&lt;/p&gt;&lt;hr size=&quot;1&quot;/&gt;&lt;p style=&quot;margin:0 0 0 4px;line-height:1.6;&quot;&gt;+ passToNextHandler(DispatchEventHandlerRecord): void&lt;br/&gt;+ setNextHandler(DispatchStepHandler): DispatchStepHandler&lt;/p&gt;" style="verticalAlign=top;align=left;overflow=fill;fontSize=14;fontFamily=Helvetica;html=1;rounded=0;shadow=0;comic=0;labelBackgroundColor=none;strokeWidth=1;">
      <mxGeometry x="3096" y="6044" width="425" height="134" as="geometry" />
    </mxCell>
    <mxCell id="node61" parent="1" vertex="1" value="&lt;p style=&quot;margin:0px;margin-top:4px;text-align:center;&quot;&gt;&lt;b&gt;ApplicationConfiguration&lt;/b&gt;&lt;/p&gt;&lt;hr size=&quot;1&quot;/&gt;&lt;p style=&quot;margin:0 0 0 4px;line-height:1.6;&quot;&gt;+ timeZone(): TimeZone&lt;br/&gt;+ objectMapper(): ObjectMapper&lt;/p&gt;" style="verticalAlign=top;align=left;overflow=fill;fontSize=14;fontFamily=Helvetica;html=1;rounded=0;shadow=0;comic=0;labelBackgroundColor=none;strokeWidth=1;">
      <mxGeometry x="1186" y="7648" width="245" height="83" as="geometry" />
    </mxCell>
    <mxCell id="node5" parent="1" vertex="1" value="&lt;p style=&quot;margin:0px;margin-top:4px;text-align:center;&quot;&gt;&lt;b&gt;ApplicationExceptionHandler&lt;/b&gt;&lt;/p&gt;&lt;hr size=&quot;1&quot;/&gt;&lt;p style=&quot;margin:0 0 0 4px;line-height:1.6;&quot;&gt;+ handleMethodArgumentNotValidException(MethodArgumentNotValidException, HttpServletResponse): ResponseEntity&amp;lt;ErrorResponse&amp;gt;&lt;br/&gt;+ handleInvalidDiscoverException(InvalidDiscoverException): ResponseEntity&amp;lt;ErrorResponse&amp;gt;&lt;br/&gt;+ handleException(Exception, HttpServletResponse): ResponseEntity&amp;lt;ErrorResponse&amp;gt;&lt;br/&gt;+ handleInvalidDiscoverException(ResourceNotFoundException): ResponseEntity&amp;lt;ErrorResponse&amp;gt;&lt;/p&gt;" style="verticalAlign=top;align=left;overflow=fill;fontSize=14;fontFamily=Helvetica;html=1;rounded=0;shadow=0;comic=0;labelBackgroundColor=none;strokeWidth=1;">
      <mxGeometry x="3342" y="7625" width="652" height="133" as="geometry" />
    </mxCell>
    <mxCell id="node83" parent="1" vertex="1" value="&lt;p style=&quot;margin:0px;margin-top:4px;text-align:center;&quot;&gt;&lt;b&gt;AuthFilter&lt;/b&gt;&lt;/p&gt;&lt;hr size=&quot;1&quot;/&gt;&lt;p style=&quot;margin:0 0 0 4px;line-height:1.6;&quot;&gt;- findCompanyInterface: FindCompanyInterface&lt;br/&gt;- tokenService: TokenService&lt;/p&gt;&lt;hr size=&quot;1&quot;/&gt;&lt;p style=&quot;margin:0 0 0 4px;line-height:1.6;&quot;&gt;- getCompanyAuthorities(CompanyRecord): List&amp;lt;SimpleGrantedAuthority&amp;gt;&lt;br/&gt;# doFilterInternal(HttpServletRequest, HttpServletResponse, FilterChain): void&lt;br/&gt;- hasValidToken(String, HttpServletResponse): boolean&lt;br/&gt;- handle401(HttpServletResponse, String): void&lt;/p&gt;" style="verticalAlign=top;align=left;overflow=fill;fontSize=14;fontFamily=Helvetica;html=1;rounded=0;shadow=0;comic=0;labelBackgroundColor=none;strokeWidth=1;">
      <mxGeometry x="257" y="6801" width="502" height="170" as="geometry" />
    </mxCell>
    <mxCell id="node8" parent="1" vertex="1" value="&lt;p style=&quot;margin:0px;margin-top:4px;text-align:center;&quot;&gt;&lt;i&gt;&amp;lt;&amp;lt;enumeration&amp;gt;&amp;gt;&lt;/i&gt;&lt;br/&gt;&lt;b&gt;Authority&lt;/b&gt;&lt;/p&gt;&lt;hr size=&quot;1&quot;/&gt;&lt;p style=&quot;margin:0 0 0 4px;line-height:1.6;&quot;&gt;+ EVENTS: &lt;/p&gt;&lt;hr size=&quot;1&quot;/&gt;&lt;p style=&quot;margin:0 0 0 4px;line-height:1.6;&quot;&gt;+ valueOf(String): Authority&lt;br/&gt;+ values(): Authority[]&lt;/p&gt;" style="verticalAlign=top;align=left;overflow=fill;fontSize=14;fontFamily=Helvetica;html=1;rounded=0;shadow=0;comic=0;labelBackgroundColor=none;strokeWidth=1;">
      <mxGeometry x="686" y="2016" width="205" height="126" as="geometry" />
    </mxCell>
    <mxCell id="node41" parent="1" vertex="1" value="&lt;p style=&quot;margin:0px;margin-top:4px;text-align:center;&quot;&gt;&lt;b&gt;BaseResponse&lt;T&gt;&lt;/b&gt;&lt;/p&gt;&lt;hr size=&quot;1&quot;/&gt;&lt;p style=&quot;margin:0 0 0 4px;line-height:1.6;&quot;&gt;- success: boolean&lt;br/&gt;- data: T&lt;/p&gt;&lt;hr size=&quot;1&quot;/&gt;&lt;p style=&quot;margin:0 0 0 4px;line-height:1.6;&quot;&gt;+ isSuccess(): boolean&lt;br/&gt;+ getData(): T&lt;/p&gt;" style="verticalAlign=top;align=left;overflow=fill;fontSize=14;fontFamily=Helvetica;html=1;rounded=0;shadow=0;comic=0;labelBackgroundColor=none;strokeWidth=1;">
      <mxGeometry x="1028" y="6824" width="200" height="134" as="geometry" />
    </mxCell>
    <mxCell id="node60" parent="1" vertex="1" value="&lt;p style=&quot;margin:0px;margin-top:4px;text-align:center;&quot;&gt;&lt;b&gt;BoolValue&lt;/b&gt;&lt;/p&gt;&lt;hr size=&quot;1&quot;/&gt;&lt;p style=&quot;margin:0 0 0 4px;line-height:1.6;&quot;&gt;+ startBoolValue(FlatBufferBuilder): void&lt;br/&gt;+ createBoolValue(FlatBufferBuilder, boolean): int&lt;br/&gt;+ getRootAsBoolValue(ByteBuffer, BoolValue): BoolValue&lt;br/&gt;+ ValidateVersion(): void&lt;br/&gt;+ endBoolValue(FlatBufferBuilder): int&lt;br/&gt;+ getRootAsBoolValue(ByteBuffer): BoolValue&lt;br/&gt;+ __init(int, ByteBuffer): void&lt;br/&gt;+ addValue(FlatBufferBuilder, boolean): void&lt;br/&gt;+ value(): boolean&lt;br/&gt;+ __assign(int, ByteBuffer): BoolValue&lt;/p&gt;" style="verticalAlign=top;align=left;overflow=fill;fontSize=14;fontFamily=Helvetica;html=1;rounded=0;shadow=0;comic=0;labelBackgroundColor=none;strokeWidth=1;">
      <mxGeometry x="1034" y="736" width="389" height="261" as="geometry" />
    </mxCell>
    <mxCell id="node22" parent="1" vertex="1" value="&lt;p style=&quot;margin:0px;margin-top:4px;text-align:center;&quot;&gt;&lt;b&gt;CollectorDevice&lt;/b&gt;&lt;/p&gt;&lt;hr size=&quot;1&quot;/&gt;&lt;p style=&quot;margin:0 0 0 4px;line-height:1.6;&quot;&gt;- name: String&lt;br/&gt;- deviceId: String&lt;br/&gt;- sensors: List&amp;lt;Sensor&amp;gt;&lt;br/&gt;- internalId: ObjectId&lt;/p&gt;&lt;hr size=&quot;1&quot;/&gt;&lt;p style=&quot;margin:0 0 0 4px;line-height:1.6;&quot;&gt;+ getInternalId(): ObjectId&lt;br/&gt;+ getDeviceId(): String&lt;br/&gt;+ getName(): String&lt;br/&gt;+ getSensors(): List&amp;lt;Sensor&amp;gt;&lt;br/&gt;+ setInternalId(ObjectId): void&lt;br/&gt;+ setDeviceId(String): void&lt;br/&gt;+ setName(String): void&lt;br/&gt;+ setSensors(List&amp;lt;Sensor&amp;gt;): void&lt;/p&gt;" style="verticalAlign=top;align=left;overflow=fill;fontSize=14;fontFamily=Helvetica;html=1;rounded=0;shadow=0;comic=0;labelBackgroundColor=none;strokeWidth=1;">
      <mxGeometry x="1667" y="312" width="243" height="308" as="geometry" />
    </mxCell>
    <mxCell id="node27" parent="1" vertex="1" value="&lt;p style=&quot;margin:0px;margin-top:4px;text-align:center;&quot;&gt;&lt;i&gt;&amp;lt;&amp;lt;record&amp;gt;&amp;gt;&lt;/i&gt;&lt;br/&gt;&lt;b&gt;CollectorDeviceRecord&lt;/b&gt;&lt;/p&gt;&lt;hr size=&quot;1&quot;/&gt;&lt;p style=&quot;margin:0 0 0 4px;line-height:1.6;&quot;&gt;- name: String&lt;br/&gt;- sensors: List&amp;lt;SensorRecord&amp;gt;&lt;br/&gt;- deviceId: String&lt;br/&gt;- id: String&lt;/p&gt;&lt;hr size=&quot;1&quot;/&gt;&lt;p style=&quot;margin:0 0 0 4px;line-height:1.6;&quot;&gt;+ id(): String&lt;br/&gt;+ name(): String&lt;br/&gt;+ sensors(): List&amp;lt;SensorRecord&amp;gt;&lt;br/&gt;+ deviceId(): String&lt;/p&gt;" style="verticalAlign=top;align=left;overflow=fill;fontSize=14;fontFamily=Helvetica;html=1;rounded=0;shadow=0;comic=0;labelBackgroundColor=none;strokeWidth=1;">
      <mxGeometry x="2148" y="1198" width="240" height="216" as="geometry" />
    </mxCell>
    <mxCell id="node23" parent="1" vertex="1" value="&lt;p style=&quot;margin:0px;margin-top:4px;text-align:center;&quot;&gt;&lt;b&gt;Company&lt;/b&gt;&lt;/p&gt;&lt;hr size=&quot;1&quot;/&gt;&lt;p style=&quot;margin:0 0 0 4px;line-height:1.6;&quot;&gt;- name: String&lt;br/&gt;- id: ObjectId&lt;br/&gt;- authorities: List&amp;lt;Authority&amp;gt;&lt;/p&gt;&lt;hr size=&quot;1&quot;/&gt;&lt;p style=&quot;margin:0 0 0 4px;line-height:1.6;&quot;&gt;+ getId(): ObjectId&lt;br/&gt;+ getName(): String&lt;br/&gt;+ getAuthorities(): List&amp;lt;Authority&amp;gt;&lt;br/&gt;+ setId(ObjectId): void&lt;br/&gt;+ setName(String): void&lt;br/&gt;+ setAuthorities(List&amp;lt;Authority&amp;gt;): void&lt;/p&gt;" style="verticalAlign=top;align=left;overflow=fill;fontSize=14;fontFamily=Helvetica;html=1;rounded=0;shadow=0;comic=0;labelBackgroundColor=none;strokeWidth=1;">
      <mxGeometry x="651" y="2227" width="275" height="239" as="geometry" />
    </mxCell>
    <mxCell id="node32" parent="1" vertex="1" value="&lt;p style=&quot;margin:0px;margin-top:4px;text-align:center;&quot;&gt;&lt;b&gt;CompanyApp&lt;/b&gt;&lt;/p&gt;&lt;hr size=&quot;1&quot;/&gt;&lt;p style=&quot;margin:0 0 0 4px;line-height:1.6;&quot;&gt;- appCodeName: String&lt;br/&gt;- companyId: ObjectId&lt;br/&gt;- appUrl: String&lt;br/&gt;- active: Boolean&lt;br/&gt;- id: ObjectId&lt;/p&gt;&lt;hr size=&quot;1&quot;/&gt;&lt;p style=&quot;margin:0 0 0 4px;line-height:1.6;&quot;&gt;+ getId(): ObjectId&lt;br/&gt;+ getCompanyId(): ObjectId&lt;br/&gt;+ getAppCodeName(): String&lt;br/&gt;+ getAppUrl(): String&lt;br/&gt;+ getActive(): Boolean&lt;br/&gt;+ setId(ObjectId): void&lt;br/&gt;+ setCompanyId(ObjectId): void&lt;br/&gt;+ setAppCodeName(String): void&lt;br/&gt;+ setAppUrl(String): void&lt;br/&gt;+ setActive(Boolean): void&lt;/p&gt;" style="verticalAlign=top;align=left;overflow=fill;fontSize=14;fontFamily=Helvetica;html=1;rounded=0;shadow=0;comic=0;labelBackgroundColor=none;strokeWidth=1;">
      <mxGeometry x="29" y="1118" width="239" height="377" as="geometry" />
    </mxCell>
    <mxCell id="node46" parent="1" vertex="1" value="&lt;p style=&quot;margin:0px;margin-top:4px;text-align:center;&quot;&gt;&lt;b&gt;CompanyAppConverter&lt;/b&gt;&lt;/p&gt;&lt;hr size=&quot;1&quot;/&gt;&lt;p style=&quot;margin:0 0 0 4px;line-height:1.6;&quot;&gt;+ toRecord(CompanyApp): CompanyAppRecord&lt;br/&gt;+ toUpdateDomain(ObjectId, List&amp;lt;CompanyApp&amp;gt;, List&amp;lt;CreateCompanyAppRecord&amp;gt;): void&lt;br/&gt;+ toRecord(CompanyApp, List&amp;lt;GatewayDevice&amp;gt;): CompanyAppRecord&lt;br/&gt;+ toRecord(List&amp;lt;CompanyApp&amp;gt;, List&amp;lt;GatewayDevice&amp;gt;): List&amp;lt;CompanyAppRecord&amp;gt;&lt;br/&gt;+ toDomain(ObjectId, List&amp;lt;CreateCompanyAppRecord&amp;gt;): List&amp;lt;CompanyApp&amp;gt;&lt;/p&gt;" style="verticalAlign=top;align=left;overflow=fill;fontSize=14;fontFamily=Helvetica;html=1;rounded=0;shadow=0;comic=0;labelBackgroundColor=none;strokeWidth=1;">
      <mxGeometry x="-129" y="1733" width="554" height="146" as="geometry" />
    </mxCell>
    <mxCell id="node44" parent="1" vertex="1" value="&lt;p style=&quot;margin:0px;margin-top:4px;text-align:center;&quot;&gt;&lt;i&gt;&amp;lt;&amp;lt;record&amp;gt;&amp;gt;&lt;/i&gt;&lt;br/&gt;&lt;b&gt;CompanyAppRecord&lt;/b&gt;&lt;/p&gt;&lt;hr size=&quot;1&quot;/&gt;&lt;p style=&quot;margin:0 0 0 4px;line-height:1.6;&quot;&gt;- id: String&lt;br/&gt;- appUrl: String&lt;br/&gt;- active: Boolean&lt;br/&gt;- companyId: String&lt;br/&gt;- devices: List&amp;lt;GatewayDeviceRecord&amp;gt;&lt;br/&gt;- appCodeName: String&lt;/p&gt;&lt;hr size=&quot;1&quot;/&gt;&lt;p style=&quot;margin:0 0 0 4px;line-height:1.6;&quot;&gt;+ devices(): List&amp;lt;GatewayDeviceRecord&amp;gt;&lt;br/&gt;+ companyId(): String&lt;br/&gt;+ active(): Boolean&lt;br/&gt;+ id(): String&lt;br/&gt;+ appCodeName(): String&lt;br/&gt;+ appUrl(): String&lt;/p&gt;" style="verticalAlign=top;align=left;overflow=fill;fontSize=14;fontFamily=Helvetica;html=1;rounded=0;shadow=0;comic=0;labelBackgroundColor=none;strokeWidth=1;">
      <mxGeometry x="183" y="712" width="291" height="308" as="geometry" />
    </mxCell>
    <mxCell id="node76" parent="1" vertex="1" value="&lt;p style=&quot;margin:0px;margin-top:4px;text-align:center;&quot;&gt;&lt;i&gt;&amp;lt;&amp;lt;interface&amp;gt;&amp;gt;&lt;/i&gt;&lt;br/&gt;&lt;b&gt;CompanyAppRepository&lt;/b&gt;&lt;/p&gt;&lt;hr size=&quot;1&quot;/&gt;&lt;p style=&quot;margin:0 0 0 4px;line-height:1.6;&quot;&gt;+ save(List&amp;lt;CompanyApp&amp;gt;): void&lt;br/&gt;+ findById(ObjectId): CompanyApp&lt;br/&gt;+ save(CompanyApp): CompanyApp&lt;br/&gt;+ list(): List&amp;lt;CompanyApp&amp;gt;&lt;br/&gt;+ findByAppCodeName(String): CompanyApp&lt;br/&gt;+ findByCompanyId(ObjectId): List&amp;lt;CompanyApp&amp;gt;&lt;/p&gt;" style="verticalAlign=top;align=left;overflow=fill;fontSize=14;fontFamily=Helvetica;html=1;rounded=0;shadow=0;comic=0;labelBackgroundColor=none;strokeWidth=1;">
      <mxGeometry x="516" y="6022" width="345" height="169" as="geometry" />
    </mxCell>
    <mxCell id="node4" parent="1" vertex="1" value="&lt;p style=&quot;margin:0px;margin-top:4px;text-align:center;&quot;&gt;&lt;b&gt;CompanyAppRepositoryImpl&lt;/b&gt;&lt;/p&gt;&lt;hr size=&quot;1&quot;/&gt;&lt;p style=&quot;margin:0 0 0 4px;line-height:1.6;&quot;&gt;- mongoTemplate: MongoTemplate&lt;/p&gt;&lt;hr size=&quot;1&quot;/&gt;&lt;p style=&quot;margin:0 0 0 4px;line-height:1.6;&quot;&gt;+ save(CompanyApp): CompanyApp&lt;br/&gt;+ save(List&amp;lt;CompanyApp&amp;gt;): void&lt;br/&gt;+ list(): List&amp;lt;CompanyApp&amp;gt;&lt;br/&gt;+ findByAppCodeName(String): CompanyApp&lt;br/&gt;+ findById(ObjectId): CompanyApp&lt;br/&gt;+ findByCompanyId(ObjectId): List&amp;lt;CompanyApp&amp;gt;&lt;/p&gt;" style="verticalAlign=top;align=left;overflow=fill;fontSize=14;fontFamily=Helvetica;html=1;rounded=0;shadow=0;comic=0;labelBackgroundColor=none;strokeWidth=1;">
      <mxGeometry x="56" y="6490" width="345" height="193" as="geometry" />
    </mxCell>
    <mxCell id="node65" parent="1" vertex="1" value="&lt;p style=&quot;margin:0px;margin-top:4px;text-align:center;&quot;&gt;&lt;b&gt;CompanyAppService&lt;/b&gt;&lt;/p&gt;&lt;hr size=&quot;1&quot;/&gt;&lt;p style=&quot;margin:0 0 0 4px;line-height:1.6;&quot;&gt;- gatewayDeviceRepository: GatewayDeviceRepository&lt;br/&gt;- companyAppRepository: CompanyAppRepository&lt;/p&gt;&lt;hr size=&quot;1&quot;/&gt;&lt;p style=&quot;margin:0 0 0 4px;line-height:1.6;&quot;&gt;+ findByDeviceId(String): CompanyAppRecord&lt;/p&gt;" style="verticalAlign=top;align=left;overflow=fill;fontSize=14;fontFamily=Helvetica;html=1;rounded=0;shadow=0;comic=0;labelBackgroundColor=none;strokeWidth=1;">
      <mxGeometry x="1159" y="6536" width="378" height="109" as="geometry" />
    </mxCell>
    <mxCell id="node45" parent="1" vertex="1" value="&lt;p style=&quot;margin:0px;margin-top:4px;text-align:center;&quot;&gt;&lt;b&gt;CompanyController&lt;/b&gt;&lt;/p&gt;&lt;hr size=&quot;1&quot;/&gt;&lt;p style=&quot;margin:0 0 0 4px;line-height:1.6;&quot;&gt;- companyService: CompanyService&lt;/p&gt;&lt;hr size=&quot;1&quot;/&gt;&lt;p style=&quot;margin:0 0 0 4px;line-height:1.6;&quot;&gt;+ createToken(ObjectId): ResponseEntity&amp;lt;BaseResponse&amp;lt;CompanyTokenRecord&amp;gt;&amp;gt;&lt;br/&gt;+ list(PaginatedParams, SearchCompanyParams): ResponseEntity&amp;lt;BaseResponse&amp;lt;List&amp;lt;CompanyRecord&amp;gt;&amp;gt;&amp;gt;&lt;br/&gt;+ insert(CreateCompanyRecord): ResponseEntity&amp;lt;BaseResponse&amp;lt;CompanyRecord&amp;gt;&amp;gt;&lt;br/&gt;+ update(ObjectId, CreateCompanyRecord): ResponseEntity&amp;lt;BaseResponse&amp;lt;CompanyRecord&amp;gt;&amp;gt;&lt;/p&gt;" style="verticalAlign=top;align=left;overflow=fill;fontSize=14;fontFamily=Helvetica;html=1;rounded=0;shadow=0;comic=0;labelBackgroundColor=none;strokeWidth=1;">
      <mxGeometry x="1354" y="7353" width="709" height="147" as="geometry" />
    </mxCell>
    <mxCell id="node11" parent="1" vertex="1" value="&lt;p style=&quot;margin:0px;margin-top:4px;text-align:center;&quot;&gt;&lt;b&gt;CompanyConverter&lt;/b&gt;&lt;/p&gt;&lt;hr size=&quot;1&quot;/&gt;&lt;p style=&quot;margin:0 0 0 4px;line-height:1.6;&quot;&gt;+ toRecord(Company, List&amp;lt;CompanyApp&amp;gt;, List&amp;lt;GatewayDevice&amp;gt;): CompanyRecord&lt;br/&gt;+ toRecord(Company): CompanyRecord&lt;br/&gt;+ toUpdateDomain(Company, CreateCompanyRecord): void&lt;br/&gt;+ toDomain(CreateCompanyRecord): Company&lt;/p&gt;" style="verticalAlign=top;align=left;overflow=fill;fontSize=14;fontFamily=Helvetica;html=1;rounded=0;shadow=0;comic=0;labelBackgroundColor=none;strokeWidth=1;">
      <mxGeometry x="671" y="3785" width="555" height="133" as="geometry" />
    </mxCell>
    <mxCell id="node68" parent="1" vertex="1" value="&lt;p style=&quot;margin:0px;margin-top:4px;text-align:center;&quot;&gt;&lt;i&gt;&amp;lt;&amp;lt;record&amp;gt;&amp;gt;&lt;/i&gt;&lt;br/&gt;&lt;b&gt;CompanyRecord&lt;/b&gt;&lt;/p&gt;&lt;hr size=&quot;1&quot;/&gt;&lt;p style=&quot;margin:0 0 0 4px;line-height:1.6;&quot;&gt;- apps: List&amp;lt;CompanyAppRecord&amp;gt;&lt;br/&gt;- id: String&lt;br/&gt;- name: String&lt;br/&gt;- authorities: List&amp;lt;Authority&amp;gt;&lt;/p&gt;&lt;hr size=&quot;1&quot;/&gt;&lt;p style=&quot;margin:0 0 0 4px;line-height:1.6;&quot;&gt;+ authorities(): List&amp;lt;Authority&amp;gt;&lt;br/&gt;+ name(): String&lt;br/&gt;+ apps(): List&amp;lt;CompanyAppRecord&amp;gt;&lt;br/&gt;+ id(): String&lt;/p&gt;" style="verticalAlign=top;align=left;overflow=fill;fontSize=14;fontFamily=Helvetica;html=1;rounded=0;shadow=0;comic=0;labelBackgroundColor=none;strokeWidth=1;">
      <mxGeometry x="819" y="2498" width="259" height="216" as="geometry" />
    </mxCell>
    <mxCell id="node56" parent="1" vertex="1" value="&lt;p style=&quot;margin:0px;margin-top:4px;text-align:center;&quot;&gt;&lt;i&gt;&amp;lt;&amp;lt;interface&amp;gt;&amp;gt;&lt;/i&gt;&lt;br/&gt;&lt;b&gt;CompanyRepository&lt;/b&gt;&lt;/p&gt;&lt;hr size=&quot;1&quot;/&gt;&lt;p style=&quot;margin:0 0 0 4px;line-height:1.6;&quot;&gt;+ findById(ObjectId): Company&lt;br/&gt;+ list(String): List&amp;lt;CompanyRecord&amp;gt;&lt;br/&gt;+ save(Company): Company&lt;/p&gt;" style="verticalAlign=top;align=left;overflow=fill;fontSize=14;fontFamily=Helvetica;html=1;rounded=0;shadow=0;comic=0;labelBackgroundColor=none;strokeWidth=1;">
      <mxGeometry x="919" y="6056" width="259" height="125" as="geometry" />
    </mxCell>
    <mxCell id="node42" parent="1" vertex="1" value="&lt;p style=&quot;margin:0px;margin-top:4px;text-align:center;&quot;&gt;&lt;b&gt;CompanyRepositoryImpl&lt;/b&gt;&lt;/p&gt;&lt;hr size=&quot;1&quot;/&gt;&lt;p style=&quot;margin:0 0 0 4px;line-height:1.6;&quot;&gt;- companyAppRepository: CompanyAppRepository&lt;br/&gt;- gatewayDeviceRepository: GatewayDeviceRepository&lt;br/&gt;- mongoTemplate: MongoTemplate&lt;/p&gt;&lt;hr size=&quot;1&quot;/&gt;&lt;p style=&quot;margin:0 0 0 4px;line-height:1.6;&quot;&gt;+ findById(ObjectId): Company&lt;br/&gt;+ list(String): List&amp;lt;CompanyRecord&amp;gt;&lt;br/&gt;+ save(Company): Company&lt;/p&gt;" style="verticalAlign=top;align=left;overflow=fill;fontSize=14;fontFamily=Helvetica;html=1;rounded=0;shadow=0;comic=0;labelBackgroundColor=none;strokeWidth=1;">
      <mxGeometry x="599" y="6501" width="378" height="170" as="geometry" />
    </mxCell>
    <mxCell id="node53" parent="1" vertex="1" value="&lt;p style=&quot;margin:0px;margin-top:4px;text-align:center;&quot;&gt;&lt;b&gt;CompanyService&lt;/b&gt;&lt;/p&gt;&lt;hr size=&quot;1&quot;/&gt;&lt;p style=&quot;margin:0 0 0 4px;line-height:1.6;&quot;&gt;- companyRepository: CompanyRepository&lt;br/&gt;- gatewayDeviceRepository: GatewayDeviceRepository&lt;br/&gt;- tokenService: TokenServiceInterface&lt;br/&gt;- companyAppRepository: CompanyAppRepository&lt;/p&gt;&lt;hr size=&quot;1&quot;/&gt;&lt;p style=&quot;margin:0 0 0 4px;line-height:1.6;&quot;&gt;+ list(PaginatedParams, SearchCompanyParams): List&amp;lt;CompanyRecord&amp;gt;&lt;br/&gt;+ insert(CreateCompanyRecord): CompanyRecord&lt;br/&gt;+ findById(String): CompanyRecord&lt;br/&gt;+ findByAppCodeName(String): CompanyRecord&lt;br/&gt;+ generateToken(ObjectId): CompanyTokenRecord&lt;br/&gt;+ update(ObjectId, CreateCompanyRecord): CompanyRecord&lt;/p&gt;" style="verticalAlign=top;align=left;overflow=fill;fontSize=14;fontFamily=Helvetica;html=1;rounded=0;shadow=0;comic=0;labelBackgroundColor=none;strokeWidth=1;">
      <mxGeometry x="2027" y="6755" width="483" height="262" as="geometry" />
    </mxCell>
    <mxCell id="node81" parent="1" vertex="1" value="&lt;p style=&quot;margin:0px;margin-top:4px;text-align:center;&quot;&gt;&lt;i&gt;&amp;lt;&amp;lt;record&amp;gt;&amp;gt;&lt;/i&gt;&lt;br/&gt;&lt;b&gt;CompanyTokenRecord&lt;/b&gt;&lt;/p&gt;&lt;hr size=&quot;1&quot;/&gt;&lt;p style=&quot;margin:0 0 0 4px;line-height:1.6;&quot;&gt;- token: String&lt;br/&gt;- name: String&lt;/p&gt;&lt;hr size=&quot;1&quot;/&gt;&lt;p style=&quot;margin:0 0 0 4px;line-height:1.6;&quot;&gt;+ token(): String&lt;br/&gt;+ name(): String&lt;/p&gt;" style="verticalAlign=top;align=left;overflow=fill;fontSize=14;fontFamily=Helvetica;html=1;rounded=0;shadow=0;comic=0;labelBackgroundColor=none;strokeWidth=1;">
      <mxGeometry x="2354" y="5624" width="228" height="155" as="geometry" />
    </mxCell>
    <mxCell id="node9" parent="1" vertex="1" value="&lt;p style=&quot;margin:0px;margin-top:4px;text-align:center;&quot;&gt;&lt;b&gt;ConvertDataStepHandler&lt;/b&gt;&lt;/p&gt;&lt;hr size=&quot;1&quot;/&gt;&lt;p style=&quot;margin:0 0 0 4px;line-height:1.6;&quot;&gt;+ handle(DispatchEventHandlerRecord): void&lt;/p&gt;" style="verticalAlign=top;align=left;overflow=fill;fontSize=14;fontFamily=Helvetica;html=1;rounded=0;shadow=0;comic=0;labelBackgroundColor=none;strokeWidth=1;">
      <mxGeometry x="3992" y="6559" width="313" height="58" as="geometry" />
    </mxCell>
    <mxCell id="node14" parent="1" vertex="1" value="&lt;p style=&quot;margin:0px;margin-top:4px;text-align:center;&quot;&gt;&lt;i&gt;&amp;lt;&amp;lt;record&amp;gt;&amp;gt;&lt;/i&gt;&lt;br/&gt;&lt;b&gt;CreateCollectorDeviceRecord&lt;/b&gt;&lt;/p&gt;&lt;hr size=&quot;1&quot;/&gt;&lt;p style=&quot;margin:0 0 0 4px;line-height:1.6;&quot;&gt;- name: String&lt;br/&gt;- deviceId: String&lt;br/&gt;- sensors: List&amp;lt;CreateSensorRecord&amp;gt;&lt;/p&gt;&lt;hr size=&quot;1&quot;/&gt;&lt;p style=&quot;margin:0 0 0 4px;line-height:1.6;&quot;&gt;+ deviceId(): String&lt;br/&gt;+ sensors(): List&amp;lt;CreateSensorRecord&amp;gt;&lt;br/&gt;+ name(): String&lt;/p&gt;" style="verticalAlign=top;align=left;overflow=fill;fontSize=14;fontFamily=Helvetica;html=1;rounded=0;shadow=0;comic=0;labelBackgroundColor=none;strokeWidth=1;">
      <mxGeometry x="3367" y="7121" width="282" height="170" as="geometry" />
    </mxCell>
    <mxCell id="node33" parent="1" vertex="1" value="&lt;p style=&quot;margin:0px;margin-top:4px;text-align:center;&quot;&gt;&lt;i&gt;&amp;lt;&amp;lt;record&amp;gt;&amp;gt;&lt;/i&gt;&lt;br/&gt;&lt;b&gt;CreateCompanyAppRecord&lt;/b&gt;&lt;/p&gt;&lt;hr size=&quot;1&quot;/&gt;&lt;p style=&quot;margin:0 0 0 4px;line-height:1.6;&quot;&gt;- active: Boolean&lt;br/&gt;- appCodeName: String&lt;br/&gt;- appUrl: String&lt;br/&gt;- devices: List&amp;lt;CreateGatewayDeviceRecord&amp;gt;&lt;/p&gt;&lt;hr size=&quot;1&quot;/&gt;&lt;p style=&quot;margin:0 0 0 4px;line-height:1.6;&quot;&gt;+ devices(): List&amp;lt;CreateGatewayDeviceRecord&amp;gt;&lt;br/&gt;+ active(): Boolean&lt;br/&gt;+ appUrl(): String&lt;br/&gt;+ appCodeName(): String&lt;/p&gt;" style="verticalAlign=top;align=left;overflow=fill;fontSize=14;fontFamily=Helvetica;html=1;rounded=0;shadow=0;comic=0;labelBackgroundColor=none;strokeWidth=1;">
      <mxGeometry x="2842" y="5038" width="333" height="216" as="geometry" />
    </mxCell>
    <mxCell id="node51" parent="1" vertex="1" value="&lt;p style=&quot;margin:0px;margin-top:4px;text-align:center;&quot;&gt;&lt;i&gt;&amp;lt;&amp;lt;record&amp;gt;&amp;gt;&lt;/i&gt;&lt;br/&gt;&lt;b&gt;CreateCompanyRecord&lt;/b&gt;&lt;/p&gt;&lt;hr size=&quot;1&quot;/&gt;&lt;p style=&quot;margin:0 0 0 4px;line-height:1.6;&quot;&gt;- name: String&lt;br/&gt;- apps: List&amp;lt;CreateCompanyAppRecord&amp;gt;&lt;/p&gt;&lt;hr size=&quot;1&quot;/&gt;&lt;p style=&quot;margin:0 0 0 4px;line-height:1.6;&quot;&gt;+ apps(): List&amp;lt;CreateCompanyAppRecord&amp;gt;&lt;br/&gt;+ name(): String&lt;/p&gt;" style="verticalAlign=top;align=left;overflow=fill;fontSize=14;fontFamily=Helvetica;html=1;rounded=0;shadow=0;comic=0;labelBackgroundColor=none;strokeWidth=1;">
      <mxGeometry x="2618" y="7624" width="301" height="155" as="geometry" />
    </mxCell>
    <mxCell id="node3" parent="1" vertex="1" value="&lt;p style=&quot;margin:0px;margin-top:4px;text-align:center;&quot;&gt;&lt;i&gt;&amp;lt;&amp;lt;record&amp;gt;&amp;gt;&lt;/i&gt;&lt;br/&gt;&lt;b&gt;CreateGatewayDeviceRecord&lt;/b&gt;&lt;/p&gt;&lt;hr size=&quot;1&quot;/&gt;&lt;p style=&quot;margin:0 0 0 4px;line-height:1.6;&quot;&gt;- companyId: ObjectId&lt;br/&gt;- name: String&lt;br/&gt;- appCodeName: String&lt;br/&gt;- devices: List&amp;lt;CreateCollectorDeviceRecord&amp;gt;&lt;br/&gt;- deviceId: String&lt;/p&gt;&lt;hr size=&quot;1&quot;/&gt;&lt;p style=&quot;margin:0 0 0 4px;line-height:1.6;&quot;&gt;+ name(): String&lt;br/&gt;+ devices(): List&amp;lt;CreateCollectorDeviceRecord&amp;gt;&lt;br/&gt;+ appCodeName(): String&lt;br/&gt;+ deviceId(): String&lt;br/&gt;+ companyId(): ObjectId&lt;/p&gt;" style="verticalAlign=top;align=left;overflow=fill;fontSize=14;fontFamily=Helvetica;html=1;rounded=0;shadow=0;comic=0;labelBackgroundColor=none;strokeWidth=1;">
      <mxGeometry x="4361" y="6455" width="334" height="262" as="geometry" />
    </mxCell>
    <mxCell id="node80" parent="1" vertex="1" value="&lt;p style=&quot;margin:0px;margin-top:4px;text-align:center;&quot;&gt;&lt;i&gt;&amp;lt;&amp;lt;record&amp;gt;&amp;gt;&lt;/i&gt;&lt;br/&gt;&lt;b&gt;CreateSensorRecord&lt;/b&gt;&lt;/p&gt;&lt;hr size=&quot;1&quot;/&gt;&lt;p style=&quot;margin:0 0 0 4px;line-height:1.6;&quot;&gt;- sensorId: String&lt;br/&gt;- name: String&lt;/p&gt;&lt;hr size=&quot;1&quot;/&gt;&lt;p style=&quot;margin:0 0 0 4px;line-height:1.6;&quot;&gt;+ name(): String&lt;br/&gt;+ sensorId(): String&lt;/p&gt;" style="verticalAlign=top;align=left;overflow=fill;fontSize=14;fontFamily=Helvetica;html=1;rounded=0;shadow=0;comic=0;labelBackgroundColor=none;strokeWidth=1;">
      <mxGeometry x="703" y="7784" width="211" height="155" as="geometry" />
    </mxCell>
    <mxCell id="node69" parent="1" vertex="1" value="&lt;p style=&quot;margin:0px;margin-top:4px;text-align:center;&quot;&gt;&lt;b&gt;Data&lt;/b&gt;&lt;/p&gt;&lt;hr size=&quot;1&quot;/&gt;&lt;p style=&quot;margin:0 0 0 4px;line-height:1.6;&quot;&gt;+ version(): int&lt;br/&gt;+ startReadingsVector(FlatBufferBuilder, int): void&lt;br/&gt;+ finishDataBuffer(FlatBufferBuilder, int): void&lt;br/&gt;+ addVersion(FlatBufferBuilder, int): void&lt;br/&gt;+ readingsVector(Vector): Vector?&lt;br/&gt;+ addDeviceId(FlatBufferBuilder, int): void&lt;br/&gt;+ getRootAsData(ByteBuffer, Data): Data&lt;br/&gt;+ deviceId(): int&lt;br/&gt;+ finishSizePrefixedDataBuffer(FlatBufferBuilder, int): void&lt;br/&gt;+ createData(FlatBufferBuilder, int, int, int): int&lt;br/&gt;+ createReadingsVector(FlatBufferBuilder, int[]): int&lt;br/&gt;+ readingsVector(): Vector&lt;br/&gt;+ readings(int): SensorReading&lt;br/&gt;+ getRootAsData(ByteBuffer): Data&lt;br/&gt;+ __assign(int, ByteBuffer): Data&lt;br/&gt;+ startData(FlatBufferBuilder): void&lt;br/&gt;+ __init(int, ByteBuffer): void&lt;br/&gt;+ addReadings(FlatBufferBuilder, int): void&lt;br/&gt;+ readings(SensorReading, int): SensorReading?&lt;br/&gt;+ readingsLength(): int&lt;br/&gt;+ ValidateVersion(): void&lt;br/&gt;+ endData(FlatBufferBuilder): int&lt;/p&gt;" style="verticalAlign=top;align=left;overflow=fill;fontSize=14;fontFamily=Helvetica;html=1;rounded=0;shadow=0;comic=0;labelBackgroundColor=none;strokeWidth=1;">
      <mxGeometry x="4170" y="5418" width="396" height="537" as="geometry" />
    </mxCell>
    <mxCell id="node25" parent="1" vertex="1" value="&lt;p style=&quot;margin:0px;margin-top:4px;text-align:center;&quot;&gt;&lt;b&gt;DefaultFolhastechEventMessage&lt;/b&gt;&lt;/p&gt;&lt;hr size=&quot;1&quot;/&gt;&lt;p style=&quot;margin:0 0 0 4px;line-height:1.6;&quot;&gt;- traceId: String&lt;br/&gt;- bearerToken: String&lt;br/&gt;- data: Object&lt;/p&gt;&lt;hr size=&quot;1&quot;/&gt;&lt;p style=&quot;margin:0 0 0 4px;line-height:1.6;&quot;&gt;+ getTraceId(): String&lt;br/&gt;+ getBearerToken(): String&lt;br/&gt;+ getData(): Object&lt;br/&gt;+ setTraceId(String): void&lt;br/&gt;+ setBearerToken(String): void&lt;br/&gt;+ setData(Object): void&lt;br/&gt;+ toString(): String&lt;br/&gt;+ build(String, Object): DefaultFolhastechEventMessage&lt;/p&gt;" style="verticalAlign=top;align=left;overflow=fill;fontSize=14;fontFamily=Helvetica;html=1;rounded=0;shadow=0;comic=0;labelBackgroundColor=none;strokeWidth=1;">
      <mxGeometry x="4316" y="4644" width="385" height="285" as="geometry" />
    </mxCell>
    <mxCell id="node15" parent="1" vertex="1" value="&lt;p style=&quot;margin:0px;margin-top:4px;text-align:center;&quot;&gt;&lt;b&gt;DeviceConverter&lt;/b&gt;&lt;/p&gt;&lt;hr size=&quot;1&quot;/&gt;&lt;p style=&quot;margin:0 0 0 4px;line-height:1.6;&quot;&gt;- updateSensors(List&amp;lt;Sensor&amp;gt;, List&amp;lt;CreateSensorRecord&amp;gt;): List&amp;lt;Sensor&amp;gt;&lt;br/&gt;+ toRecord(List&amp;lt;GatewayDevice&amp;gt;): List&amp;lt;GatewayDeviceRecord&amp;gt;&lt;br/&gt;+ collectorDeviceToRecord(CollectorDevice): CollectorDeviceRecord&lt;br/&gt;- sensorsToRecord(List&amp;lt;Sensor&amp;gt;): List&amp;lt;SensorRecord&amp;gt;&lt;br/&gt;- updateCollectorDevices(List&amp;lt;CollectorDevice&amp;gt;, List&amp;lt;CreateCollectorDeviceRecord&amp;gt;): List&amp;lt;CollectorDevice&amp;gt;&lt;br/&gt;+ toDomain(ObjectId, List&amp;lt;CreateCompanyAppRecord&amp;gt;, List&amp;lt;CompanyApp&amp;gt;): List&amp;lt;GatewayDevice&amp;gt;&lt;br/&gt;- collectorDevicesToDomain(List&amp;lt;CreateCollectorDeviceRecord&amp;gt;): List&amp;lt;CollectorDevice&amp;gt;&lt;br/&gt;+ collectorDevicesToRecord(List&amp;lt;CollectorDevice&amp;gt;): List&amp;lt;CollectorDeviceRecord&amp;gt;&lt;br/&gt;+ toRecord(GatewayDevice): GatewayDeviceRecord&lt;br/&gt;- sensorsToDomain(List&amp;lt;CreateSensorRecord&amp;gt;): List&amp;lt;Sensor&amp;gt;&lt;br/&gt;+ toUpdateDomain(ObjectId, List&amp;lt;GatewayDevice&amp;gt;, List&amp;lt;CreateCompanyAppRecord&amp;gt;, List&amp;lt;CompanyApp&amp;gt;): void&lt;/p&gt;" style="verticalAlign=top;align=left;overflow=fill;fontSize=14;fontFamily=Helvetica;html=1;rounded=0;shadow=0;comic=0;labelBackgroundColor=none;strokeWidth=1;">
      <mxGeometry x="1149" y="1664" width="598" height="284" as="geometry" />
    </mxCell>
    <mxCell id="node7" parent="1" vertex="1" value="&lt;p style=&quot;margin:0px;margin-top:4px;text-align:center;&quot;&gt;&lt;i&gt;&amp;lt;&amp;lt;record&amp;gt;&amp;gt;&lt;/i&gt;&lt;br/&gt;&lt;b&gt;DeviceRequestBody&lt;/b&gt;&lt;/p&gt;&lt;hr size=&quot;1&quot;/&gt;&lt;p style=&quot;margin:0 0 0 4px;line-height:1.6;&quot;&gt;- deviceId: String&lt;br/&gt;- deviceName: String&lt;/p&gt;&lt;hr size=&quot;1&quot;/&gt;&lt;p style=&quot;margin:0 0 0 4px;line-height:1.6;&quot;&gt;+ deviceName(): String&lt;br/&gt;+ deviceId(): String&lt;/p&gt;" style="verticalAlign=top;align=left;overflow=fill;fontSize=14;fontFamily=Helvetica;html=1;rounded=0;shadow=0;comic=0;labelBackgroundColor=none;strokeWidth=1;">
      <mxGeometry x="3445" y="5624" width="206" height="155" as="geometry" />
    </mxCell>
    <mxCell id="node79" parent="1" vertex="1" value="&lt;p style=&quot;margin:0px;margin-top:4px;text-align:center;&quot;&gt;&lt;b&gt;DispatchByteConvertedMessage&lt;/b&gt;&lt;/p&gt;&lt;hr size=&quot;1&quot;/&gt;&lt;p style=&quot;margin:0 0 0 4px;line-height:1.6;&quot;&gt;- readings: List&amp;lt;DispatchSensorReading&amp;gt;&lt;br/&gt;- deviceId: int&lt;br/&gt;- version: int&lt;br/&gt;- timestamp: LocalDateTime&lt;/p&gt;&lt;hr size=&quot;1&quot;/&gt;&lt;p style=&quot;margin:0 0 0 4px;line-height:1.6;&quot;&gt;+ getVersion(): int&lt;br/&gt;+ getDeviceId(): int&lt;br/&gt;+ getTimestamp(): LocalDateTime&lt;br/&gt;+ getReadings(): List&amp;lt;DispatchSensorReading&amp;gt;&lt;br/&gt;+ toString(): String&lt;/p&gt;" style="verticalAlign=top;align=left;overflow=fill;fontSize=14;fontFamily=Helvetica;html=1;rounded=0;shadow=0;comic=0;labelBackgroundColor=none;strokeWidth=1;">
      <mxGeometry x="-116" y="2487" width="328" height="239" as="geometry" />
    </mxCell>
    <mxCell id="node38" parent="1" vertex="1" value="&lt;p style=&quot;margin:0px;margin-top:4px;text-align:center;&quot;&gt;&lt;b&gt;DispatchEvent&lt;/b&gt;&lt;/p&gt;&lt;hr size=&quot;1&quot;/&gt;&lt;p style=&quot;margin:0 0 0 4px;line-height:1.6;&quot;&gt;- convertedData: DispatchByteConvertedMessage&lt;br/&gt;- companyName: String&lt;br/&gt;- appCodeName: String&lt;br/&gt;- logs: List&amp;lt;DispatchEventLog&amp;gt;&lt;br/&gt;- code: UUID&lt;br/&gt;- deviceId: String&lt;br/&gt;- originalData: byte[]&lt;br/&gt;- appUrl: String&lt;br/&gt;- dateReceived: LocalDateTime&lt;br/&gt;- postFailed: Boolean&lt;br/&gt;- decodeFailed: Boolean&lt;br/&gt;- id: ObjectId&lt;br/&gt;- companyId: ObjectId&lt;/p&gt;&lt;hr size=&quot;1&quot;/&gt;&lt;p style=&quot;margin:0 0 0 4px;line-height:1.6;&quot;&gt;+ getAppCodeName(): String&lt;br/&gt;+ getDeviceId(): String&lt;br/&gt;+ getId(): ObjectId&lt;br/&gt;+ getCode(): UUID&lt;br/&gt;+ getCompanyId(): ObjectId&lt;br/&gt;+ getPostFailed(): Boolean&lt;br/&gt;+ setPostFailed(Boolean): void&lt;br/&gt;+ getCompanyName(): String&lt;br/&gt;+ setAppCodeName(String): void&lt;br/&gt;+ getAppUrl(): String&lt;br/&gt;+ getDecodeFailed(): Boolean&lt;br/&gt;+ getLogs(): List&amp;lt;DispatchEventLog&amp;gt;&lt;br/&gt;+ setDeviceId(String): void&lt;br/&gt;+ getOriginalData(): byte[]&lt;br/&gt;+ setOriginalData(byte[]): void&lt;br/&gt;+ setDecodeFailed(Boolean): void&lt;br/&gt;+ setCode(UUID): void&lt;br/&gt;+ setAppUrl(String): void&lt;br/&gt;+ setCompanyId(ObjectId): void&lt;br/&gt;+ getDateReceived(): LocalDateTime&lt;br/&gt;+ setLogs(List&amp;lt;DispatchEventLog&amp;gt;): void&lt;br/&gt;+ setConvertedData(DispatchByteConvertedMessage): void&lt;br/&gt;+ setDateReceived(LocalDateTime): void&lt;br/&gt;+ setId(ObjectId): void&lt;br/&gt;+ getConvertedData(): DispatchByteConvertedMessage&lt;br/&gt;+ setCompanyName(String): void&lt;br/&gt;+ processWithErrorSendingRequest(String): void&lt;br/&gt;+ setConvertedData(DispatchByteConvertedMessage, String): void&lt;br/&gt;+ processFinishedEvent(): void&lt;br/&gt;+ processResponseEvent(String): void&lt;br/&gt;+ processWithError(String): void&lt;br/&gt;- addLog(String): void&lt;br/&gt;+ setCompanyData(CompanyRecord, String): void&lt;br/&gt;+ setAppData(String, String, String): void&lt;/p&gt;" style="verticalAlign=top;align=left;overflow=fill;fontSize=14;fontFamily=Helvetica;html=1;rounded=0;shadow=0;comic=0;labelBackgroundColor=none;strokeWidth=1;">
      <mxGeometry x="122" y="3290" width="452" height="1113" as="geometry" />
    </mxCell>
    <mxCell id="node49" parent="1" vertex="1" value="&lt;p style=&quot;margin:0px;margin-top:4px;text-align:center;&quot;&gt;&lt;b&gt;DispatchEventConverter&lt;/b&gt;&lt;/p&gt;&lt;hr size=&quot;1&quot;/&gt;&lt;p style=&quot;margin:0 0 0 4px;line-height:1.6;&quot;&gt;+ toRecord(DispatchEvent): EventRecord&lt;br/&gt;- convertOriginalBytesToHex(byte[]): String&lt;br/&gt;+ createFreshEvent(String, byte[], LocalDateTime): DispatchEvent&lt;/p&gt;" style="verticalAlign=top;align=left;overflow=fill;fontSize=14;fontFamily=Helvetica;html=1;rounded=0;shadow=0;comic=0;labelBackgroundColor=none;strokeWidth=1;">
      <mxGeometry x="-135" y="4496" width="446" height="108" as="geometry" />
    </mxCell>
    <mxCell id="node29" parent="1" vertex="1" value="&lt;p style=&quot;margin:0px;margin-top:4px;text-align:center;&quot;&gt;&lt;i&gt;&amp;lt;&amp;lt;record&amp;gt;&amp;gt;&lt;/i&gt;&lt;br/&gt;&lt;b&gt;DispatchEventHandlerRecord&lt;/b&gt;&lt;/p&gt;&lt;hr size=&quot;1&quot;/&gt;&lt;p style=&quot;margin:0 0 0 4px;line-height:1.6;&quot;&gt;- event: DispatchEvent&lt;br/&gt;- data: Data&lt;/p&gt;&lt;hr size=&quot;1&quot;/&gt;&lt;p style=&quot;margin:0 0 0 4px;line-height:1.6;&quot;&gt;+ data(): Data&lt;br/&gt;+ event(): DispatchEvent&lt;/p&gt;" style="verticalAlign=top;align=left;overflow=fill;fontSize=14;fontFamily=Helvetica;html=1;rounded=0;shadow=0;comic=0;labelBackgroundColor=none;strokeWidth=1;">
      <mxGeometry x="4189" y="6824" width="279" height="155" as="geometry" />
    </mxCell>
    <mxCell id="node77" parent="1" vertex="1" value="&lt;p style=&quot;margin:0px;margin-top:4px;text-align:center;&quot;&gt;&lt;b&gt;DispatchEventLog&lt;/b&gt;&lt;/p&gt;&lt;hr size=&quot;1&quot;/&gt;&lt;p style=&quot;margin:0 0 0 4px;line-height:1.6;&quot;&gt;- log: String&lt;br/&gt;- date: LocalDateTime&lt;/p&gt;&lt;hr size=&quot;1&quot;/&gt;&lt;p style=&quot;margin:0 0 0 4px;line-height:1.6;&quot;&gt;+ getLog(): String&lt;br/&gt;+ getDate(): LocalDateTime&lt;br/&gt;+ setLog(String): void&lt;br/&gt;+ setDate(LocalDateTime): void&lt;/p&gt;" style="verticalAlign=top;align=left;overflow=fill;fontSize=14;fontFamily=Helvetica;html=1;rounded=0;shadow=0;comic=0;labelBackgroundColor=none;strokeWidth=1;">
      <mxGeometry x="294" y="2521" width="228" height="170" as="geometry" />
    </mxCell>
    <mxCell id="node50" parent="1" vertex="1" value="&lt;p style=&quot;margin:0px;margin-top:4px;text-align:center;&quot;&gt;&lt;b&gt;DispatchMessageConverter&lt;/b&gt;&lt;/p&gt;&lt;hr size=&quot;1&quot;/&gt;&lt;p style=&quot;margin:0 0 0 4px;line-height:1.6;&quot;&gt;- log: Logger&lt;/p&gt;&lt;hr size=&quot;1&quot;/&gt;&lt;p style=&quot;margin:0 0 0 4px;line-height:1.6;&quot;&gt;+ convertReadings(Data): List&amp;lt;DispatchSensorReading&amp;gt;&lt;br/&gt;- convertFloatValue(SensorReading): Optional&amp;lt;String&amp;gt;&lt;br/&gt;- convertIntValue(SensorReading): Optional&amp;lt;String&amp;gt;&lt;br/&gt;- convertBoolValue(SensorReading): Optional&amp;lt;String&amp;gt;&lt;br/&gt;+ convertBody(Data, List&amp;lt;DispatchSensorReading&amp;gt;): DispatchByteConvertedMessage&lt;br/&gt;- convertStringValue(SensorReading): Optional&amp;lt;String&amp;gt;&lt;br/&gt;- convertValue(SensorReading): Optional&amp;lt;String&amp;gt;&lt;/p&gt;" style="verticalAlign=top;align=left;overflow=fill;fontSize=14;fontFamily=Helvetica;html=1;rounded=0;shadow=0;comic=0;labelBackgroundColor=none;strokeWidth=1;">
      <mxGeometry x="463" y="1698" width="570" height="216" as="geometry" />
    </mxCell>
    <mxCell id="node57" parent="1" vertex="1" value="&lt;p style=&quot;margin:0px;margin-top:4px;text-align:center;&quot;&gt;&lt;i&gt;&amp;lt;&amp;lt;record&amp;gt;&amp;gt;&lt;/i&gt;&lt;br/&gt;&lt;b&gt;DispatchRequestBody&lt;/b&gt;&lt;/p&gt;&lt;hr size=&quot;1&quot;/&gt;&lt;p style=&quot;margin:0 0 0 4px;line-height:1.6;&quot;&gt;- device: DeviceRequestBody&lt;br/&gt;- timestamp: LocalDateTime&lt;br/&gt;- version: int&lt;br/&gt;- sensors: List&amp;lt;SensorRequestBody&amp;gt;&lt;/p&gt;&lt;hr size=&quot;1&quot;/&gt;&lt;p style=&quot;margin:0 0 0 4px;line-height:1.6;&quot;&gt;+ device(): DeviceRequestBody&lt;br/&gt;+ timestamp(): LocalDateTime&lt;br/&gt;+ version(): int&lt;br/&gt;+ sensors(): List&amp;lt;SensorRequestBody&amp;gt;&lt;/p&gt;" style="verticalAlign=top;align=left;overflow=fill;fontSize=14;fontFamily=Helvetica;html=1;rounded=0;shadow=0;comic=0;labelBackgroundColor=none;strokeWidth=1;">
      <mxGeometry x="4009" y="5998" width="279" height="216" as="geometry" />
    </mxCell>
    <mxCell id="node19" parent="1" vertex="1" value="&lt;p style=&quot;margin:0px;margin-top:4px;text-align:center;&quot;&gt;&lt;b&gt;DispatchSensorReading&lt;/b&gt;&lt;/p&gt;&lt;hr size=&quot;1&quot;/&gt;&lt;p style=&quot;margin:0 0 0 4px;line-height:1.6;&quot;&gt;- sensorId: Integer&lt;br/&gt;- value: String&lt;/p&gt;&lt;hr size=&quot;1&quot;/&gt;&lt;p style=&quot;margin:0 0 0 4px;line-height:1.6;&quot;&gt;+ getSensorId(): Integer&lt;br/&gt;+ getValue(): String&lt;br/&gt;+ toString(): String&lt;/p&gt;" style="verticalAlign=top;align=left;overflow=fill;fontSize=14;fontFamily=Helvetica;html=1;rounded=0;shadow=0;comic=0;labelBackgroundColor=none;strokeWidth=1;">
      <mxGeometry x="-70" y="1993" width="237" height="147" as="geometry" />
    </mxCell>
    <mxCell id="node12" parent="1" vertex="1" value="&lt;p style=&quot;margin:0px;margin-top:4px;text-align:center;&quot;&gt;&lt;i&gt;&amp;lt;&amp;lt;interface&amp;gt;&amp;gt;&lt;/i&gt;&lt;br/&gt;&lt;b&gt;DispatchStepHandler&lt;/b&gt;&lt;/p&gt;&lt;hr size=&quot;1&quot;/&gt;&lt;p style=&quot;margin:0 0 0 4px;line-height:1.6;&quot;&gt;+ handle(DispatchEventHandlerRecord): void&lt;br/&gt;+ setNextHandler(DispatchStepHandler): DispatchStepHandler&lt;/p&gt;" style="verticalAlign=top;align=left;overflow=fill;fontSize=14;fontFamily=Helvetica;html=1;rounded=0;shadow=0;comic=0;labelBackgroundColor=none;strokeWidth=1;">
      <mxGeometry x="3096" y="4748" width="425" height="96" as="geometry" />
    </mxCell>
    <mxCell id="node0" parent="1" vertex="1" value="&lt;p style=&quot;margin:0px;margin-top:4px;text-align:center;&quot;&gt;&lt;b&gt;DispatcherService&lt;/b&gt;&lt;/p&gt;&lt;hr size=&quot;1&quot;/&gt;&lt;p style=&quot;margin:0 0 0 4px;line-height:1.6;&quot;&gt;- log: Logger&lt;br/&gt;- findDeviceInterface: FindDeviceInterface&lt;br/&gt;- eventRepository: EventRepository&lt;br/&gt;- findCompanyInterface: FindCompanyInterface&lt;br/&gt;- findCompanyAppInterface: FindCompanyAppInterface&lt;/p&gt;&lt;hr size=&quot;1&quot;/&gt;&lt;p style=&quot;margin:0 0 0 4px;line-height:1.6;&quot;&gt;+ dispatch(byte[], String): void&lt;br/&gt;+ dispatch(ObjectId): void&lt;/p&gt;" style="verticalAlign=top;align=left;overflow=fill;fontSize=14;fontFamily=Helvetica;html=1;rounded=0;shadow=0;comic=0;labelBackgroundColor=none;strokeWidth=1;">
      <mxGeometry x="2898" y="7330" width="381" height="193" as="geometry" />
    </mxCell>
    <mxCell id="node43" parent="1" vertex="1" value="&lt;p style=&quot;margin:0px;margin-top:4px;text-align:center;&quot;&gt;&lt;b&gt;DoRequestStepHandler&lt;/b&gt;&lt;/p&gt;&lt;hr size=&quot;1&quot;/&gt;&lt;p style=&quot;margin:0 0 0 4px;line-height:1.6;&quot;&gt;- findDeviceInterface: FindDeviceInterface&lt;/p&gt;&lt;hr size=&quot;1&quot;/&gt;&lt;p style=&quot;margin:0 0 0 4px;line-height:1.6;&quot;&gt;- createRequestBody(DispatchEvent): DispatchRequestBody&lt;br/&gt;- createSensorReadings(CollectorDeviceRecord, List&amp;lt;DispatchSensorReading&amp;gt;): List&amp;lt;SensorRequestBody&amp;gt;&lt;br/&gt;+ handle(DispatchEventHandlerRecord): void&lt;/p&gt;" style="verticalAlign=top;align=left;overflow=fill;fontSize=14;fontFamily=Helvetica;html=1;rounded=0;shadow=0;comic=0;labelBackgroundColor=none;strokeWidth=1;">
      <mxGeometry x="3473" y="6824" width="590" height="134" as="geometry" />
    </mxCell>
    <mxCell id="node48" parent="1" vertex="1" value="&lt;p style=&quot;margin:0px;margin-top:4px;text-align:center;&quot;&gt;&lt;b&gt;ErrorResponse&lt;/b&gt;&lt;/p&gt;&lt;hr size=&quot;1&quot;/&gt;&lt;p style=&quot;margin:0 0 0 4px;line-height:1.6;&quot;&gt;- errors: List&amp;lt;String&amp;gt;&lt;br/&gt;- success: boolean&lt;/p&gt;&lt;hr size=&quot;1&quot;/&gt;&lt;p style=&quot;margin:0 0 0 4px;line-height:1.6;&quot;&gt;+ getErrors(): List&amp;lt;String&amp;gt;&lt;br/&gt;+ isSuccess(): boolean&lt;/p&gt;" style="verticalAlign=top;align=left;overflow=fill;fontSize=14;fontFamily=Helvetica;html=1;rounded=0;shadow=0;comic=0;labelBackgroundColor=none;strokeWidth=1;">
      <mxGeometry x="3569" y="7364" width="198" height="134" as="geometry" />
    </mxCell>
    <mxCell id="node6" parent="1" vertex="1" value="&lt;p style=&quot;margin:0px;margin-top:4px;text-align:center;&quot;&gt;&lt;b&gt;EventController&lt;/b&gt;&lt;/p&gt;&lt;hr size=&quot;1&quot;/&gt;&lt;p style=&quot;margin:0 0 0 4px;line-height:1.6;&quot;&gt;- eventService: EventService&lt;br/&gt;- dispatcherService: DispatcherService&lt;/p&gt;&lt;hr size=&quot;1&quot;/&gt;&lt;p style=&quot;margin:0 0 0 4px;line-height:1.6;&quot;&gt;+ dispatch(ObjectId): ResponseEntity&amp;lt;?&amp;gt;&lt;br/&gt;+ delete(ObjectId): ResponseEntity&amp;lt;?&amp;gt;&lt;br/&gt;+ list(PaginatedParams, ListEventParams): ResponseEntity&amp;lt;BaseResponse&amp;lt;Page&amp;lt;EventRecord&amp;gt;&amp;gt;&amp;gt;&lt;/p&gt;" style="verticalAlign=top;align=left;overflow=fill;fontSize=14;fontFamily=Helvetica;html=1;rounded=0;shadow=0;comic=0;labelBackgroundColor=none;strokeWidth=1;">
      <mxGeometry x="1922" y="7773" width="653" height="147" as="geometry" />
    </mxCell>
    <mxCell id="node62" parent="1" vertex="1" value="&lt;p style=&quot;margin:0px;margin-top:4px;text-align:center;&quot;&gt;&lt;i&gt;&amp;lt;&amp;lt;record&amp;gt;&amp;gt;&lt;/i&gt;&lt;br/&gt;&lt;b&gt;EventRecord&lt;/b&gt;&lt;/p&gt;&lt;hr size=&quot;1&quot;/&gt;&lt;p style=&quot;margin:0 0 0 4px;line-height:1.6;&quot;&gt;- date: LocalDateTime&lt;br/&gt;- errorDecoding: Boolean&lt;br/&gt;- converted: DispatchByteConvertedMessage&lt;br/&gt;- errorPost: Boolean&lt;br/&gt;- logs: List&amp;lt;DispatchEventLog&amp;gt;&lt;br/&gt;- companyName: String&lt;br/&gt;- appCodeName: String&lt;br/&gt;- original: String&lt;br/&gt;- id: String&lt;/p&gt;&lt;hr size=&quot;1&quot;/&gt;&lt;p style=&quot;margin:0 0 0 4px;line-height:1.6;&quot;&gt;+ appCodeName(): String&lt;br/&gt;+ converted(): DispatchByteConvertedMessage&lt;br/&gt;+ logs(): List&amp;lt;DispatchEventLog&amp;gt;&lt;br/&gt;+ original(): String&lt;br/&gt;+ id(): String&lt;br/&gt;+ date(): LocalDateTime&lt;br/&gt;+ companyName(): String&lt;br/&gt;+ errorDecoding(): Boolean&lt;br/&gt;+ errorPost(): Boolean&lt;/p&gt;" style="verticalAlign=top;align=left;overflow=fill;fontSize=14;fontFamily=Helvetica;html=1;rounded=0;shadow=0;comic=0;labelBackgroundColor=none;strokeWidth=1;">
      <mxGeometry x="483" y="2803" width="331" height="446" as="geometry" />
    </mxCell>
    <mxCell id="node21" parent="1" vertex="1" value="&lt;p style=&quot;margin:0px;margin-top:4px;text-align:center;&quot;&gt;&lt;i&gt;&amp;lt;&amp;lt;interface&amp;gt;&amp;gt;&lt;/i&gt;&lt;br/&gt;&lt;b&gt;EventRepository&lt;/b&gt;&lt;/p&gt;&lt;hr size=&quot;1&quot;/&gt;&lt;p style=&quot;margin:0 0 0 4px;line-height:1.6;&quot;&gt;+ save(DispatchEvent): void&lt;br/&gt;+ findById(ObjectId): DispatchEvent&lt;br/&gt;+ list(Pageable, ListEventParams): Page&amp;lt;EventRecord&amp;gt;&lt;br/&gt;+ delete(DispatchEvent): void&lt;/p&gt;" style="verticalAlign=top;align=left;overflow=fill;fontSize=14;fontFamily=Helvetica;html=1;rounded=0;shadow=0;comic=0;labelBackgroundColor=none;strokeWidth=1;">
      <mxGeometry x="1820" y="5085" width="377" height="154" as="geometry" />
    </mxCell>
    <mxCell id="node18" parent="1" vertex="1" value="&lt;p style=&quot;margin:0px;margin-top:4px;text-align:center;&quot;&gt;&lt;b&gt;EventRepositoryImpl&lt;/b&gt;&lt;/p&gt;&lt;hr size=&quot;1&quot;/&gt;&lt;p style=&quot;margin:0 0 0 4px;line-height:1.6;&quot;&gt;- mongoTemplate: MongoTemplate&lt;/p&gt;&lt;hr size=&quot;1&quot;/&gt;&lt;p style=&quot;margin:0 0 0 4px;line-height:1.6;&quot;&gt;+ list(Pageable, ListEventParams): Page&amp;lt;EventRecord&amp;gt;&lt;br/&gt;+ delete(DispatchEvent): void&lt;br/&gt;+ findById(ObjectId): DispatchEvent&lt;br/&gt;+ save(DispatchEvent): void&lt;/p&gt;" style="verticalAlign=top;align=left;overflow=fill;fontSize=14;fontFamily=Helvetica;html=1;rounded=0;shadow=0;comic=0;labelBackgroundColor=none;strokeWidth=1;">
      <mxGeometry x="1500" y="5613" width="377" height="147" as="geometry" />
    </mxCell>
    <mxCell id="node13" parent="1" vertex="1" value="&lt;p style=&quot;margin:0px;margin-top:4px;text-align:center;&quot;&gt;&lt;b&gt;EventService&lt;/b&gt;&lt;/p&gt;&lt;hr size=&quot;1&quot;/&gt;&lt;p style=&quot;margin:0 0 0 4px;line-height:1.6;&quot;&gt;- eventRepository: EventRepository&lt;/p&gt;&lt;hr size=&quot;1&quot;/&gt;&lt;p style=&quot;margin:0 0 0 4px;line-height:1.6;&quot;&gt;+ delete(ObjectId): void&lt;br/&gt;+ list(PaginatedParams, ListEventParams): Page&amp;lt;EventRecord&amp;gt;&lt;/p&gt;" style="verticalAlign=top;align=left;overflow=fill;fontSize=14;fontFamily=Helvetica;html=1;rounded=0;shadow=0;comic=0;labelBackgroundColor=none;strokeWidth=1;">
      <mxGeometry x="2315" y="7376" width="427" height="109" as="geometry" />
    </mxCell>
    <mxCell id="node67" parent="1" vertex="1" value="&lt;p style=&quot;margin:0px;margin-top:4px;text-align:center;&quot;&gt;&lt;i&gt;&amp;lt;&amp;lt;interface&amp;gt;&amp;gt;&lt;/i&gt;&lt;br/&gt;&lt;b&gt;FindCompanyAppInterface&lt;/b&gt;&lt;/p&gt;&lt;hr size=&quot;1&quot;/&gt;&lt;p style=&quot;margin:0 0 0 4px;line-height:1.6;&quot;&gt;+ findByDeviceId(String): CompanyAppRecord&lt;/p&gt;" style="verticalAlign=top;align=left;overflow=fill;fontSize=14;fontFamily=Helvetica;html=1;rounded=0;shadow=0;comic=0;labelBackgroundColor=none;strokeWidth=1;">
      <mxGeometry x="2129" y="6079" width="318" height="68" as="geometry" />
    </mxCell>
    <mxCell id="node71" parent="1" vertex="1" value="&lt;p style=&quot;margin:0px;margin-top:4px;text-align:center;&quot;&gt;&lt;i&gt;&amp;lt;&amp;lt;interface&amp;gt;&amp;gt;&lt;/i&gt;&lt;br/&gt;&lt;b&gt;FindCompanyInterface&lt;/b&gt;&lt;/p&gt;&lt;hr size=&quot;1&quot;/&gt;&lt;p style=&quot;margin:0 0 0 4px;line-height:1.6;&quot;&gt;+ findByAppCodeName(String): CompanyRecord&lt;br/&gt;+ findById(String): CompanyRecord&lt;/p&gt;" style="verticalAlign=top;align=left;overflow=fill;fontSize=14;fontFamily=Helvetica;html=1;rounded=0;shadow=0;comic=0;labelBackgroundColor=none;strokeWidth=1;">
      <mxGeometry x="1741" y="6068" width="334" height="96" as="geometry" />
    </mxCell>
    <mxCell id="node59" parent="1" vertex="1" value="&lt;p style=&quot;margin:0px;margin-top:4px;text-align:center;&quot;&gt;&lt;b&gt;FindCompanyStepHandler&lt;/b&gt;&lt;/p&gt;&lt;hr size=&quot;1&quot;/&gt;&lt;p style=&quot;margin:0 0 0 4px;line-height:1.6;&quot;&gt;- findCompanyInterface: FindCompanyInterface&lt;/p&gt;&lt;hr size=&quot;1&quot;/&gt;&lt;p style=&quot;margin:0 0 0 4px;line-height:1.6;&quot;&gt;+ handle(DispatchEventHandlerRecord): void&lt;/p&gt;" style="verticalAlign=top;align=left;overflow=fill;fontSize=14;fontFamily=Helvetica;html=1;rounded=0;shadow=0;comic=0;labelBackgroundColor=none;strokeWidth=1;">
      <mxGeometry x="2643" y="6847" width="331" height="84" as="geometry" />
    </mxCell>
    <mxCell id="node66" parent="1" vertex="1" value="&lt;p style=&quot;margin:0px;margin-top:4px;text-align:center;&quot;&gt;&lt;b&gt;FindDeviceIdStepHandler&lt;/b&gt;&lt;/p&gt;&lt;hr size=&quot;1&quot;/&gt;&lt;p style=&quot;margin:0 0 0 4px;line-height:1.6;&quot;&gt;- findDeviceInterface: FindDeviceInterface&lt;br/&gt;- findCompanyAppInterface: FindCompanyAppInterface&lt;/p&gt;&lt;hr size=&quot;1&quot;/&gt;&lt;p style=&quot;margin:0 0 0 4px;line-height:1.6;&quot;&gt;+ handle(DispatchEventHandlerRecord): void&lt;/p&gt;" style="verticalAlign=top;align=left;overflow=fill;fontSize=14;fontFamily=Helvetica;html=1;rounded=0;shadow=0;comic=0;labelBackgroundColor=none;strokeWidth=1;">
      <mxGeometry x="3038" y="6836" width="381" height="109" as="geometry" />
    </mxCell>
    <mxCell id="node2" parent="1" vertex="1" value="&lt;p style=&quot;margin:0px;margin-top:4px;text-align:center;&quot;&gt;&lt;i&gt;&amp;lt;&amp;lt;interface&amp;gt;&amp;gt;&lt;/i&gt;&lt;br/&gt;&lt;b&gt;FindDeviceInterface&lt;/b&gt;&lt;/p&gt;&lt;hr size=&quot;1&quot;/&gt;&lt;p style=&quot;margin:0 0 0 4px;line-height:1.6;&quot;&gt;+ findCollectorById(String, int): CollectorDeviceRecord&lt;br/&gt;+ findById(String): GatewayDeviceRecord&lt;/p&gt;" style="verticalAlign=top;align=left;overflow=fill;fontSize=14;fontFamily=Helvetica;html=1;rounded=0;shadow=0;comic=0;labelBackgroundColor=none;strokeWidth=1;">
      <mxGeometry x="2643" y="6068" width="371" height="96" as="geometry" />
    </mxCell>
    <mxCell id="node75" parent="1" vertex="1" value="&lt;p style=&quot;margin:0px;margin-top:4px;text-align:center;&quot;&gt;&lt;b&gt;FloatValue&lt;/b&gt;&lt;/p&gt;&lt;hr size=&quot;1&quot;/&gt;&lt;p style=&quot;margin:0 0 0 4px;line-height:1.6;&quot;&gt;+ createFloatValue(FlatBufferBuilder, float): int&lt;br/&gt;+ ValidateVersion(): void&lt;br/&gt;+ endFloatValue(FlatBufferBuilder): int&lt;br/&gt;+ startFloatValue(FlatBufferBuilder): void&lt;br/&gt;+ value(): float&lt;br/&gt;+ addValue(FlatBufferBuilder, float): void&lt;br/&gt;+ getRootAsFloatValue(ByteBuffer, FloatValue): FloatValue&lt;br/&gt;+ __init(int, ByteBuffer): void&lt;br/&gt;+ getRootAsFloatValue(ByteBuffer): FloatValue&lt;br/&gt;+ __assign(int, ByteBuffer): FloatValue&lt;/p&gt;" style="verticalAlign=top;align=left;overflow=fill;fontSize=14;fontFamily=Helvetica;html=1;rounded=0;shadow=0;comic=0;labelBackgroundColor=none;strokeWidth=1;">
      <mxGeometry x="548" y="736" width="401" height="261" as="geometry" />
    </mxCell>
    <mxCell id="node63" parent="1" vertex="1" value="&lt;p style=&quot;margin:0px;margin-top:4px;text-align:center;&quot;&gt;&lt;b&gt;GatewayDevice&lt;/b&gt;&lt;/p&gt;&lt;hr size=&quot;1&quot;/&gt;&lt;p style=&quot;margin:0 0 0 4px;line-height:1.6;&quot;&gt;- internalId: ObjectId&lt;br/&gt;- companyAppId: ObjectId&lt;br/&gt;- collectorDevices: List&amp;lt;CollectorDevice&amp;gt;&lt;br/&gt;- deviceId: String&lt;br/&gt;- name: String&lt;br/&gt;- appCodeName: String&lt;br/&gt;- companyId: ObjectId&lt;/p&gt;&lt;hr size=&quot;1&quot;/&gt;&lt;p style=&quot;margin:0 0 0 4px;line-height:1.6;&quot;&gt;+ getCompanyId(): ObjectId&lt;br/&gt;+ getInternalId(): ObjectId&lt;br/&gt;+ getCompanyAppId(): ObjectId&lt;br/&gt;+ getAppCodeName(): String&lt;br/&gt;+ getDeviceId(): String&lt;br/&gt;+ getName(): String&lt;br/&gt;+ getCollectorDevices(): List&amp;lt;CollectorDevice&amp;gt;&lt;br/&gt;+ setName(String): void&lt;br/&gt;+ setCollectorDevices(List&amp;lt;CollectorDevice&amp;gt;): void&lt;br/&gt;+ setAppCodeName(String): void&lt;br/&gt;+ setInternalId(ObjectId): void&lt;br/&gt;+ setCompanyId(ObjectId): void&lt;br/&gt;+ setCompanyAppId(ObjectId): void&lt;br/&gt;+ setDeviceId(String): void&lt;/p&gt;" style="verticalAlign=top;align=left;overflow=fill;fontSize=14;fontFamily=Helvetica;html=1;rounded=0;shadow=0;comic=0;labelBackgroundColor=none;strokeWidth=1;">
      <mxGeometry x="1473" y="1049" width="351" height="515" as="geometry" />
    </mxCell>
    <mxCell id="node78" parent="1" vertex="1" value="&lt;p style=&quot;margin:0px;margin-top:4px;text-align:center;&quot;&gt;&lt;i&gt;&amp;lt;&amp;lt;record&amp;gt;&amp;gt;&lt;/i&gt;&lt;br/&gt;&lt;b&gt;GatewayDeviceRecord&lt;/b&gt;&lt;/p&gt;&lt;hr size=&quot;1&quot;/&gt;&lt;p style=&quot;margin:0 0 0 4px;line-height:1.6;&quot;&gt;- appCodeName: String&lt;br/&gt;- id: String&lt;br/&gt;- devices: List&amp;lt;CollectorDeviceRecord&amp;gt;&lt;br/&gt;- name: String&lt;br/&gt;- deviceId: String&lt;/p&gt;&lt;hr size=&quot;1&quot;/&gt;&lt;p style=&quot;margin:0 0 0 4px;line-height:1.6;&quot;&gt;+ id(): String&lt;br/&gt;+ name(): String&lt;br/&gt;+ devices(): List&amp;lt;CollectorDeviceRecord&amp;gt;&lt;br/&gt;+ appCodeName(): String&lt;br/&gt;+ deviceId(): String&lt;/p&gt;" style="verticalAlign=top;align=left;overflow=fill;fontSize=14;fontFamily=Helvetica;html=1;rounded=0;shadow=0;comic=0;labelBackgroundColor=none;strokeWidth=1;">
      <mxGeometry x="1702" y="735" width="292" height="262" as="geometry" />
    </mxCell>
    <mxCell id="node28" parent="1" vertex="1" value="&lt;p style=&quot;margin:0px;margin-top:4px;text-align:center;&quot;&gt;&lt;i&gt;&amp;lt;&amp;lt;interface&amp;gt;&amp;gt;&lt;/i&gt;&lt;br/&gt;&lt;b&gt;GatewayDeviceRepository&lt;/b&gt;&lt;/p&gt;&lt;hr size=&quot;1&quot;/&gt;&lt;p style=&quot;margin:0 0 0 4px;line-height:1.6;&quot;&gt;+ list(): List&amp;lt;GatewayDevice&amp;gt;&lt;br/&gt;+ save(GatewayDevice): GatewayDevice&lt;br/&gt;+ findByCollectorId(String, String): GatewayDevice&lt;br/&gt;+ findById(String): GatewayDevice&lt;br/&gt;+ save(List&amp;lt;GatewayDevice&amp;gt;): void&lt;br/&gt;+ findById(ObjectId): GatewayDevice&lt;br/&gt;+ findByCompanyId(ObjectId): List&amp;lt;GatewayDevice&amp;gt;&lt;/p&gt;" style="verticalAlign=top;align=left;overflow=fill;fontSize=14;fontFamily=Helvetica;html=1;rounded=0;shadow=0;comic=0;labelBackgroundColor=none;strokeWidth=1;">
      <mxGeometry x="229" y="5590" width="359" height="192" as="geometry" />
    </mxCell>
    <mxCell id="node82" parent="1" vertex="1" value="&lt;p style=&quot;margin:0px;margin-top:4px;text-align:center;&quot;&gt;&lt;b&gt;GatewayDeviceRepositoryImpl&lt;/b&gt;&lt;/p&gt;&lt;hr size=&quot;1&quot;/&gt;&lt;p style=&quot;margin:0 0 0 4px;line-height:1.6;&quot;&gt;- mongoTemplate: MongoTemplate&lt;/p&gt;&lt;hr size=&quot;1&quot;/&gt;&lt;p style=&quot;margin:0 0 0 4px;line-height:1.6;&quot;&gt;+ save(List&amp;lt;GatewayDevice&amp;gt;): void&lt;br/&gt;+ findByCollectorId(String, String): GatewayDevice&lt;br/&gt;+ findById(ObjectId): GatewayDevice&lt;br/&gt;+ findByCompanyId(ObjectId): List&amp;lt;GatewayDevice&amp;gt;&lt;br/&gt;+ list(): List&amp;lt;GatewayDevice&amp;gt;&lt;br/&gt;+ findById(String): GatewayDevice&lt;br/&gt;+ save(GatewayDevice): GatewayDevice&lt;/p&gt;" style="verticalAlign=top;align=left;overflow=fill;fontSize=14;fontFamily=Helvetica;html=1;rounded=0;shadow=0;comic=0;labelBackgroundColor=none;strokeWidth=1;">
      <mxGeometry x="-151" y="6778" width="359" height="216" as="geometry" />
    </mxCell>
    <mxCell id="node1" parent="1" vertex="1" value="&lt;p style=&quot;margin:0px;margin-top:4px;text-align:center;&quot;&gt;&lt;b&gt;GatewayDeviceService&lt;/b&gt;&lt;/p&gt;&lt;hr size=&quot;1&quot;/&gt;&lt;p style=&quot;margin:0 0 0 4px;line-height:1.6;&quot;&gt;- gatewayDeviceRepository: GatewayDeviceRepository&lt;/p&gt;&lt;hr size=&quot;1&quot;/&gt;&lt;p style=&quot;margin:0 0 0 4px;line-height:1.6;&quot;&gt;+ findById(String): GatewayDeviceRecord&lt;br/&gt;+ findCollectorById(String, int): CollectorDeviceRecord&lt;/p&gt;" style="verticalAlign=top;align=left;overflow=fill;fontSize=14;fontFamily=Helvetica;html=1;rounded=0;shadow=0;comic=0;labelBackgroundColor=none;strokeWidth=1;">
      <mxGeometry x="1599" y="6836" width="378" height="109" as="geometry" />
    </mxCell>
    <mxCell id="node64" parent="1" vertex="1" value="&lt;p style=&quot;margin:0px;margin-top:4px;text-align:center;&quot;&gt;&lt;b&gt;HttpClient&lt;/b&gt;&lt;/p&gt;&lt;hr size=&quot;1&quot;/&gt;&lt;p style=&quot;margin:0 0 0 4px;line-height:1.6;&quot;&gt;- log: Logger&lt;br/&gt;- restTemplate: RestTemplate&lt;br/&gt;- url: String&lt;/p&gt;&lt;hr size=&quot;1&quot;/&gt;&lt;p style=&quot;margin:0 0 0 4px;line-height:1.6;&quot;&gt;+ post(Object, Map&amp;lt;String, String&amp;gt;): ResponseEntity&amp;lt;String&amp;gt;&lt;/p&gt;" style="verticalAlign=top;align=left;overflow=fill;fontSize=14;fontFamily=Helvetica;html=1;rounded=0;shadow=0;comic=0;labelBackgroundColor=none;strokeWidth=1;">
      <mxGeometry x="3699" y="5624" width="419" height="134" as="geometry" />
    </mxCell>
    <mxCell id="node16" parent="1" vertex="1" value="&lt;p style=&quot;margin:0px;margin-top:4px;text-align:center;&quot;&gt;&lt;b&gt;IntValue&lt;/b&gt;&lt;/p&gt;&lt;hr size=&quot;1&quot;/&gt;&lt;p style=&quot;margin:0 0 0 4px;line-height:1.6;&quot;&gt;+ ValidateVersion(): void&lt;br/&gt;+ getRootAsIntValue(ByteBuffer, IntValue): IntValue&lt;br/&gt;+ addValue(FlatBufferBuilder, int): void&lt;br/&gt;+ createIntValue(FlatBufferBuilder, int): int&lt;br/&gt;+ getRootAsIntValue(ByteBuffer): IntValue&lt;br/&gt;+ value(): int&lt;br/&gt;+ endIntValue(FlatBufferBuilder): int&lt;br/&gt;+ __assign(int, ByteBuffer): IntValue&lt;br/&gt;+ __init(int, ByteBuffer): void&lt;br/&gt;+ startIntValue(FlatBufferBuilder): void&lt;/p&gt;" style="verticalAlign=top;align=left;overflow=fill;fontSize=14;fontFamily=Helvetica;html=1;rounded=0;shadow=0;comic=0;labelBackgroundColor=none;strokeWidth=1;">
      <mxGeometry x="350" y="1176" width="356" height="261" as="geometry" />
    </mxCell>
    <mxCell id="node86" parent="1" vertex="1" value="&lt;p style=&quot;margin:0px;margin-top:4px;text-align:center;&quot;&gt;&lt;b&gt;InvalidDiscoverException&lt;/b&gt;&lt;/p&gt;&lt;hr size=&quot;1&quot;/&gt;" style="verticalAlign=top;align=left;overflow=fill;fontSize=14;fontFamily=Helvetica;html=1;rounded=0;shadow=0;comic=0;labelBackgroundColor=none;strokeWidth=1;">
      <mxGeometry x="286" y="7832" width="245" height="30" as="geometry" />
    </mxCell>
    <mxCell id="node35" parent="1" vertex="1" value="&lt;p style=&quot;margin:0px;margin-top:4px;text-align:center;&quot;&gt;&lt;i&gt;&amp;lt;&amp;lt;interface&amp;gt;&amp;gt;&lt;/i&gt;&lt;br/&gt;&lt;b&gt;IrisMessageProducer&lt;/b&gt;&lt;/p&gt;&lt;hr size=&quot;1&quot;/&gt;&lt;p style=&quot;margin:0 0 0 4px;line-height:1.6;&quot;&gt;+ send(DefaultFolhastechEventMessage): void&lt;/p&gt;" style="verticalAlign=top;align=left;overflow=fill;fontSize=14;fontFamily=Helvetica;html=1;rounded=0;shadow=0;comic=0;labelBackgroundColor=none;strokeWidth=1;">
      <mxGeometry x="745" y="7179" width="326" height="68" as="geometry" />
    </mxCell>
    <mxCell id="node72" parent="1" vertex="1" value="&lt;p style=&quot;margin:0px;margin-top:4px;text-align:center;&quot;&gt;&lt;b&gt;IrisMessageProducerImpl&lt;/b&gt;&lt;/p&gt;&lt;hr size=&quot;1&quot;/&gt;&lt;p style=&quot;margin:0 0 0 4px;line-height:1.6;&quot;&gt;+ send(DefaultFolhastechEventMessage): void&lt;/p&gt;" style="verticalAlign=top;align=left;overflow=fill;fontSize=14;fontFamily=Helvetica;html=1;rounded=0;shadow=0;comic=0;labelBackgroundColor=none;strokeWidth=1;">
      <mxGeometry x="825" y="7659" width="326" height="58" as="geometry" />
    </mxCell>
    <mxCell id="node73" parent="1" vertex="1" value="&lt;p style=&quot;margin:0px;margin-top:4px;text-align:center;&quot;&gt;&lt;b&gt;IrisMqttConfiguration&lt;/b&gt;&lt;/p&gt;&lt;hr size=&quot;1&quot;/&gt;&lt;p style=&quot;margin:0 0 0 4px;line-height:1.6;&quot;&gt;- topic: String&lt;br/&gt;- port: String&lt;br/&gt;- username: String&lt;br/&gt;- password: String&lt;br/&gt;- CLIENT_NAME: String&lt;br/&gt;- brokerUrl: String&lt;/p&gt;&lt;hr size=&quot;1&quot;/&gt;&lt;p style=&quot;margin:0 0 0 4px;line-height:1.6;&quot;&gt;+ mqttClientFactory(): MqttPahoClientFactory&lt;br/&gt;+ mqttInbound(MqttPahoClientFactory): MqttPahoMessageDrivenChannelAdapter&lt;br/&gt;+ mqttIrisInputChannel(): MessageChannel&lt;/p&gt;" style="verticalAlign=top;align=left;overflow=fill;fontSize=14;fontFamily=Helvetica;html=1;rounded=0;shadow=0;comic=0;labelBackgroundColor=none;strokeWidth=1;">
      <mxGeometry x="2436" y="4667" width="545" height="239" as="geometry" />
    </mxCell>
    <mxCell id="node37" parent="1" vertex="1" value="&lt;p style=&quot;margin:0px;margin-top:4px;text-align:center;&quot;&gt;&lt;b&gt;IrisTopicListener&lt;/b&gt;&lt;/p&gt;&lt;hr size=&quot;1&quot;/&gt;&lt;p style=&quot;margin:0 0 0 4px;line-height:1.6;&quot;&gt;- log: Logger&lt;br/&gt;- dispatcherService: DispatcherService&lt;/p&gt;&lt;hr size=&quot;1&quot;/&gt;&lt;p style=&quot;margin:0 0 0 4px;line-height:1.6;&quot;&gt;+ mqttMessageHandler(Message&amp;lt;?&amp;gt;): void&lt;br/&gt;- extractIrisId(String): String&lt;/p&gt;" style="verticalAlign=top;align=left;overflow=fill;fontSize=14;fontFamily=Helvetica;html=1;rounded=0;shadow=0;comic=0;labelBackgroundColor=none;strokeWidth=1;">
      <mxGeometry x="1476" y="7624" width="305" height="134" as="geometry" />
    </mxCell>
    <mxCell id="node85" parent="1" vertex="1" value="&lt;p style=&quot;margin:0px;margin-top:4px;text-align:center;&quot;&gt;&lt;b&gt;ListEventParams&lt;/b&gt;&lt;/p&gt;&lt;hr size=&quot;1&quot;/&gt;&lt;p style=&quot;margin:0 0 0 4px;line-height:1.6;&quot;&gt;- id: ObjectId&lt;br/&gt;- appCodeName: String&lt;br/&gt;- dateReceived: LocalDateTime&lt;br/&gt;- companyName: String&lt;/p&gt;&lt;hr size=&quot;1&quot;/&gt;&lt;p style=&quot;margin:0 0 0 4px;line-height:1.6;&quot;&gt;+ getId(): ObjectId&lt;br/&gt;+ getCompanyName(): String&lt;br/&gt;+ getAppCodeName(): String&lt;br/&gt;+ getDateReceived(): LocalDateTime&lt;br/&gt;+ setId(ObjectId): void&lt;br/&gt;+ setCompanyName(String): void&lt;br/&gt;+ setAppCodeName(String): void&lt;br/&gt;+ setDateReceived(LocalDateTime): void&lt;/p&gt;" style="verticalAlign=top;align=left;overflow=fill;fontSize=14;fontFamily=Helvetica;html=1;rounded=0;shadow=0;comic=0;labelBackgroundColor=none;strokeWidth=1;">
      <mxGeometry x="466" y="4992" width="285" height="308" as="geometry" />
    </mxCell>
    <mxCell id="node30" parent="1" vertex="1" value="&lt;p style=&quot;margin:0px;margin-top:4px;text-align:center;&quot;&gt;&lt;b&gt;MessageController&lt;/b&gt;&lt;/p&gt;&lt;hr size=&quot;1&quot;/&gt;&lt;p style=&quot;margin:0 0 0 4px;line-height:1.6;&quot;&gt;- producer: IrisMessageProducer&lt;/p&gt;&lt;hr size=&quot;1&quot;/&gt;&lt;p style=&quot;margin:0 0 0 4px;line-height:1.6;&quot;&gt;+ publish(DefaultFolhastechEventMessage): void&lt;/p&gt;" style="verticalAlign=top;align=left;overflow=fill;fontSize=14;fontFamily=Helvetica;html=1;rounded=0;shadow=0;comic=0;labelBackgroundColor=none;strokeWidth=1;">
      <mxGeometry x="438" y="7647" width="340" height="84" as="geometry" />
    </mxCell>
    <mxCell id="node40" parent="1" vertex="1" value="&lt;p style=&quot;margin:0px;margin-top:4px;text-align:center;&quot;&gt;&lt;b&gt;MidfieldApplication&lt;/b&gt;&lt;/p&gt;&lt;hr size=&quot;1&quot;/&gt;&lt;p style=&quot;margin:0 0 0 4px;line-height:1.6;&quot;&gt;+ main(String[]): void&lt;/p&gt;" style="verticalAlign=top;align=left;overflow=fill;fontSize=14;fontFamily=Helvetica;html=1;rounded=0;shadow=0;comic=0;labelBackgroundColor=none;strokeWidth=1;">
      <mxGeometry x="2848" y="7819" width="200" height="58" as="geometry" />
    </mxCell>
    <mxCell id="node10" parent="1" vertex="1" value="&lt;p style=&quot;margin:0px;margin-top:4px;text-align:center;&quot;&gt;&lt;b&gt;MidfieldIrisMessagingException&lt;/b&gt;&lt;/p&gt;&lt;hr size=&quot;1&quot;/&gt;" style="verticalAlign=top;align=left;overflow=fill;fontSize=14;fontFamily=Helvetica;html=1;rounded=0;shadow=0;comic=0;labelBackgroundColor=none;strokeWidth=1;">
      <mxGeometry x="1181" y="7192" width="295" height="30" as="geometry" />
    </mxCell>
    <mxCell id="node26" parent="1" vertex="1" value="&lt;p style=&quot;margin:0px;margin-top:4px;text-align:center;&quot;&gt;&lt;b&gt;MongoDbConfiguration&lt;/b&gt;&lt;/p&gt;&lt;hr size=&quot;1&quot;/&gt;" style="verticalAlign=top;align=left;overflow=fill;fontSize=14;fontFamily=Helvetica;html=1;rounded=0;shadow=0;comic=0;labelBackgroundColor=none;strokeWidth=1;">
      <mxGeometry x="2972" y="7672" width="232" height="30" as="geometry" />
    </mxCell>
    <mxCell id="node34" parent="1" vertex="1" value="&lt;p style=&quot;margin:0px;margin-top:4px;text-align:center;&quot;&gt;&lt;b&gt;PaginatedParams&lt;/b&gt;&lt;/p&gt;&lt;hr size=&quot;1&quot;/&gt;&lt;p style=&quot;margin:0 0 0 4px;line-height:1.6;&quot;&gt;- offset: Integer&lt;br/&gt;- limit: Integer&lt;/p&gt;&lt;hr size=&quot;1&quot;/&gt;&lt;p style=&quot;margin:0 0 0 4px;line-height:1.6;&quot;&gt;+ getLimit(): Integer&lt;br/&gt;+ getOffset(): Integer&lt;br/&gt;+ setLimit(Integer): void&lt;br/&gt;+ setOffset(Integer): void&lt;/p&gt;" style="verticalAlign=top;align=left;overflow=fill;fontSize=14;fontFamily=Helvetica;html=1;rounded=0;shadow=0;comic=0;labelBackgroundColor=none;strokeWidth=1;">
      <mxGeometry x="1052" y="7341" width="193" height="170" as="geometry" />
    </mxCell>
    <mxCell id="node58" parent="1" vertex="1" value="&lt;p style=&quot;margin:0px;margin-top:4px;text-align:center;&quot;&gt;&lt;b&gt;ResourceNotFoundException&lt;/b&gt;&lt;/p&gt;&lt;hr size=&quot;1&quot;/&gt;" style="verticalAlign=top;align=left;overflow=fill;fontSize=14;fontFamily=Helvetica;html=1;rounded=0;shadow=0;comic=0;labelBackgroundColor=none;strokeWidth=1;">
      <mxGeometry x="2911" y="5672" width="275" height="30" as="geometry" />
    </mxCell>
    <mxCell id="node74" parent="1" vertex="1" value="&lt;p style=&quot;margin:0px;margin-top:4px;text-align:center;&quot;&gt;&lt;b&gt;SearchCompanyParams&lt;/b&gt;&lt;/p&gt;&lt;hr size=&quot;1&quot;/&gt;&lt;p style=&quot;margin:0 0 0 4px;line-height:1.6;&quot;&gt;- name: String&lt;/p&gt;&lt;hr size=&quot;1&quot;/&gt;&lt;p style=&quot;margin:0 0 0 4px;line-height:1.6;&quot;&gt;+ getName(): String&lt;br/&gt;+ setName(String): void&lt;/p&gt;" style="verticalAlign=top;align=left;overflow=fill;fontSize=14;fontFamily=Helvetica;html=1;rounded=0;shadow=0;comic=0;labelBackgroundColor=none;strokeWidth=1;">
      <mxGeometry x="1050" y="7796" width="236" height="109" as="geometry" />
    </mxCell>
    <mxCell id="node31" parent="1" vertex="1" value="&lt;p style=&quot;margin:0px;margin-top:4px;text-align:center;&quot;&gt;&lt;b&gt;SecurityConfiguration&lt;/b&gt;&lt;/p&gt;&lt;hr size=&quot;1&quot;/&gt;&lt;p style=&quot;margin:0 0 0 4px;line-height:1.6;&quot;&gt;- tokenService: TokenService&lt;br/&gt;- findCompanyInterface: FindCompanyInterface&lt;/p&gt;&lt;hr size=&quot;1&quot;/&gt;&lt;p style=&quot;margin:0 0 0 4px;line-height:1.6;&quot;&gt;+ securityFilterChain(HttpSecurity): SecurityFilterChain&lt;br/&gt;+ authFilter(): AuthFilter&lt;/p&gt;" style="verticalAlign=top;align=left;overflow=fill;fontSize=14;fontFamily=Helvetica;html=1;rounded=0;shadow=0;comic=0;labelBackgroundColor=none;strokeWidth=1;">
      <mxGeometry x="420" y="7364" width="376" height="134" as="geometry" />
    </mxCell>
    <mxCell id="node52" parent="1" vertex="1" value="&lt;p style=&quot;margin:0px;margin-top:4px;text-align:center;&quot;&gt;&lt;b&gt;Sensor&lt;/b&gt;&lt;/p&gt;&lt;hr size=&quot;1&quot;/&gt;&lt;p style=&quot;margin:0 0 0 4px;line-height:1.6;&quot;&gt;- sensorId: String&lt;br/&gt;- name: String&lt;br/&gt;- internalId: ObjectId&lt;/p&gt;&lt;hr size=&quot;1&quot;/&gt;&lt;p style=&quot;margin:0 0 0 4px;line-height:1.6;&quot;&gt;+ getInternalId(): ObjectId&lt;br/&gt;+ getName(): String&lt;br/&gt;+ getSensorId(): String&lt;br/&gt;+ setInternalId(ObjectId): void&lt;br/&gt;+ setName(String): void&lt;br/&gt;+ setSensorId(String): void&lt;/p&gt;" style="verticalAlign=top;align=left;overflow=fill;fontSize=14;fontFamily=Helvetica;html=1;rounded=0;shadow=0;comic=0;labelBackgroundColor=none;strokeWidth=1;">
      <mxGeometry x="1399" y="-13" width="218" height="239" as="geometry" />
    </mxCell>
    <mxCell id="node20" parent="1" vertex="1" value="&lt;p style=&quot;margin:0px;margin-top:4px;text-align:center;&quot;&gt;&lt;b&gt;SensorReading&lt;/b&gt;&lt;/p&gt;&lt;hr size=&quot;1&quot;/&gt;&lt;p style=&quot;margin:0 0 0 4px;line-height:1.6;&quot;&gt;+ __init(int, ByteBuffer): void&lt;br/&gt;+ ValidateVersion(): void&lt;br/&gt;+ sensorId(): int&lt;br/&gt;+ addSensorId(FlatBufferBuilder, int): void&lt;br/&gt;+ createSensorReading(FlatBufferBuilder, int, byte, int): int&lt;br/&gt;+ valueType(): byte&lt;br/&gt;+ addValueType(FlatBufferBuilder, byte): void&lt;br/&gt;+ __assign(int, ByteBuffer): SensorReading&lt;br/&gt;+ getRootAsSensorReading(ByteBuffer, SensorReading): SensorReading&lt;br/&gt;+ startSensorReading(FlatBufferBuilder): void&lt;br/&gt;+ getRootAsSensorReading(ByteBuffer): SensorReading&lt;br/&gt;+ value(Table): Table?&lt;br/&gt;+ endSensorReading(FlatBufferBuilder): int&lt;br/&gt;+ addValue(FlatBufferBuilder, int): void&lt;/p&gt;" style="verticalAlign=top;align=left;overflow=fill;fontSize=14;fontFamily=Helvetica;html=1;rounded=0;shadow=0;comic=0;labelBackgroundColor=none;strokeWidth=1;">
      <mxGeometry x="4006" y="4970" width="485" height="353" as="geometry" />
    </mxCell>
    <mxCell id="node36" parent="1" vertex="1" value="&lt;p style=&quot;margin:0px;margin-top:4px;text-align:center;&quot;&gt;&lt;i&gt;&amp;lt;&amp;lt;record&amp;gt;&amp;gt;&lt;/i&gt;&lt;br/&gt;&lt;b&gt;SensorRecord&lt;/b&gt;&lt;/p&gt;&lt;hr size=&quot;1&quot;/&gt;&lt;p style=&quot;margin:0 0 0 4px;line-height:1.6;&quot;&gt;- name: String&lt;br/&gt;- sensorId: String&lt;br/&gt;- id: String&lt;/p&gt;&lt;hr size=&quot;1&quot;/&gt;&lt;p style=&quot;margin:0 0 0 4px;line-height:1.6;&quot;&gt;+ name(): String&lt;br/&gt;+ sensorId(): String&lt;br/&gt;+ id(): String&lt;/p&gt;" style="verticalAlign=top;align=left;overflow=fill;fontSize=14;fontFamily=Helvetica;html=1;rounded=0;shadow=0;comic=0;labelBackgroundColor=none;strokeWidth=1;">
      <mxGeometry x="1948" y="1221" width="160" height="170" as="geometry" />
    </mxCell>
    <mxCell id="node84" parent="1" vertex="1" value="&lt;p style=&quot;margin:0px;margin-top:4px;text-align:center;&quot;&gt;&lt;i&gt;&amp;lt;&amp;lt;record&amp;gt;&amp;gt;&lt;/i&gt;&lt;br/&gt;&lt;b&gt;SensorRequestBody&lt;/b&gt;&lt;/p&gt;&lt;hr size=&quot;1&quot;/&gt;&lt;p style=&quot;margin:0 0 0 4px;line-height:1.6;&quot;&gt;- sensorId: String&lt;br/&gt;- sensorName: String&lt;br/&gt;- sensorValue: String&lt;/p&gt;&lt;hr size=&quot;1&quot;/&gt;&lt;p style=&quot;margin:0 0 0 4px;line-height:1.6;&quot;&gt;+ sensorName(): String&lt;br/&gt;+ sensorValue(): String&lt;br/&gt;+ sensorId(): String&lt;/p&gt;" style="verticalAlign=top;align=left;overflow=fill;fontSize=14;fontFamily=Helvetica;html=1;rounded=0;shadow=0;comic=0;labelBackgroundColor=none;strokeWidth=1;">
      <mxGeometry x="3564" y="6021" width="208" height="170" as="geometry" />
    </mxCell>
    <mxCell id="node17" parent="1" vertex="1" value="&lt;p style=&quot;margin:0px;margin-top:4px;text-align:center;&quot;&gt;&lt;b&gt;SensorValue&lt;/b&gt;&lt;/p&gt;&lt;hr size=&quot;1&quot;/&gt;&lt;p style=&quot;margin:0 0 0 4px;line-height:1.6;&quot;&gt;+ FloatValue: byte&lt;br/&gt;+ IntValue: byte&lt;br/&gt;+ StringValue: byte&lt;br/&gt;+ names: String[]&lt;br/&gt;+ NONE: byte&lt;br/&gt;+ BoolValue: byte&lt;/p&gt;&lt;hr size=&quot;1&quot;/&gt;&lt;p style=&quot;margin:0 0 0 4px;line-height:1.6;&quot;&gt;+ name(int): String&lt;/p&gt;" style="verticalAlign=top;align=left;overflow=fill;fontSize=14;fontFamily=Helvetica;html=1;rounded=0;shadow=0;comic=0;labelBackgroundColor=none;strokeWidth=1;">
      <mxGeometry x="2692" y="7110" width="152" height="193" as="geometry" />
    </mxCell>
    <mxCell id="node24" parent="1" vertex="1" value="&lt;p style=&quot;margin:0px;margin-top:4px;text-align:center;&quot;&gt;&lt;b&gt;StaticQueryHelper&lt;/b&gt;&lt;/p&gt;&lt;hr size=&quot;1&quot;/&gt;&lt;p style=&quot;margin:0 0 0 4px;line-height:1.6;&quot;&gt;+ buildListQueryClauses(Query, ListEventParams): void&lt;/p&gt;" style="verticalAlign=top;align=left;overflow=fill;fontSize=14;fontFamily=Helvetica;html=1;rounded=0;shadow=0;comic=0;labelBackgroundColor=none;strokeWidth=1;">
      <mxGeometry x="3120" y="7819" width="376" height="58" as="geometry" />
    </mxCell>
    <mxCell id="node47" parent="1" vertex="1" value="&lt;p style=&quot;margin:0px;margin-top:4px;text-align:center;&quot;&gt;&lt;b&gt;StringValue&lt;/b&gt;&lt;/p&gt;&lt;hr size=&quot;1&quot;/&gt;&lt;p style=&quot;margin:0 0 0 4px;line-height:1.6;&quot;&gt;+ startStringValue(FlatBufferBuilder): void&lt;br/&gt;+ endStringValue(FlatBufferBuilder): int&lt;br/&gt;+ getRootAsStringValue(ByteBuffer): StringValue&lt;br/&gt;+ valueAsByteBuffer(): ByteBuffer&lt;br/&gt;+ addValue(FlatBufferBuilder, int): void&lt;br/&gt;+ __init(int, ByteBuffer): void&lt;br/&gt;+ createStringValue(FlatBufferBuilder, int): int&lt;br/&gt;+ valueInByteBuffer(ByteBuffer): ByteBuffer&lt;br/&gt;+ value(): String?&lt;br/&gt;+ getRootAsStringValue(ByteBuffer, StringValue): StringValue&lt;br/&gt;+ __assign(int, ByteBuffer): StringValue&lt;br/&gt;+ ValidateVersion(): void&lt;/p&gt;" style="verticalAlign=top;align=left;overflow=fill;fontSize=14;fontFamily=Helvetica;html=1;rounded=0;shadow=0;comic=0;labelBackgroundColor=none;strokeWidth=1;">
      <mxGeometry x="779" y="1153" width="419" height="307" as="geometry" />
    </mxCell>
    <mxCell id="node39" parent="1" vertex="1" value="&lt;p style=&quot;margin:0px;margin-top:4px;text-align:center;&quot;&gt;&lt;b&gt;TokenService&lt;/b&gt;&lt;/p&gt;&lt;hr size=&quot;1&quot;/&gt;&lt;p style=&quot;margin:0 0 0 4px;line-height:1.6;&quot;&gt;- SECRET_KEY: String&lt;/p&gt;&lt;hr size=&quot;1&quot;/&gt;&lt;p style=&quot;margin:0 0 0 4px;line-height:1.6;&quot;&gt;+ extractJwt(String): String&lt;br/&gt;+ generateToken(ObjectId): String&lt;br/&gt;- extractClaim(String, Function&amp;lt;Claims, T&amp;gt;): T&lt;br/&gt;- generateToken(ObjectId, HashMap&amp;lt;String, Object&amp;gt;): String&lt;br/&gt;+ validateToken(String, CompanyRecord): boolean&lt;br/&gt;- extractAllClaims(String): Claims&lt;br/&gt;- getSignKey(): Key&lt;br/&gt;+ extractSubject(String): String&lt;/p&gt;" style="verticalAlign=top;align=left;overflow=fill;fontSize=14;fontFamily=Helvetica;html=1;rounded=0;shadow=0;comic=0;labelBackgroundColor=none;strokeWidth=1;">
      <mxGeometry x="-121" y="5987" width="418" height="239" as="geometry" />
    </mxCell>
    <mxCell id="node55" parent="1" vertex="1" value="&lt;p style=&quot;margin:0px;margin-top:4px;text-align:center;&quot;&gt;&lt;i&gt;&amp;lt;&amp;lt;interface&amp;gt;&amp;gt;&lt;/i&gt;&lt;br/&gt;&lt;b&gt;TokenServiceInterface&lt;/b&gt;&lt;/p&gt;&lt;hr size=&quot;1&quot;/&gt;&lt;p style=&quot;margin:0 0 0 4px;line-height:1.6;&quot;&gt;+ generateToken(ObjectId): String&lt;/p&gt;" style="verticalAlign=top;align=left;overflow=fill;fontSize=14;fontFamily=Helvetica;html=1;rounded=0;shadow=0;comic=0;labelBackgroundColor=none;strokeWidth=1;">
      <mxGeometry x="705" y="4759" width="247" height="68" as="geometry" />
    </mxCell>
    <mxCell id="node54" parent="1" vertex="1" value="&lt;p style=&quot;margin:0px;margin-top:4px;text-align:center;&quot;&gt;&lt;b&gt;WebConfiguration&lt;/b&gt;&lt;/p&gt;&lt;hr size=&quot;1&quot;/&gt;&lt;p style=&quot;margin:0 0 0 4px;line-height:1.6;&quot;&gt;+ corsFilter(): CorsFilter&lt;/p&gt;" style="verticalAlign=top;align=left;overflow=fill;fontSize=14;fontFamily=Helvetica;html=1;rounded=0;shadow=0;comic=0;labelBackgroundColor=none;strokeWidth=1;">
      <mxGeometry x="1352" y="7819" width="192" height="58" as="geometry" />
    </mxCell>
    <mxCell id="edge1" edge="1" value="" parent="1" source="node70" target="node12" style="html=1;rounded=1;edgeStyle=orthogonalEdgeStyle;dashed=0;startArrow=diamondThinstartSize=12;endArrow=openThin;endSize=12;strokeColor=#595959;exitX=0.250;exitY=0.000;exitDx=0;exitDy=0;entryX=0.250;entryY=1.001;entryDx=0;entryDy=0;">
      <mxGeometry width="50" height="50" relative="1" as="geometry">
        <Array as="points">
          <mxPoint x="3202" y="6006" />
          <mxPoint x="3208" y="6006" />
          <mxPoint x="3208" y="4846" />
          <mxPoint x="3202" y="4846" />
        </Array>
      </mxGeometry>
    </mxCell>
    <mxCell id="label6" parent="edge1" vertex="1" connectable="0" value="1" style="edgeLabel;resizable=0;html=1;align=left;verticalAlign=top;strokeColor=default;">
      <mxGeometry x="3196" y="6019" as="geometry" />
    </mxCell>
    <mxCell id="label10" parent="edge1" vertex="1" connectable="0" value="1" style="edgeLabel;resizable=0;html=1;align=left;verticalAlign=top;strokeColor=default;">
      <mxGeometry x="3196" y="6019" as="geometry" />
    </mxCell>
    <mxCell id="label11" parent="edge1" vertex="1" connectable="0" value="nextHandler" style="edgeLabel;resizable=0;html=1;align=left;verticalAlign=top;strokeColor=default;">
      <mxGeometry x="3167" y="6019" as="geometry" />
    </mxCell>
    <mxCell id="edge62" edge="1" value="" parent="1" source="node70" target="node12" style="html=1;rounded=1;edgeStyle=orthogonalEdgeStyle;dashed=1;startArrow=none;endArrow=block;endSize=12;strokeColor=#008200;exitX=0.750;exitY=0.000;exitDx=0;exitDy=0;entryX=0.750;entryY=1.000;entryDx=0;entryDy=0;">
      <mxGeometry width="50" height="50" relative="1" as="geometry">
        <Array as="points" />
      </mxGeometry>
    </mxCell>
    <mxCell id="edge71" edge="1" value="" parent="1" source="node70" target="node21" style="html=1;rounded=1;edgeStyle=orthogonalEdgeStyle;dashed=0;startArrow=diamondThinstartSize=12;endArrow=openThin;endSize=12;strokeColor=#595959;exitX=0.250;exitY=0.000;exitDx=0;exitDy=0;entryX=0.750;entryY=1.000;entryDx=0;entryDy=0;">
      <mxGeometry width="50" height="50" relative="1" as="geometry">
        <Array as="points">
          <mxPoint x="3202" y="6006" />
          <mxPoint x="3208" y="6006" />
          <mxPoint x="3208" y="5586" />
          <mxPoint x="2108" y="5586" />
          <mxPoint x="2108" y="5246" />
          <mxPoint x="2102" y="5246" />
        </Array>
      </mxGeometry>
    </mxCell>
    <mxCell id="label426" parent="edge71" vertex="1" connectable="0" value="1" style="edgeLabel;resizable=0;html=1;align=left;verticalAlign=top;strokeColor=default;">
      <mxGeometry x="3196" y="6019" as="geometry" />
    </mxCell>
    <mxCell id="label430" parent="edge71" vertex="1" connectable="0" value="1" style="edgeLabel;resizable=0;html=1;align=left;verticalAlign=top;strokeColor=default;">
      <mxGeometry x="3196" y="6019" as="geometry" />
    </mxCell>
    <mxCell id="label431" parent="edge71" vertex="1" connectable="0" value="eventRepository" style="edgeLabel;resizable=0;html=1;align=left;verticalAlign=top;strokeColor=default;">
      <mxGeometry x="3156" y="6019" as="geometry" />
    </mxCell>
    <mxCell id="edge38" edge="1" value="" parent="1" source="node5" target="node48" style="html=1;rounded=1;edgeStyle=orthogonalEdgeStyle;dashed=1;startArrow=none;endArrow=openThin;endSize=12;strokeColor=#595959;exitX=0.500;exitY=0.000;exitDx=0;exitDy=0;entryX=0.500;entryY=1.000;entryDx=0;entryDy=0;">
      <mxGeometry width="50" height="50" relative="1" as="geometry">
        <Array as="points" />
      </mxGeometry>
    </mxCell>
    <mxCell id="label230" parent="edge38" vertex="1" connectable="0" value="«create»" style="edgeLabel;resizable=0;html=1;align=left;verticalAlign=top;strokeColor=default;">
      <mxGeometry x="3642" y="7600" as="geometry" />
    </mxCell>
    <mxCell id="edge31" edge="1" value="" parent="1" source="node83" target="node71" style="html=1;rounded=1;edgeStyle=orthogonalEdgeStyle;dashed=0;startArrow=diamondThinstartSize=12;endArrow=openThin;endSize=12;strokeColor=#595959;exitX=0.500;exitY=0.000;exitDx=0;exitDy=0;entryX=0.250;entryY=1.001;entryDx=0;entryDy=0;">
      <mxGeometry width="50" height="50" relative="1" as="geometry">
        <Array as="points">
          <mxPoint x="508" y="6306" />
          <mxPoint x="1568" y="6306" />
          <mxPoint x="1568" y="6166" />
          <mxPoint x="1825" y="6166" />
        </Array>
      </mxGeometry>
    </mxCell>
    <mxCell id="label186" parent="edge31" vertex="1" connectable="0" value="1" style="edgeLabel;resizable=0;html=1;align=left;verticalAlign=top;strokeColor=default;">
      <mxGeometry x="503" y="6776" as="geometry" />
    </mxCell>
    <mxCell id="label190" parent="edge31" vertex="1" connectable="0" value="1" style="edgeLabel;resizable=0;html=1;align=left;verticalAlign=top;strokeColor=default;">
      <mxGeometry x="503" y="6776" as="geometry" />
    </mxCell>
    <mxCell id="label191" parent="edge31" vertex="1" connectable="0" value="findCompanyInterface" style="edgeLabel;resizable=0;html=1;align=left;verticalAlign=top;strokeColor=default;">
      <mxGeometry x="446" y="6776" as="geometry" />
    </mxCell>
    <mxCell id="edge45" edge="1" value="" parent="1" source="node83" target="node39" style="html=1;rounded=1;edgeStyle=orthogonalEdgeStyle;dashed=0;startArrow=diamondThinstartSize=12;endArrow=openThin;endSize=12;strokeColor=#595959;exitX=0.500;exitY=0.000;exitDx=0;exitDy=0;entryX=0.500;entryY=1.000;entryDx=0;entryDy=0;">
      <mxGeometry width="50" height="50" relative="1" as="geometry">
        <Array as="points">
          <mxPoint x="508" y="6466" />
          <mxPoint x="88" y="6466" />
        </Array>
      </mxGeometry>
    </mxCell>
    <mxCell id="label270" parent="edge45" vertex="1" connectable="0" value="1" style="edgeLabel;resizable=0;html=1;align=left;verticalAlign=top;strokeColor=default;">
      <mxGeometry x="503" y="6776" as="geometry" />
    </mxCell>
    <mxCell id="label274" parent="edge45" vertex="1" connectable="0" value="1" style="edgeLabel;resizable=0;html=1;align=left;verticalAlign=top;strokeColor=default;">
      <mxGeometry x="503" y="6776" as="geometry" />
    </mxCell>
    <mxCell id="label275" parent="edge45" vertex="1" connectable="0" value="tokenService" style="edgeLabel;resizable=0;html=1;align=left;verticalAlign=top;strokeColor=default;">
      <mxGeometry x="471" y="6776" as="geometry" />
    </mxCell>
    <mxCell id="edge7" edge="1" value="" parent="1" source="node22" target="node52" style="html=1;rounded=1;edgeStyle=orthogonalEdgeStyle;dashed=0;startArrow=diamondThinstartSize=12;endArrow=openThin;endSize=12;strokeColor=#595959;exitX=0.500;exitY=0.000;exitDx=0;exitDy=0;entryX=0.750;entryY=1.000;entryDx=0;entryDy=0;">
      <mxGeometry width="50" height="50" relative="1" as="geometry">
        <Array as="points">
          <mxPoint x="1788" y="266" />
          <mxPoint x="1563" y="266" />
        </Array>
      </mxGeometry>
    </mxCell>
    <mxCell id="label42" parent="edge7" vertex="1" connectable="0" value="1" style="edgeLabel;resizable=0;html=1;align=left;verticalAlign=top;strokeColor=default;">
      <mxGeometry x="1783" y="287" as="geometry" />
    </mxCell>
    <mxCell id="label46" parent="edge7" vertex="1" connectable="0" value="*" style="edgeLabel;resizable=0;html=1;align=left;verticalAlign=top;strokeColor=default;">
      <mxGeometry x="1784" y="287" as="geometry" />
    </mxCell>
    <mxCell id="label47" parent="edge7" vertex="1" connectable="0" value="sensors" style="edgeLabel;resizable=0;html=1;align=left;verticalAlign=top;strokeColor=default;">
      <mxGeometry x="1763" y="287" as="geometry" />
    </mxCell>
    <mxCell id="edge15" edge="1" value="" parent="1" source="node23" target="node8" style="html=1;rounded=1;edgeStyle=orthogonalEdgeStyle;dashed=0;startArrow=diamondThinstartSize=12;endArrow=openThin;endSize=12;strokeColor=#595959;exitX=0.500;exitY=0.000;exitDx=0;exitDy=0;entryX=0.500;entryY=1.000;entryDx=0;entryDy=0;">
      <mxGeometry width="50" height="50" relative="1" as="geometry">
        <Array as="points" />
      </mxGeometry>
    </mxCell>
    <mxCell id="label90" parent="edge15" vertex="1" connectable="0" value="1" style="edgeLabel;resizable=0;html=1;align=left;verticalAlign=top;strokeColor=default;">
      <mxGeometry x="783" y="2202" as="geometry" />
    </mxCell>
    <mxCell id="label94" parent="edge15" vertex="1" connectable="0" value="*" style="edgeLabel;resizable=0;html=1;align=left;verticalAlign=top;strokeColor=default;">
      <mxGeometry x="784" y="2202" as="geometry" />
    </mxCell>
    <mxCell id="label95" parent="edge15" vertex="1" connectable="0" value="authorities" style="edgeLabel;resizable=0;html=1;align=left;verticalAlign=top;strokeColor=default;">
      <mxGeometry x="757" y="2202" as="geometry" />
    </mxCell>
    <mxCell id="edge47" edge="1" value="" parent="1" source="node46" target="node32" style="html=1;rounded=1;edgeStyle=orthogonalEdgeStyle;dashed=1;startArrow=none;endArrow=openThin;endSize=12;strokeColor=#595959;exitX=0.500;exitY=0.000;exitDx=0;exitDy=0;entryX=0.500;entryY=1.000;entryDx=0;entryDy=0;">
      <mxGeometry width="50" height="50" relative="1" as="geometry">
        <Array as="points" />
      </mxGeometry>
    </mxCell>
    <mxCell id="label284" parent="edge47" vertex="1" connectable="0" value="«create»" style="edgeLabel;resizable=0;html=1;align=left;verticalAlign=top;strokeColor=default;">
      <mxGeometry x="122" y="1708" as="geometry" />
    </mxCell>
    <mxCell id="edge51" edge="1" value="" parent="1" source="node46" target="node44" style="html=1;rounded=1;edgeStyle=orthogonalEdgeStyle;dashed=1;startArrow=none;endArrow=openThin;endSize=12;strokeColor=#595959;exitX=0.500;exitY=0.000;exitDx=0;exitDy=0;entryX=0.500;entryY=1.000;entryDx=0;entryDy=0;">
      <mxGeometry width="50" height="50" relative="1" as="geometry">
        <Array as="points">
          <mxPoint x="148" y="1706" />
          <mxPoint x="328" y="1706" />
        </Array>
      </mxGeometry>
    </mxCell>
    <mxCell id="label308" parent="edge51" vertex="1" connectable="0" value="«create»" style="edgeLabel;resizable=0;html=1;align=left;verticalAlign=top;strokeColor=default;">
      <mxGeometry x="122" y="1710" as="geometry" />
    </mxCell>
    <mxCell id="edge25" edge="1" value="" parent="1" source="node4" target="node76" style="html=1;rounded=1;edgeStyle=orthogonalEdgeStyle;dashed=1;startArrow=none;endArrow=block;endSize=12;strokeColor=#008200;exitX=0.500;exitY=0.000;exitDx=0;exitDy=0;entryX=0.250;entryY=1.000;entryDx=0;entryDy=0;">
      <mxGeometry width="50" height="50" relative="1" as="geometry">
        <Array as="points">
          <mxPoint x="228" y="6286" />
          <mxPoint x="602" y="6286" />
        </Array>
      </mxGeometry>
    </mxCell>
    <mxCell id="edge54" edge="1" value="" parent="1" source="node65" target="node76" style="html=1;rounded=1;edgeStyle=orthogonalEdgeStyle;dashed=0;startArrow=diamondThinstartSize=12;endArrow=openThin;endSize=12;strokeColor=#595959;exitX=0.250;exitY=0.000;exitDx=0;exitDy=0;entryX=0.750;entryY=1.000;entryDx=0;entryDy=0;">
      <mxGeometry width="50" height="50" relative="1" as="geometry">
        <Array as="points">
          <mxPoint x="1254" y="6466" />
          <mxPoint x="768" y="6466" />
          <mxPoint x="768" y="6226" />
          <mxPoint x="774" y="6226" />
        </Array>
      </mxGeometry>
    </mxCell>
    <mxCell id="label324" parent="edge54" vertex="1" connectable="0" value="1" style="edgeLabel;resizable=0;html=1;align=left;verticalAlign=top;strokeColor=default;">
      <mxGeometry x="1248" y="6511" as="geometry" />
    </mxCell>
    <mxCell id="label328" parent="edge54" vertex="1" connectable="0" value="1" style="edgeLabel;resizable=0;html=1;align=left;verticalAlign=top;strokeColor=default;">
      <mxGeometry x="1248" y="6511" as="geometry" />
    </mxCell>
    <mxCell id="label329" parent="edge54" vertex="1" connectable="0" value="companyAppRepository" style="edgeLabel;resizable=0;html=1;align=left;verticalAlign=top;strokeColor=default;">
      <mxGeometry x="1187" y="6511" as="geometry" />
    </mxCell>
    <mxCell id="edge35" edge="1" value="" parent="1" source="node65" target="node67" style="html=1;rounded=1;edgeStyle=orthogonalEdgeStyle;dashed=1;startArrow=none;endArrow=block;endSize=12;strokeColor=#008200;exitX=0.750;exitY=0.000;exitDx=0;exitDy=0;entryX=0.250;entryY=1.001;entryDx=0;entryDy=0;">
      <mxGeometry width="50" height="50" relative="1" as="geometry">
        <Array as="points">
          <mxPoint x="1443" y="6386" />
          <mxPoint x="2209" y="6386" />
        </Array>
      </mxGeometry>
    </mxCell>
    <mxCell id="edge34" edge="1" value="" parent="1" source="node65" target="node28" style="html=1;rounded=1;edgeStyle=orthogonalEdgeStyle;dashed=0;startArrow=diamondThinstartSize=12;endArrow=openThin;endSize=12;strokeColor=#595959;exitX=0.250;exitY=0.000;exitDx=0;exitDy=0;entryX=0.750;entryY=1.000;entryDx=0;entryDy=0;">
      <mxGeometry width="50" height="50" relative="1" as="geometry">
        <Array as="points">
          <mxPoint x="1254" y="6466" />
          <mxPoint x="768" y="6466" />
          <mxPoint x="768" y="6446" />
          <mxPoint x="688" y="6446" />
          <mxPoint x="688" y="6206" />
          <mxPoint x="498" y="6206" />
        </Array>
      </mxGeometry>
    </mxCell>
    <mxCell id="label204" parent="edge34" vertex="1" connectable="0" value="1" style="edgeLabel;resizable=0;html=1;align=left;verticalAlign=top;strokeColor=default;">
      <mxGeometry x="1248" y="6511" as="geometry" />
    </mxCell>
    <mxCell id="label208" parent="edge34" vertex="1" connectable="0" value="1" style="edgeLabel;resizable=0;html=1;align=left;verticalAlign=top;strokeColor=default;">
      <mxGeometry x="1248" y="6511" as="geometry" />
    </mxCell>
    <mxCell id="label209" parent="edge34" vertex="1" connectable="0" value="gatewayDeviceRepository" style="edgeLabel;resizable=0;html=1;align=left;verticalAlign=top;strokeColor=default;">
      <mxGeometry x="1181" y="6511" as="geometry" />
    </mxCell>
    <mxCell id="edge22" edge="1" value="" parent="1" source="node45" target="node41" style="html=1;rounded=1;edgeStyle=orthogonalEdgeStyle;dashed=1;startArrow=none;endArrow=openThin;endSize=12;strokeColor=#595959;exitX=0.250;exitY=0.000;exitDx=0;exitDy=0;entryX=0.500;entryY=1.000;entryDx=0;entryDy=0;">
      <mxGeometry width="50" height="50" relative="1" as="geometry">
        <Array as="points">
          <mxPoint x="1531" y="7066" />
          <mxPoint x="1528" y="7066" />
          <mxPoint x="1528" y="6986" />
          <mxPoint x="1128" y="6986" />
        </Array>
      </mxGeometry>
    </mxCell>
    <mxCell id="label134" parent="edge22" vertex="1" connectable="0" value="«create»" style="edgeLabel;resizable=0;html=1;align=left;verticalAlign=top;strokeColor=default;">
      <mxGeometry x="1505" y="7328" as="geometry" />
    </mxCell>
    <mxCell id="edge75" edge="1" value="" parent="1" source="node45" target="node53" style="html=1;rounded=1;edgeStyle=orthogonalEdgeStyle;dashed=0;startArrow=diamondThinstartSize=12;endArrow=openThin;endSize=12;strokeColor=#595959;exitX=0.750;exitY=0.000;exitDx=0;exitDy=0;entryX=0.167;entryY=0.000;entryDx=0;entryDy=0;">
      <mxGeometry width="50" height="50" relative="1" as="geometry">
        <Array as="points">
          <mxPoint x="1885" y="7326" />
          <mxPoint x="2008" y="7326" />
          <mxPoint x="2008" y="6726" />
          <mxPoint x="2107" y="6726" />
        </Array>
      </mxGeometry>
    </mxCell>
    <mxCell id="label450" parent="edge75" vertex="1" connectable="0" value="1" style="edgeLabel;resizable=0;html=1;align=left;verticalAlign=top;strokeColor=default;">
      <mxGeometry x="1880" y="7329" as="geometry" />
    </mxCell>
    <mxCell id="label454" parent="edge75" vertex="1" connectable="0" value="1" style="edgeLabel;resizable=0;html=1;align=left;verticalAlign=top;strokeColor=default;">
      <mxGeometry x="1880" y="7329" as="geometry" />
    </mxCell>
    <mxCell id="label455" parent="edge75" vertex="1" connectable="0" value="companyService" style="edgeLabel;resizable=0;html=1;align=left;verticalAlign=top;strokeColor=default;">
      <mxGeometry x="1838" y="7329" as="geometry" />
    </mxCell>
    <mxCell id="edge69" edge="1" value="" parent="1" source="node11" target="node23" style="html=1;rounded=1;edgeStyle=orthogonalEdgeStyle;dashed=1;startArrow=none;endArrow=openThin;endSize=12;strokeColor=#595959;exitX=0.500;exitY=0.000;exitDx=0;exitDy=0;entryX=0.500;entryY=1.000;entryDx=0;entryDy=0;">
      <mxGeometry width="50" height="50" relative="1" as="geometry">
        <Array as="points">
          <mxPoint x="948" y="2786" />
          <mxPoint x="788" y="2786" />
        </Array>
      </mxGeometry>
    </mxCell>
    <mxCell id="label416" parent="edge69" vertex="1" connectable="0" value="«create»" style="edgeLabel;resizable=0;html=1;align=left;verticalAlign=top;strokeColor=default;">
      <mxGeometry x="922" y="3760" as="geometry" />
    </mxCell>
    <mxCell id="edge3" edge="1" value="" parent="1" source="node11" target="node68" style="html=1;rounded=1;edgeStyle=orthogonalEdgeStyle;dashed=1;startArrow=none;endArrow=openThin;endSize=12;strokeColor=#595959;exitX=0.500;exitY=0.000;exitDx=0;exitDy=0;entryX=0.500;entryY=1.000;entryDx=0;entryDy=0;">
      <mxGeometry width="50" height="50" relative="1" as="geometry">
        <Array as="points" />
      </mxGeometry>
    </mxCell>
    <mxCell id="label20" parent="edge3" vertex="1" connectable="0" value="«create»" style="edgeLabel;resizable=0;html=1;align=left;verticalAlign=top;strokeColor=default;">
      <mxGeometry x="922" y="3760" as="geometry" />
    </mxCell>
    <mxCell id="edge48" edge="1" value="" parent="1" source="node42" target="node76" style="html=1;rounded=1;edgeStyle=orthogonalEdgeStyle;dashed=0;startArrow=diamondThinstartSize=12;endArrow=openThin;endSize=12;strokeColor=#595959;exitX=0.250;exitY=0.000;exitDx=0;exitDy=0;entryX=0.750;entryY=1.000;entryDx=0;entryDy=0;">
      <mxGeometry width="50" height="50" relative="1" as="geometry">
        <Array as="points">
          <mxPoint x="694" y="6466" />
          <mxPoint x="688" y="6466" />
          <mxPoint x="688" y="6426" />
          <mxPoint x="768" y="6426" />
          <mxPoint x="768" y="6226" />
          <mxPoint x="774" y="6226" />
        </Array>
      </mxGeometry>
    </mxCell>
    <mxCell id="label288" parent="edge48" vertex="1" connectable="0" value="1" style="edgeLabel;resizable=0;html=1;align=left;verticalAlign=top;strokeColor=default;">
      <mxGeometry x="688" y="6476" as="geometry" />
    </mxCell>
    <mxCell id="label292" parent="edge48" vertex="1" connectable="0" value="1" style="edgeLabel;resizable=0;html=1;align=left;verticalAlign=top;strokeColor=default;">
      <mxGeometry x="688" y="6476" as="geometry" />
    </mxCell>
    <mxCell id="label293" parent="edge48" vertex="1" connectable="0" value="companyAppRepository" style="edgeLabel;resizable=0;html=1;align=left;verticalAlign=top;strokeColor=default;">
      <mxGeometry x="627" y="6476" as="geometry" />
    </mxCell>
    <mxCell id="edge5" edge="1" value="" parent="1" source="node42" target="node56" style="html=1;rounded=1;edgeStyle=orthogonalEdgeStyle;dashed=1;startArrow=none;endArrow=block;endSize=12;strokeColor=#008200;exitX=0.750;exitY=0.000;exitDx=0;exitDy=0;entryX=0.750;entryY=1.000;entryDx=0;entryDy=0;">
      <mxGeometry width="50" height="50" relative="1" as="geometry">
        <Array as="points">
          <mxPoint x="883" y="6426" />
          <mxPoint x="1113" y="6426" />
        </Array>
      </mxGeometry>
    </mxCell>
    <mxCell id="edge59" edge="1" value="" parent="1" source="node42" target="node28" style="html=1;rounded=1;edgeStyle=orthogonalEdgeStyle;dashed=0;startArrow=diamondThinstartSize=12;endArrow=openThin;endSize=12;strokeColor=#595959;exitX=0.250;exitY=0.000;exitDx=0;exitDy=0;entryX=0.750;entryY=1.000;entryDx=0;entryDy=0;">
      <mxGeometry width="50" height="50" relative="1" as="geometry">
        <Array as="points">
          <mxPoint x="694" y="6466" />
          <mxPoint x="688" y="6466" />
          <mxPoint x="688" y="6206" />
          <mxPoint x="498" y="6206" />
        </Array>
      </mxGeometry>
    </mxCell>
    <mxCell id="label354" parent="edge59" vertex="1" connectable="0" value="1" style="edgeLabel;resizable=0;html=1;align=left;verticalAlign=top;strokeColor=default;">
      <mxGeometry x="688" y="6476" as="geometry" />
    </mxCell>
    <mxCell id="label358" parent="edge59" vertex="1" connectable="0" value="1" style="edgeLabel;resizable=0;html=1;align=left;verticalAlign=top;strokeColor=default;">
      <mxGeometry x="688" y="6476" as="geometry" />
    </mxCell>
    <mxCell id="label359" parent="edge59" vertex="1" connectable="0" value="gatewayDeviceRepository" style="edgeLabel;resizable=0;html=1;align=left;verticalAlign=top;strokeColor=default;">
      <mxGeometry x="621" y="6476" as="geometry" />
    </mxCell>
    <mxCell id="edge23" edge="1" value="" parent="1" source="node53" target="node76" style="html=1;rounded=1;edgeStyle=orthogonalEdgeStyle;dashed=0;startArrow=diamondThinstartSize=12;endArrow=openThin;endSize=12;strokeColor=#595959;exitX=0.167;exitY=0.000;exitDx=0;exitDy=0;entryX=0.750;entryY=1.000;entryDx=0;entryDy=0;">
      <mxGeometry width="50" height="50" relative="1" as="geometry">
        <Array as="points">
          <mxPoint x="2107" y="6486" />
          <mxPoint x="888" y="6486" />
          <mxPoint x="888" y="6326" />
          <mxPoint x="768" y="6326" />
          <mxPoint x="768" y="6226" />
          <mxPoint x="774" y="6226" />
        </Array>
      </mxGeometry>
    </mxCell>
    <mxCell id="label138" parent="edge23" vertex="1" connectable="0" value="1" style="edgeLabel;resizable=0;html=1;align=left;verticalAlign=top;strokeColor=default;">
      <mxGeometry x="2102" y="6730" as="geometry" />
    </mxCell>
    <mxCell id="label142" parent="edge23" vertex="1" connectable="0" value="1" style="edgeLabel;resizable=0;html=1;align=left;verticalAlign=top;strokeColor=default;">
      <mxGeometry x="2102" y="6730" as="geometry" />
    </mxCell>
    <mxCell id="label143" parent="edge23" vertex="1" connectable="0" value="companyAppRepository" style="edgeLabel;resizable=0;html=1;align=left;verticalAlign=top;strokeColor=default;">
      <mxGeometry x="2040" y="6730" as="geometry" />
    </mxCell>
    <mxCell id="edge11" edge="1" value="" parent="1" source="node53" target="node56" style="html=1;rounded=1;edgeStyle=orthogonalEdgeStyle;dashed=0;startArrow=diamondThinstartSize=12;endArrow=openThin;endSize=12;strokeColor=#595959;exitX=0.167;exitY=0.000;exitDx=0;exitDy=0;entryX=0.250;entryY=1.000;entryDx=0;entryDy=0;">
      <mxGeometry width="50" height="50" relative="1" as="geometry">
        <Array as="points">
          <mxPoint x="2107" y="6486" />
          <mxPoint x="888" y="6486" />
          <mxPoint x="888" y="6446" />
          <mxPoint x="983" y="6446" />
        </Array>
      </mxGeometry>
    </mxCell>
    <mxCell id="label66" parent="edge11" vertex="1" connectable="0" value="1" style="edgeLabel;resizable=0;html=1;align=left;verticalAlign=top;strokeColor=default;">
      <mxGeometry x="2102" y="6730" as="geometry" />
    </mxCell>
    <mxCell id="label70" parent="edge11" vertex="1" connectable="0" value="1" style="edgeLabel;resizable=0;html=1;align=left;verticalAlign=top;strokeColor=default;">
      <mxGeometry x="2102" y="6730" as="geometry" />
    </mxCell>
    <mxCell id="label71" parent="edge11" vertex="1" connectable="0" value="companyRepository" style="edgeLabel;resizable=0;html=1;align=left;verticalAlign=top;strokeColor=default;">
      <mxGeometry x="2051" y="6730" as="geometry" />
    </mxCell>
    <mxCell id="edge83" edge="1" value="" parent="1" source="node53" target="node81" style="html=1;rounded=1;edgeStyle=orthogonalEdgeStyle;dashed=1;startArrow=none;endArrow=openThin;endSize=12;strokeColor=#595959;exitX=0.833;exitY=0.000;exitDx=0;exitDy=0;entryX=0.500;entryY=1.000;entryDx=0;entryDy=0;">
      <mxGeometry width="50" height="50" relative="1" as="geometry">
        <Array as="points">
          <mxPoint x="2429" y="6726" />
          <mxPoint x="2968" y="6726" />
          <mxPoint x="2968" y="6306" />
          <mxPoint x="2468" y="6306" />
        </Array>
      </mxGeometry>
    </mxCell>
    <mxCell id="label500" parent="edge83" vertex="1" connectable="0" value="«create»" style="edgeLabel;resizable=0;html=1;align=left;verticalAlign=top;strokeColor=default;">
      <mxGeometry x="2403" y="6731" as="geometry" />
    </mxCell>
    <mxCell id="edge32" edge="1" value="" parent="1" source="node53" target="node71" style="html=1;rounded=1;edgeStyle=orthogonalEdgeStyle;dashed=1;startArrow=none;endArrow=block;endSize=12;strokeColor=#008200;exitX=0.500;exitY=0.000;exitDx=0;exitDy=0;entryX=0.750;entryY=1.000;entryDx=0;entryDy=0;">
      <mxGeometry width="50" height="50" relative="1" as="geometry">
        <Array as="points">
          <mxPoint x="2268" y="6426" />
          <mxPoint x="1992" y="6426" />
        </Array>
      </mxGeometry>
    </mxCell>
    <mxCell id="edge4" edge="1" value="" parent="1" source="node53" target="node28" style="html=1;rounded=1;edgeStyle=orthogonalEdgeStyle;dashed=0;startArrow=diamondThinstartSize=12;endArrow=openThin;endSize=12;strokeColor=#595959;exitX=0.167;exitY=0.000;exitDx=0;exitDy=0;entryX=0.750;entryY=1.000;entryDx=0;entryDy=0;">
      <mxGeometry width="50" height="50" relative="1" as="geometry">
        <Array as="points">
          <mxPoint x="2107" y="6486" />
          <mxPoint x="888" y="6486" />
          <mxPoint x="888" y="6406" />
          <mxPoint x="688" y="6406" />
          <mxPoint x="688" y="6206" />
          <mxPoint x="498" y="6206" />
        </Array>
      </mxGeometry>
    </mxCell>
    <mxCell id="label24" parent="edge4" vertex="1" connectable="0" value="1" style="edgeLabel;resizable=0;html=1;align=left;verticalAlign=top;strokeColor=default;">
      <mxGeometry x="2102" y="6730" as="geometry" />
    </mxCell>
    <mxCell id="label28" parent="edge4" vertex="1" connectable="0" value="1" style="edgeLabel;resizable=0;html=1;align=left;verticalAlign=top;strokeColor=default;">
      <mxGeometry x="2102" y="6730" as="geometry" />
    </mxCell>
    <mxCell id="label29" parent="edge4" vertex="1" connectable="0" value="gatewayDeviceRepository" style="edgeLabel;resizable=0;html=1;align=left;verticalAlign=top;strokeColor=default;">
      <mxGeometry x="2035" y="6730" as="geometry" />
    </mxCell>
    <mxCell id="edge0" edge="1" value="" parent="1" source="node53" target="node58" style="html=1;rounded=1;edgeStyle=orthogonalEdgeStyle;dashed=1;startArrow=none;endArrow=openThin;endSize=12;strokeColor=#595959;exitX=0.833;exitY=0.000;exitDx=0;exitDy=0;entryX=0.500;entryY=1.002;entryDx=0;entryDy=0;">
      <mxGeometry width="50" height="50" relative="1" as="geometry">
        <Array as="points">
          <mxPoint x="2429" y="6726" />
          <mxPoint x="2968" y="6726" />
          <mxPoint x="2968" y="6506" />
          <mxPoint x="3048" y="6506" />
        </Array>
      </mxGeometry>
    </mxCell>
    <mxCell id="label2" parent="edge0" vertex="1" connectable="0" value="«create»" style="edgeLabel;resizable=0;html=1;align=left;verticalAlign=top;strokeColor=default;">
      <mxGeometry x="2403" y="6731" as="geometry" />
    </mxCell>
    <mxCell id="edge12" edge="1" value="" parent="1" source="node53" target="node55" style="html=1;rounded=1;edgeStyle=orthogonalEdgeStyle;dashed=0;startArrow=diamondThinstartSize=12;endArrow=openThin;endSize=12;strokeColor=#595959;exitX=0.167;exitY=0.000;exitDx=0;exitDy=0;entryX=0.750;entryY=1.001;entryDx=0;entryDy=0;">
      <mxGeometry width="50" height="50" relative="1" as="geometry">
        <Array as="points">
          <mxPoint x="2107" y="6486" />
          <mxPoint x="888" y="6486" />
          <mxPoint x="888" y="6086" />
          <mxPoint x="890" y="6086" />
        </Array>
      </mxGeometry>
    </mxCell>
    <mxCell id="label72" parent="edge12" vertex="1" connectable="0" value="1" style="edgeLabel;resizable=0;html=1;align=left;verticalAlign=top;strokeColor=default;">
      <mxGeometry x="2102" y="6730" as="geometry" />
    </mxCell>
    <mxCell id="label76" parent="edge12" vertex="1" connectable="0" value="1" style="edgeLabel;resizable=0;html=1;align=left;verticalAlign=top;strokeColor=default;">
      <mxGeometry x="2102" y="6730" as="geometry" />
    </mxCell>
    <mxCell id="label77" parent="edge12" vertex="1" connectable="0" value="tokenService" style="edgeLabel;resizable=0;html=1;align=left;verticalAlign=top;strokeColor=default;">
      <mxGeometry x="2070" y="6730" as="geometry" />
    </mxCell>
    <mxCell id="edge57" edge="1" value="" parent="1" source="node9" target="node70" style="html=1;rounded=1;edgeStyle=orthogonalEdgeStyle;dashed=0;startArrow=none;endArrow=block;endSize=12;strokeColor=#000082;exitX=0.500;exitY=0.001;exitDx=0;exitDy=0;entryX=0.500;entryY=1.000;entryDx=0;entryDy=0;">
      <mxGeometry width="50" height="50" relative="1" as="geometry">
        <Array as="points">
          <mxPoint x="4148" y="6526" />
          <mxPoint x="3308" y="6526" />
        </Array>
      </mxGeometry>
    </mxCell>
    <mxCell id="edge37" edge="1" value="" parent="1" source="node69" target="node20" style="html=1;rounded=1;edgeStyle=orthogonalEdgeStyle;dashed=1;startArrow=none;endArrow=openThin;endSize=12;strokeColor=#595959;exitX=0.500;exitY=0.000;exitDx=0;exitDy=0;entryX=0.500;entryY=1.000;entryDx=0;entryDy=0;">
      <mxGeometry width="50" height="50" relative="1" as="geometry">
        <Array as="points">
          <mxPoint x="4368" y="5386" />
          <mxPoint x="4248" y="5386" />
        </Array>
      </mxGeometry>
    </mxCell>
    <mxCell id="label224" parent="edge37" vertex="1" connectable="0" value="«create»" style="edgeLabel;resizable=0;html=1;align=left;verticalAlign=top;strokeColor=default;">
      <mxGeometry x="4342" y="5393" as="geometry" />
    </mxCell>
    <mxCell id="edge68" edge="1" value="" parent="1" source="node15" target="node22" style="html=1;rounded=1;edgeStyle=orthogonalEdgeStyle;dashed=1;startArrow=none;endArrow=openThin;endSize=12;strokeColor=#595959;exitX=0.500;exitY=0.000;exitDx=0;exitDy=0;entryX=0.500;entryY=1.000;entryDx=0;entryDy=0;">
      <mxGeometry width="50" height="50" relative="1" as="geometry">
        <Array as="points">
          <mxPoint x="1448" y="1626" />
          <mxPoint x="2128" y="1626" />
          <mxPoint x="2128" y="706" />
          <mxPoint x="1788" y="706" />
        </Array>
      </mxGeometry>
    </mxCell>
    <mxCell id="label410" parent="edge68" vertex="1" connectable="0" value="«create»" style="edgeLabel;resizable=0;html=1;align=left;verticalAlign=top;strokeColor=default;">
      <mxGeometry x="1422" y="1639" as="geometry" />
    </mxCell>
    <mxCell id="edge46" edge="1" value="" parent="1" source="node15" target="node27" style="html=1;rounded=1;edgeStyle=orthogonalEdgeStyle;dashed=1;startArrow=none;endArrow=openThin;endSize=12;strokeColor=#595959;exitX=0.500;exitY=0.000;exitDx=0;exitDy=0;entryX=0.500;entryY=1.000;entryDx=0;entryDy=0;">
      <mxGeometry width="50" height="50" relative="1" as="geometry">
        <Array as="points">
          <mxPoint x="1448" y="1626" />
          <mxPoint x="2268" y="1626" />
        </Array>
      </mxGeometry>
    </mxCell>
    <mxCell id="label278" parent="edge46" vertex="1" connectable="0" value="«create»" style="edgeLabel;resizable=0;html=1;align=left;verticalAlign=top;strokeColor=default;">
      <mxGeometry x="1422" y="1639" as="geometry" />
    </mxCell>
    <mxCell id="edge49" edge="1" value="" parent="1" source="node15" target="node63" style="html=1;rounded=1;edgeStyle=orthogonalEdgeStyle;dashed=1;startArrow=none;endArrow=openThin;endSize=12;strokeColor=#595959;exitX=0.500;exitY=0.000;exitDx=0;exitDy=0;entryX=0.500;entryY=1.000;entryDx=0;entryDy=0;">
      <mxGeometry width="50" height="50" relative="1" as="geometry">
        <Array as="points">
          <mxPoint x="1448" y="1626" />
          <mxPoint x="1648" y="1626" />
        </Array>
      </mxGeometry>
    </mxCell>
    <mxCell id="label296" parent="edge49" vertex="1" connectable="0" value="«create»" style="edgeLabel;resizable=0;html=1;align=left;verticalAlign=top;strokeColor=default;">
      <mxGeometry x="1422" y="1639" as="geometry" />
    </mxCell>
    <mxCell id="edge36" edge="1" value="" parent="1" source="node15" target="node78" style="html=1;rounded=1;edgeStyle=orthogonalEdgeStyle;dashed=1;startArrow=none;endArrow=openThin;endSize=12;strokeColor=#595959;exitX=0.500;exitY=0.000;exitDx=0;exitDy=0;entryX=0.500;entryY=1.000;entryDx=0;entryDy=0;">
      <mxGeometry width="50" height="50" relative="1" as="geometry">
        <Array as="points">
          <mxPoint x="1448" y="1626" />
          <mxPoint x="1848" y="1626" />
        </Array>
      </mxGeometry>
    </mxCell>
    <mxCell id="label218" parent="edge36" vertex="1" connectable="0" value="«create»" style="edgeLabel;resizable=0;html=1;align=left;verticalAlign=top;strokeColor=default;">
      <mxGeometry x="1422" y="1639" as="geometry" />
    </mxCell>
    <mxCell id="edge73" edge="1" value="" parent="1" source="node15" target="node52" style="html=1;rounded=1;edgeStyle=orthogonalEdgeStyle;dashed=1;startArrow=none;endArrow=openThin;endSize=12;strokeColor=#595959;exitX=0.500;exitY=0.000;exitDx=0;exitDy=0;entryX=0.250;entryY=1.000;entryDx=0;entryDy=0;">
      <mxGeometry width="50" height="50" relative="1" as="geometry">
        <Array as="points">
          <mxPoint x="1448" y="446" />
          <mxPoint x="1454" y="446" />
        </Array>
      </mxGeometry>
    </mxCell>
    <mxCell id="label440" parent="edge73" vertex="1" connectable="0" value="«create»" style="edgeLabel;resizable=0;html=1;align=left;verticalAlign=top;strokeColor=default;">
      <mxGeometry x="1422" y="1639" as="geometry" />
    </mxCell>
    <mxCell id="edge16" edge="1" value="" parent="1" source="node15" target="node36" style="html=1;rounded=1;edgeStyle=orthogonalEdgeStyle;dashed=1;startArrow=none;endArrow=openThin;endSize=12;strokeColor=#595959;exitX=0.500;exitY=0.000;exitDx=0;exitDy=0;entryX=0.500;entryY=1.000;entryDx=0;entryDy=0;">
      <mxGeometry width="50" height="50" relative="1" as="geometry">
        <Array as="points">
          <mxPoint x="1448" y="1626" />
          <mxPoint x="2028" y="1626" />
        </Array>
      </mxGeometry>
    </mxCell>
    <mxCell id="label98" parent="edge16" vertex="1" connectable="0" value="«create»" style="edgeLabel;resizable=0;html=1;align=left;verticalAlign=top;strokeColor=default;">
      <mxGeometry x="1422" y="1639" as="geometry" />
    </mxCell>
    <mxCell id="edge33" edge="1" value="" parent="1" source="node79" target="node19" style="html=1;rounded=1;edgeStyle=orthogonalEdgeStyle;dashed=0;startArrow=diamondThinstartSize=12;endArrow=openThin;endSize=12;strokeColor=#595959;exitX=0.500;exitY=0.000;exitDx=0;exitDy=0;entryX=0.500;entryY=1.000;entryDx=0;entryDy=0;">
      <mxGeometry width="50" height="50" relative="1" as="geometry">
        <Array as="points" />
      </mxGeometry>
    </mxCell>
    <mxCell id="label198" parent="edge33" vertex="1" connectable="0" value="1" style="edgeLabel;resizable=0;html=1;align=left;verticalAlign=top;strokeColor=default;">
      <mxGeometry x="43" y="2462" as="geometry" />
    </mxCell>
    <mxCell id="label202" parent="edge33" vertex="1" connectable="0" value="*" style="edgeLabel;resizable=0;html=1;align=left;verticalAlign=top;strokeColor=default;">
      <mxGeometry x="44" y="2462" as="geometry" />
    </mxCell>
    <mxCell id="label203" parent="edge33" vertex="1" connectable="0" value="readings" style="edgeLabel;resizable=0;html=1;align=left;verticalAlign=top;strokeColor=default;">
      <mxGeometry x="22" y="2462" as="geometry" />
    </mxCell>
    <mxCell id="edge66" edge="1" value="" parent="1" source="node38" target="node79" style="html=1;rounded=1;edgeStyle=orthogonalEdgeStyle;dashed=0;startArrow=diamondThinstartSize=12;endArrow=openThin;endSize=12;strokeColor=#595959;exitX=0.250;exitY=0.000;exitDx=0;exitDy=0;entryX=0.500;entryY=0.000;entryDx=0;entryDy=0;">
      <mxGeometry width="50" height="50" relative="1" as="geometry">
        <Array as="points">
          <mxPoint x="235" y="3266" />
          <mxPoint x="228" y="3266" />
          <mxPoint x="228" y="2466" />
          <mxPoint x="48" y="2466" />
        </Array>
      </mxGeometry>
    </mxCell>
    <mxCell id="label396" parent="edge66" vertex="1" connectable="0" value="1" style="edgeLabel;resizable=0;html=1;align=left;verticalAlign=top;strokeColor=default;">
      <mxGeometry x="230" y="3268" as="geometry" />
    </mxCell>
    <mxCell id="label400" parent="edge66" vertex="1" connectable="0" value="1" style="edgeLabel;resizable=0;html=1;align=left;verticalAlign=top;strokeColor=default;">
      <mxGeometry x="230" y="3268" as="geometry" />
    </mxCell>
    <mxCell id="label401" parent="edge66" vertex="1" connectable="0" value="convertedData" style="edgeLabel;resizable=0;html=1;align=left;verticalAlign=top;strokeColor=default;">
      <mxGeometry x="194" y="3268" as="geometry" />
    </mxCell>
    <mxCell id="edge28" edge="1" value="" parent="1" source="node38" target="node77" style="html=1;rounded=1;edgeStyle=orthogonalEdgeStyle;dashed=0;startArrow=diamondThinstartSize=12;endArrow=openThin;endSize=12;strokeColor=#595959;exitX=0.250;exitY=0.000;exitDx=0;exitDy=0;entryX=0.250;entryY=1.000;entryDx=0;entryDy=0;">
      <mxGeometry width="50" height="50" relative="1" as="geometry">
        <Array as="points">
          <mxPoint x="235" y="3266" />
          <mxPoint x="228" y="3266" />
          <mxPoint x="228" y="3226" />
          <mxPoint x="351" y="3226" />
        </Array>
      </mxGeometry>
    </mxCell>
    <mxCell id="label168" parent="edge28" vertex="1" connectable="0" value="1" style="edgeLabel;resizable=0;html=1;align=left;verticalAlign=top;strokeColor=default;">
      <mxGeometry x="230" y="3268" as="geometry" />
    </mxCell>
    <mxCell id="label172" parent="edge28" vertex="1" connectable="0" value="*" style="edgeLabel;resizable=0;html=1;align=left;verticalAlign=top;strokeColor=default;">
      <mxGeometry x="231" y="3268" as="geometry" />
    </mxCell>
    <mxCell id="label173" parent="edge28" vertex="1" connectable="0" value="logs" style="edgeLabel;resizable=0;html=1;align=left;verticalAlign=top;strokeColor=default;">
      <mxGeometry x="221" y="3268" as="geometry" />
    </mxCell>
    <mxCell id="edge81" edge="1" value="" parent="1" source="node38" target="node77" style="html=1;rounded=1;edgeStyle=orthogonalEdgeStyle;dashed=1;startArrow=none;endArrow=openThin;endSize=12;strokeColor=#595959;exitX=0.750;exitY=0.000;exitDx=0;exitDy=0;entryX=0.750;entryY=1.000;entryDx=0;entryDy=0;">
      <mxGeometry width="50" height="50" relative="1" as="geometry">
        <Array as="points">
          <mxPoint x="461" y="2786" />
          <mxPoint x="465" y="2786" />
        </Array>
      </mxGeometry>
    </mxCell>
    <mxCell id="label488" parent="edge81" vertex="1" connectable="0" value="«create»" style="edgeLabel;resizable=0;html=1;align=left;verticalAlign=top;strokeColor=default;">
      <mxGeometry x="435" y="3265" as="geometry" />
    </mxCell>
    <mxCell id="edge82" edge="1" value="" parent="1" source="node49" target="node38" style="html=1;rounded=1;edgeStyle=orthogonalEdgeStyle;dashed=1;startArrow=none;endArrow=openThin;endSize=12;strokeColor=#595959;exitX=0.500;exitY=0.000;exitDx=0;exitDy=0;entryX=0.750;entryY=0.000;entryDx=0;entryDy=0;">
      <mxGeometry width="50" height="50" relative="1" as="geometry">
        <Array as="points">
          <mxPoint x="88" y="3246" />
          <mxPoint x="461" y="3246" />
        </Array>
      </mxGeometry>
    </mxCell>
    <mxCell id="label494" parent="edge82" vertex="1" connectable="0" value="«create»" style="edgeLabel;resizable=0;html=1;align=left;verticalAlign=top;strokeColor=default;">
      <mxGeometry x="62" y="4471" as="geometry" />
    </mxCell>
    <mxCell id="edge60" edge="1" value="" parent="1" source="node49" target="node62" style="html=1;rounded=1;edgeStyle=orthogonalEdgeStyle;dashed=1;startArrow=none;endArrow=openThin;endSize=12;strokeColor=#595959;exitX=0.500;exitY=0.000;exitDx=0;exitDy=0;entryX=0.500;entryY=1.000;entryDx=0;entryDy=0;">
      <mxGeometry width="50" height="50" relative="1" as="geometry">
        <Array as="points">
          <mxPoint x="88" y="4466" />
          <mxPoint x="648" y="4466" />
        </Array>
      </mxGeometry>
    </mxCell>
    <mxCell id="label362" parent="edge60" vertex="1" connectable="0" value="«create»" style="edgeLabel;resizable=0;html=1;align=left;verticalAlign=top;strokeColor=default;">
      <mxGeometry x="62" y="4471" as="geometry" />
    </mxCell>
    <mxCell id="edge72" edge="1" value="" parent="1" source="node29" target="node69" style="html=1;rounded=1;edgeStyle=orthogonalEdgeStyle;dashed=0;startArrow=diamondThinstartSize=12;endArrow=openThin;endSize=12;strokeColor=#595959;exitX=0.500;exitY=0.000;exitDx=0;exitDy=0;entryX=0.500;entryY=1.000;entryDx=0;entryDy=0;">
      <mxGeometry width="50" height="50" relative="1" as="geometry">
        <Array as="points">
          <mxPoint x="4328" y="6426" />
          <mxPoint x="4368" y="6426" />
        </Array>
      </mxGeometry>
    </mxCell>
    <mxCell id="label432" parent="edge72" vertex="1" connectable="0" value="1" style="edgeLabel;resizable=0;html=1;align=left;verticalAlign=top;strokeColor=default;">
      <mxGeometry x="4323" y="6799" as="geometry" />
    </mxCell>
    <mxCell id="label436" parent="edge72" vertex="1" connectable="0" value="1" style="edgeLabel;resizable=0;html=1;align=left;verticalAlign=top;strokeColor=default;">
      <mxGeometry x="4323" y="6799" as="geometry" />
    </mxCell>
    <mxCell id="label437" parent="edge72" vertex="1" connectable="0" value="data" style="edgeLabel;resizable=0;html=1;align=left;verticalAlign=top;strokeColor=default;">
      <mxGeometry x="4314" y="6799" as="geometry" />
    </mxCell>
    <mxCell id="edge17" edge="1" value="" parent="1" source="node50" target="node60" style="html=1;rounded=1;edgeStyle=orthogonalEdgeStyle;dashed=1;startArrow=none;endArrow=openThin;endSize=12;strokeColor=#595959;exitX=0.500;exitY=0.000;exitDx=0;exitDy=0;entryX=0.500;entryY=1.000;entryDx=0;entryDy=0;">
      <mxGeometry width="50" height="50" relative="1" as="geometry">
        <Array as="points">
          <mxPoint x="748" y="1486" />
          <mxPoint x="1228" y="1486" />
        </Array>
      </mxGeometry>
    </mxCell>
    <mxCell id="label104" parent="edge17" vertex="1" connectable="0" value="«create»" style="edgeLabel;resizable=0;html=1;align=left;verticalAlign=top;strokeColor=default;">
      <mxGeometry x="722" y="1673" as="geometry" />
    </mxCell>
    <mxCell id="edge64" edge="1" value="" parent="1" source="node50" target="node75" style="html=1;rounded=1;edgeStyle=orthogonalEdgeStyle;dashed=1;startArrow=none;endArrow=openThin;endSize=12;strokeColor=#595959;exitX=0.500;exitY=0.000;exitDx=0;exitDy=0;entryX=0.500;entryY=1.000;entryDx=0;entryDy=0;">
      <mxGeometry width="50" height="50" relative="1" as="geometry">
        <Array as="points" />
      </mxGeometry>
    </mxCell>
    <mxCell id="label386" parent="edge64" vertex="1" connectable="0" value="«create»" style="edgeLabel;resizable=0;html=1;align=left;verticalAlign=top;strokeColor=default;">
      <mxGeometry x="722" y="1673" as="geometry" />
    </mxCell>
    <mxCell id="edge56" edge="1" value="" parent="1" source="node50" target="node16" style="html=1;rounded=1;edgeStyle=orthogonalEdgeStyle;dashed=1;startArrow=none;endArrow=openThin;endSize=12;strokeColor=#595959;exitX=0.500;exitY=0.000;exitDx=0;exitDy=0;entryX=0.500;entryY=1.000;entryDx=0;entryDy=0;">
      <mxGeometry width="50" height="50" relative="1" as="geometry">
        <Array as="points">
          <mxPoint x="748" y="1486" />
          <mxPoint x="528" y="1486" />
        </Array>
      </mxGeometry>
    </mxCell>
    <mxCell id="label338" parent="edge56" vertex="1" connectable="0" value="«create»" style="edgeLabel;resizable=0;html=1;align=left;verticalAlign=top;strokeColor=default;">
      <mxGeometry x="722" y="1673" as="geometry" />
    </mxCell>
    <mxCell id="edge29" edge="1" value="" parent="1" source="node50" target="node47" style="html=1;rounded=1;edgeStyle=orthogonalEdgeStyle;dashed=1;startArrow=none;endArrow=openThin;endSize=12;strokeColor=#595959;exitX=0.500;exitY=0.000;exitDx=0;exitDy=0;entryX=0.500;entryY=1.000;entryDx=0;entryDy=0;">
      <mxGeometry width="50" height="50" relative="1" as="geometry">
        <Array as="points">
          <mxPoint x="748" y="1486" />
          <mxPoint x="988" y="1486" />
        </Array>
      </mxGeometry>
    </mxCell>
    <mxCell id="label176" parent="edge29" vertex="1" connectable="0" value="«create»" style="edgeLabel;resizable=0;html=1;align=left;verticalAlign=top;strokeColor=default;">
      <mxGeometry x="722" y="1673" as="geometry" />
    </mxCell>
    <mxCell id="edge76" edge="1" value="" parent="1" source="node0" target="node9" style="html=1;rounded=1;edgeStyle=orthogonalEdgeStyle;dashed=1;startArrow=none;endArrow=openThin;endSize=12;strokeColor=#595959;exitX=0.750;exitY=0.000;exitDx=0;exitDy=0;entryX=0.500;entryY=1.001;entryDx=0;entryDy=0;">
      <mxGeometry width="50" height="50" relative="1" as="geometry">
        <Array as="points">
          <mxPoint x="3183" y="7306" />
          <mxPoint x="3228" y="7306" />
          <mxPoint x="3228" y="6986" />
          <mxPoint x="4148" y="6986" />
        </Array>
      </mxGeometry>
    </mxCell>
    <mxCell id="label458" parent="edge76" vertex="1" connectable="0" value="«create»" style="edgeLabel;resizable=0;html=1;align=left;verticalAlign=top;strokeColor=default;">
      <mxGeometry x="3157" y="7308" as="geometry" />
    </mxCell>
    <mxCell id="edge78" edge="1" value="" parent="1" source="node0" target="node29" style="html=1;rounded=1;edgeStyle=orthogonalEdgeStyle;dashed=1;startArrow=none;endArrow=openThin;endSize=12;strokeColor=#595959;exitX=0.750;exitY=0.000;exitDx=0;exitDy=0;entryX=0.500;entryY=1.000;entryDx=0;entryDy=0;">
      <mxGeometry width="50" height="50" relative="1" as="geometry">
        <Array as="points">
          <mxPoint x="3183" y="7306" />
          <mxPoint x="3228" y="7306" />
          <mxPoint x="3228" y="6986" />
          <mxPoint x="4328" y="6986" />
        </Array>
      </mxGeometry>
    </mxCell>
    <mxCell id="label470" parent="edge78" vertex="1" connectable="0" value="«create»" style="edgeLabel;resizable=0;html=1;align=left;verticalAlign=top;strokeColor=default;">
      <mxGeometry x="3157" y="7308" as="geometry" />
    </mxCell>
    <mxCell id="edge42" edge="1" value="" parent="1" source="node0" target="node43" style="html=1;rounded=1;edgeStyle=orthogonalEdgeStyle;dashed=1;startArrow=none;endArrow=openThin;endSize=12;strokeColor=#595959;exitX=0.750;exitY=0.000;exitDx=0;exitDy=0;entryX=0.833;entryY=0.000;entryDx=0;entryDy=0;">
      <mxGeometry width="50" height="50" relative="1" as="geometry">
        <Array as="points">
          <mxPoint x="3183" y="7306" />
          <mxPoint x="3228" y="7306" />
          <mxPoint x="3228" y="6986" />
          <mxPoint x="3448" y="6986" />
          <mxPoint x="3448" y="6766" />
          <mxPoint x="3965" y="6766" />
        </Array>
      </mxGeometry>
    </mxCell>
    <mxCell id="label254" parent="edge42" vertex="1" connectable="0" value="«create»" style="edgeLabel;resizable=0;html=1;align=left;verticalAlign=top;strokeColor=default;">
      <mxGeometry x="3157" y="7308" as="geometry" />
    </mxCell>
    <mxCell id="edge77" edge="1" value="" parent="1" source="node0" target="node21" style="html=1;rounded=1;edgeStyle=orthogonalEdgeStyle;dashed=0;startArrow=diamondThinstartSize=12;endArrow=openThin;endSize=12;strokeColor=#595959;exitX=0.250;exitY=0.000;exitDx=0;exitDy=0;entryX=0.750;entryY=1.000;entryDx=0;entryDy=0;">
      <mxGeometry width="50" height="50" relative="1" as="geometry">
        <Array as="points">
          <mxPoint x="2993" y="7086" />
          <mxPoint x="2608" y="7086" />
          <mxPoint x="2608" y="5606" />
          <mxPoint x="2108" y="5606" />
          <mxPoint x="2108" y="5246" />
          <mxPoint x="2102" y="5246" />
        </Array>
      </mxGeometry>
    </mxCell>
    <mxCell id="label462" parent="edge77" vertex="1" connectable="0" value="1" style="edgeLabel;resizable=0;html=1;align=left;verticalAlign=top;strokeColor=default;">
      <mxGeometry x="2987" y="7305" as="geometry" />
    </mxCell>
    <mxCell id="label466" parent="edge77" vertex="1" connectable="0" value="1" style="edgeLabel;resizable=0;html=1;align=left;verticalAlign=top;strokeColor=default;">
      <mxGeometry x="2987" y="7305" as="geometry" />
    </mxCell>
    <mxCell id="label467" parent="edge77" vertex="1" connectable="0" value="eventRepository" style="edgeLabel;resizable=0;html=1;align=left;verticalAlign=top;strokeColor=default;">
      <mxGeometry x="2947" y="7305" as="geometry" />
    </mxCell>
    <mxCell id="edge9" edge="1" value="" parent="1" source="node0" target="node67" style="html=1;rounded=1;edgeStyle=orthogonalEdgeStyle;dashed=0;startArrow=diamondThinstartSize=12;endArrow=openThin;endSize=12;strokeColor=#595959;exitX=0.250;exitY=0.000;exitDx=0;exitDy=0;entryX=0.750;entryY=1.001;entryDx=0;entryDy=0;">
      <mxGeometry width="50" height="50" relative="1" as="geometry">
        <Array as="points">
          <mxPoint x="2993" y="7086" />
          <mxPoint x="2608" y="7086" />
          <mxPoint x="2608" y="7046" />
          <mxPoint x="2568" y="7046" />
          <mxPoint x="2568" y="6346" />
          <mxPoint x="2428" y="6346" />
          <mxPoint x="2428" y="6166" />
          <mxPoint x="2368" y="6166" />
        </Array>
      </mxGeometry>
    </mxCell>
    <mxCell id="label54" parent="edge9" vertex="1" connectable="0" value="1" style="edgeLabel;resizable=0;html=1;align=left;verticalAlign=top;strokeColor=default;">
      <mxGeometry x="2987" y="7305" as="geometry" />
    </mxCell>
    <mxCell id="label58" parent="edge9" vertex="1" connectable="0" value="1" style="edgeLabel;resizable=0;html=1;align=left;verticalAlign=top;strokeColor=default;">
      <mxGeometry x="2987" y="7305" as="geometry" />
    </mxCell>
    <mxCell id="label59" parent="edge9" vertex="1" connectable="0" value="findCompanyAppInterface" style="edgeLabel;resizable=0;html=1;align=left;verticalAlign=top;strokeColor=default;">
      <mxGeometry x="2920" y="7305" as="geometry" />
    </mxCell>
    <mxCell id="edge43" edge="1" value="" parent="1" source="node0" target="node71" style="html=1;rounded=1;edgeStyle=orthogonalEdgeStyle;dashed=0;startArrow=diamondThinstartSize=12;endArrow=openThin;endSize=12;strokeColor=#595959;exitX=0.250;exitY=0.000;exitDx=0;exitDy=0;entryX=0.250;entryY=1.001;entryDx=0;entryDy=0;">
      <mxGeometry width="50" height="50" relative="1" as="geometry">
        <Array as="points">
          <mxPoint x="2993" y="7086" />
          <mxPoint x="2608" y="7086" />
          <mxPoint x="2608" y="7046" />
          <mxPoint x="1568" y="7046" />
          <mxPoint x="1568" y="6166" />
          <mxPoint x="1825" y="6166" />
        </Array>
      </mxGeometry>
    </mxCell>
    <mxCell id="label258" parent="edge43" vertex="1" connectable="0" value="1" style="edgeLabel;resizable=0;html=1;align=left;verticalAlign=top;strokeColor=default;">
      <mxGeometry x="2987" y="7305" as="geometry" />
    </mxCell>
    <mxCell id="label262" parent="edge43" vertex="1" connectable="0" value="1" style="edgeLabel;resizable=0;html=1;align=left;verticalAlign=top;strokeColor=default;">
      <mxGeometry x="2987" y="7305" as="geometry" />
    </mxCell>
    <mxCell id="label263" parent="edge43" vertex="1" connectable="0" value="findCompanyInterface" style="edgeLabel;resizable=0;html=1;align=left;verticalAlign=top;strokeColor=default;">
      <mxGeometry x="2931" y="7305" as="geometry" />
    </mxCell>
    <mxCell id="edge18" edge="1" value="" parent="1" source="node0" target="node59" style="html=1;rounded=1;edgeStyle=orthogonalEdgeStyle;dashed=1;startArrow=none;endArrow=openThin;endSize=12;strokeColor=#595959;exitX=0.750;exitY=0.000;exitDx=0;exitDy=0;entryX=0.500;entryY=1.000;entryDx=0;entryDy=0;">
      <mxGeometry width="50" height="50" relative="1" as="geometry">
        <Array as="points">
          <mxPoint x="3183" y="7306" />
          <mxPoint x="3228" y="7306" />
          <mxPoint x="3228" y="6986" />
          <mxPoint x="2808" y="6986" />
        </Array>
      </mxGeometry>
    </mxCell>
    <mxCell id="label110" parent="edge18" vertex="1" connectable="0" value="«create»" style="edgeLabel;resizable=0;html=1;align=left;verticalAlign=top;strokeColor=default;">
      <mxGeometry x="3157" y="7308" as="geometry" />
    </mxCell>
    <mxCell id="edge70" edge="1" value="" parent="1" source="node0" target="node66" style="html=1;rounded=1;edgeStyle=orthogonalEdgeStyle;dashed=1;startArrow=none;endArrow=openThin;endSize=12;strokeColor=#595959;exitX=0.750;exitY=0.000;exitDx=0;exitDy=0;entryX=0.500;entryY=1.000;entryDx=0;entryDy=0;">
      <mxGeometry width="50" height="50" relative="1" as="geometry">
        <Array as="points">
          <mxPoint x="3183" y="7306" />
          <mxPoint x="3228" y="7306" />
        </Array>
      </mxGeometry>
    </mxCell>
    <mxCell id="label422" parent="edge70" vertex="1" connectable="0" value="«create»" style="edgeLabel;resizable=0;html=1;align=left;verticalAlign=top;strokeColor=default;">
      <mxGeometry x="3157" y="7308" as="geometry" />
    </mxCell>
    <mxCell id="edge39" edge="1" value="" parent="1" source="node0" target="node2" style="html=1;rounded=1;edgeStyle=orthogonalEdgeStyle;dashed=0;startArrow=diamondThinstartSize=12;endArrow=openThin;endSize=12;strokeColor=#595959;exitX=0.250;exitY=0.000;exitDx=0;exitDy=0;entryX=0.750;entryY=1.001;entryDx=0;entryDy=0;">
      <mxGeometry width="50" height="50" relative="1" as="geometry">
        <Array as="points">
          <mxPoint x="2993" y="7086" />
          <mxPoint x="2608" y="7086" />
          <mxPoint x="2608" y="7046" />
          <mxPoint x="3008" y="7046" />
          <mxPoint x="3008" y="6286" />
          <mxPoint x="2928" y="6286" />
          <mxPoint x="2928" y="6166" />
          <mxPoint x="2921" y="6166" />
        </Array>
      </mxGeometry>
    </mxCell>
    <mxCell id="label234" parent="edge39" vertex="1" connectable="0" value="1" style="edgeLabel;resizable=0;html=1;align=left;verticalAlign=top;strokeColor=default;">
      <mxGeometry x="2987" y="7305" as="geometry" />
    </mxCell>
    <mxCell id="label238" parent="edge39" vertex="1" connectable="0" value="1" style="edgeLabel;resizable=0;html=1;align=left;verticalAlign=top;strokeColor=default;">
      <mxGeometry x="2987" y="7305" as="geometry" />
    </mxCell>
    <mxCell id="label239" parent="edge39" vertex="1" connectable="0" value="findDeviceInterface" style="edgeLabel;resizable=0;html=1;align=left;verticalAlign=top;strokeColor=default;">
      <mxGeometry x="2939" y="7305" as="geometry" />
    </mxCell>
    <mxCell id="edge14" edge="1" value="" parent="1" source="node43" target="node70" style="html=1;rounded=1;edgeStyle=orthogonalEdgeStyle;dashed=0;startArrow=none;endArrow=block;endSize=12;strokeColor=#000082;exitX=0.500;exitY=0.000;exitDx=0;exitDy=0;entryX=0.500;entryY=1.000;entryDx=0;entryDy=0;">
      <mxGeometry width="50" height="50" relative="1" as="geometry">
        <Array as="points">
          <mxPoint x="3768" y="6526" />
          <mxPoint x="3308" y="6526" />
        </Array>
      </mxGeometry>
    </mxCell>
    <mxCell id="edge63" edge="1" value="" parent="1" source="node43" target="node7" style="html=1;rounded=1;edgeStyle=orthogonalEdgeStyle;dashed=1;startArrow=none;endArrow=openThin;endSize=12;strokeColor=#595959;exitX=0.833;exitY=0.000;exitDx=0;exitDy=0;entryX=0.500;entryY=1.000;entryDx=0;entryDy=0;">
      <mxGeometry width="50" height="50" relative="1" as="geometry">
        <Array as="points">
          <mxPoint x="3965" y="6786" />
          <mxPoint x="3908" y="6786" />
          <mxPoint x="3908" y="6246" />
          <mxPoint x="3548" y="6246" />
        </Array>
      </mxGeometry>
    </mxCell>
    <mxCell id="label380" parent="edge63" vertex="1" connectable="0" value="«create»" style="edgeLabel;resizable=0;html=1;align=left;verticalAlign=top;strokeColor=default;">
      <mxGeometry x="3939" y="6799" as="geometry" />
    </mxCell>
    <mxCell id="edge20" edge="1" value="" parent="1" source="node43" target="node57" style="html=1;rounded=1;edgeStyle=orthogonalEdgeStyle;dashed=1;startArrow=none;endArrow=openThin;endSize=12;strokeColor=#595959;exitX=0.833;exitY=0.000;exitDx=0;exitDy=0;entryX=0.500;entryY=1.000;entryDx=0;entryDy=0;">
      <mxGeometry width="50" height="50" relative="1" as="geometry">
        <Array as="points">
          <mxPoint x="3965" y="6786" />
          <mxPoint x="3908" y="6786" />
          <mxPoint x="3908" y="6246" />
          <mxPoint x="4148" y="6246" />
        </Array>
      </mxGeometry>
    </mxCell>
    <mxCell id="label122" parent="edge20" vertex="1" connectable="0" value="«create»" style="edgeLabel;resizable=0;html=1;align=left;verticalAlign=top;strokeColor=default;">
      <mxGeometry x="3939" y="6799" as="geometry" />
    </mxCell>
    <mxCell id="edge19" edge="1" value="" parent="1" source="node43" target="node2" style="html=1;rounded=1;edgeStyle=orthogonalEdgeStyle;dashed=0;startArrow=diamondThinstartSize=12;endArrow=openThin;endSize=12;strokeColor=#595959;exitX=0.167;exitY=0.000;exitDx=0;exitDy=0;entryX=0.750;entryY=1.001;entryDx=0;entryDy=0;">
      <mxGeometry width="50" height="50" relative="1" as="geometry">
        <Array as="points">
          <mxPoint x="3571" y="6286" />
          <mxPoint x="2928" y="6286" />
          <mxPoint x="2928" y="6166" />
          <mxPoint x="2921" y="6166" />
        </Array>
      </mxGeometry>
    </mxCell>
    <mxCell id="label114" parent="edge19" vertex="1" connectable="0" value="1" style="edgeLabel;resizable=0;html=1;align=left;verticalAlign=top;strokeColor=default;">
      <mxGeometry x="3566" y="6799" as="geometry" />
    </mxCell>
    <mxCell id="label118" parent="edge19" vertex="1" connectable="0" value="1" style="edgeLabel;resizable=0;html=1;align=left;verticalAlign=top;strokeColor=default;">
      <mxGeometry x="3566" y="6799" as="geometry" />
    </mxCell>
    <mxCell id="label119" parent="edge19" vertex="1" connectable="0" value="findDeviceInterface" style="edgeLabel;resizable=0;html=1;align=left;verticalAlign=top;strokeColor=default;">
      <mxGeometry x="3517" y="6799" as="geometry" />
    </mxCell>
    <mxCell id="edge30" edge="1" value="" parent="1" source="node43" target="node64" style="html=1;rounded=1;edgeStyle=orthogonalEdgeStyle;dashed=1;startArrow=none;endArrow=openThin;endSize=12;strokeColor=#595959;exitX=0.833;exitY=0.000;exitDx=0;exitDy=0;entryX=0.500;entryY=1.000;entryDx=0;entryDy=0;">
      <mxGeometry width="50" height="50" relative="1" as="geometry">
        <Array as="points">
          <mxPoint x="3965" y="6786" />
          <mxPoint x="3908" y="6786" />
        </Array>
      </mxGeometry>
    </mxCell>
    <mxCell id="label182" parent="edge30" vertex="1" connectable="0" value="«create»" style="edgeLabel;resizable=0;html=1;align=left;verticalAlign=top;strokeColor=default;">
      <mxGeometry x="3939" y="6799" as="geometry" />
    </mxCell>
    <mxCell id="edge21" edge="1" value="" parent="1" source="node43" target="node58" style="html=1;rounded=1;edgeStyle=orthogonalEdgeStyle;dashed=1;startArrow=none;endArrow=openThin;endSize=12;strokeColor=#595959;exitX=0.833;exitY=0.000;exitDx=0;exitDy=0;entryX=0.500;entryY=1.001;entryDx=0;entryDy=0;">
      <mxGeometry width="50" height="50" relative="1" as="geometry">
        <Array as="points">
          <mxPoint x="3965" y="6786" />
          <mxPoint x="3908" y="6786" />
          <mxPoint x="3908" y="6266" />
          <mxPoint x="3048" y="6266" />
        </Array>
      </mxGeometry>
    </mxCell>
    <mxCell id="label128" parent="edge21" vertex="1" connectable="0" value="«create»" style="edgeLabel;resizable=0;html=1;align=left;verticalAlign=top;strokeColor=default;">
      <mxGeometry x="3939" y="6799" as="geometry" />
    </mxCell>
    <mxCell id="edge84" edge="1" value="" parent="1" source="node43" target="node84" style="html=1;rounded=1;edgeStyle=orthogonalEdgeStyle;dashed=1;startArrow=none;endArrow=openThin;endSize=12;strokeColor=#595959;exitX=0.833;exitY=0.000;exitDx=0;exitDy=0;entryX=0.500;entryY=1.000;entryDx=0;entryDy=0;">
      <mxGeometry width="50" height="50" relative="1" as="geometry">
        <Array as="points">
          <mxPoint x="3965" y="6786" />
          <mxPoint x="3908" y="6786" />
          <mxPoint x="3908" y="6246" />
          <mxPoint x="3668" y="6246" />
        </Array>
      </mxGeometry>
    </mxCell>
    <mxCell id="label506" parent="edge84" vertex="1" connectable="0" value="«create»" style="edgeLabel;resizable=0;html=1;align=left;verticalAlign=top;strokeColor=default;">
      <mxGeometry x="3939" y="6799" as="geometry" />
    </mxCell>
    <mxCell id="edge10" edge="1" value="" parent="1" source="node6" target="node41" style="html=1;rounded=1;edgeStyle=orthogonalEdgeStyle;dashed=1;startArrow=none;endArrow=openThin;endSize=12;strokeColor=#595959;exitX=0.250;exitY=0.000;exitDx=0;exitDy=0;entryX=0.500;entryY=1.000;entryDx=0;entryDy=0;">
      <mxGeometry width="50" height="50" relative="1" as="geometry">
        <Array as="points">
          <mxPoint x="2085" y="7746" />
          <mxPoint x="2088" y="7746" />
          <mxPoint x="2088" y="7066" />
          <mxPoint x="1528" y="7066" />
          <mxPoint x="1528" y="6986" />
          <mxPoint x="1128" y="6986" />
        </Array>
      </mxGeometry>
    </mxCell>
    <mxCell id="label62" parent="edge10" vertex="1" connectable="0" value="«create»" style="edgeLabel;resizable=0;html=1;align=left;verticalAlign=top;strokeColor=default;">
      <mxGeometry x="2059" y="7749" as="geometry" />
    </mxCell>
    <mxCell id="edge61" edge="1" value="" parent="1" source="node6" target="node0" style="html=1;rounded=1;edgeStyle=orthogonalEdgeStyle;dashed=0;startArrow=diamondThinstartSize=12;endArrow=openThin;endSize=12;strokeColor=#595959;exitX=0.750;exitY=0.000;exitDx=0;exitDy=0;entryX=0.250;entryY=0.000;entryDx=0;entryDy=0;">
      <mxGeometry width="50" height="50" relative="1" as="geometry">
        <Array as="points">
          <mxPoint x="2411" y="7746" />
          <mxPoint x="2408" y="7746" />
          <mxPoint x="2408" y="7606" />
          <mxPoint x="2868" y="7606" />
          <mxPoint x="2868" y="7306" />
          <mxPoint x="2993" y="7306" />
        </Array>
      </mxGeometry>
    </mxCell>
    <mxCell id="label366" parent="edge61" vertex="1" connectable="0" value="1" style="edgeLabel;resizable=0;html=1;align=left;verticalAlign=top;strokeColor=default;">
      <mxGeometry x="2406" y="7749" as="geometry" />
    </mxCell>
    <mxCell id="label370" parent="edge61" vertex="1" connectable="0" value="1" style="edgeLabel;resizable=0;html=1;align=left;verticalAlign=top;strokeColor=default;">
      <mxGeometry x="2406" y="7749" as="geometry" />
    </mxCell>
    <mxCell id="label371" parent="edge61" vertex="1" connectable="0" value="dispatcherService" style="edgeLabel;resizable=0;html=1;align=left;verticalAlign=top;strokeColor=default;">
      <mxGeometry x="2360" y="7749" as="geometry" />
    </mxCell>
    <mxCell id="edge41" edge="1" value="" parent="1" source="node6" target="node13" style="html=1;rounded=1;edgeStyle=orthogonalEdgeStyle;dashed=0;startArrow=diamondThinstartSize=12;endArrow=openThin;endSize=12;strokeColor=#595959;exitX=0.750;exitY=0.000;exitDx=0;exitDy=0;entryX=0.500;entryY=0.000;entryDx=0;entryDy=0;">
      <mxGeometry width="50" height="50" relative="1" as="geometry">
        <Array as="points">
          <mxPoint x="2411" y="7746" />
          <mxPoint x="2408" y="7746" />
          <mxPoint x="2408" y="7726" />
          <mxPoint x="2288" y="7726" />
          <mxPoint x="2288" y="7346" />
          <mxPoint x="2528" y="7346" />
        </Array>
      </mxGeometry>
    </mxCell>
    <mxCell id="label246" parent="edge41" vertex="1" connectable="0" value="1" style="edgeLabel;resizable=0;html=1;align=left;verticalAlign=top;strokeColor=default;">
      <mxGeometry x="2406" y="7749" as="geometry" />
    </mxCell>
    <mxCell id="label250" parent="edge41" vertex="1" connectable="0" value="1" style="edgeLabel;resizable=0;html=1;align=left;verticalAlign=top;strokeColor=default;">
      <mxGeometry x="2406" y="7749" as="geometry" />
    </mxCell>
    <mxCell id="label251" parent="edge41" vertex="1" connectable="0" value="eventService" style="edgeLabel;resizable=0;html=1;align=left;verticalAlign=top;strokeColor=default;">
      <mxGeometry x="2375" y="7749" as="geometry" />
    </mxCell>
    <mxCell id="edge79" edge="1" value="" parent="1" source="node18" target="node21" style="html=1;rounded=1;edgeStyle=orthogonalEdgeStyle;dashed=1;startArrow=none;endArrow=block;endSize=12;strokeColor=#008200;exitX=0.500;exitY=0.000;exitDx=0;exitDy=0;entryX=0.250;entryY=1.000;entryDx=0;entryDy=0;">
      <mxGeometry width="50" height="50" relative="1" as="geometry">
        <Array as="points">
          <mxPoint x="1688" y="5586" />
          <mxPoint x="1914" y="5586" />
        </Array>
      </mxGeometry>
    </mxCell>
    <mxCell id="edge80" edge="1" value="" parent="1" source="node13" target="node21" style="html=1;rounded=1;edgeStyle=orthogonalEdgeStyle;dashed=0;startArrow=diamondThinstartSize=12;endArrow=openThin;endSize=12;strokeColor=#595959;exitX=0.500;exitY=0.000;exitDx=0;exitDy=0;entryX=0.750;entryY=1.000;entryDx=0;entryDy=0;">
      <mxGeometry width="50" height="50" relative="1" as="geometry">
        <Array as="points">
          <mxPoint x="2528" y="6366" />
          <mxPoint x="2108" y="6366" />
          <mxPoint x="2108" y="5246" />
          <mxPoint x="2102" y="5246" />
        </Array>
      </mxGeometry>
    </mxCell>
    <mxCell id="label480" parent="edge80" vertex="1" connectable="0" value="1" style="edgeLabel;resizable=0;html=1;align=left;verticalAlign=top;strokeColor=default;">
      <mxGeometry x="2523" y="7351" as="geometry" />
    </mxCell>
    <mxCell id="label484" parent="edge80" vertex="1" connectable="0" value="1" style="edgeLabel;resizable=0;html=1;align=left;verticalAlign=top;strokeColor=default;">
      <mxGeometry x="2523" y="7351" as="geometry" />
    </mxCell>
    <mxCell id="label485" parent="edge80" vertex="1" connectable="0" value="eventRepository" style="edgeLabel;resizable=0;html=1;align=left;verticalAlign=top;strokeColor=default;">
      <mxGeometry x="2482" y="7351" as="geometry" />
    </mxCell>
    <mxCell id="edge2" edge="1" value="" parent="1" source="node59" target="node70" style="html=1;rounded=1;edgeStyle=orthogonalEdgeStyle;dashed=0;startArrow=none;endArrow=block;endSize=12;strokeColor=#000082;exitX=0.750;exitY=0.001;exitDx=0;exitDy=0;entryX=0.500;entryY=1.000;entryDx=0;entryDy=0;">
      <mxGeometry width="50" height="50" relative="1" as="geometry">
        <Array as="points">
          <mxPoint x="2891" y="6526" />
          <mxPoint x="3308" y="6526" />
        </Array>
      </mxGeometry>
    </mxCell>
    <mxCell id="edge44" edge="1" value="" parent="1" source="node59" target="node71" style="html=1;rounded=1;edgeStyle=orthogonalEdgeStyle;dashed=0;startArrow=diamondThinstartSize=12;endArrow=openThin;endSize=12;strokeColor=#595959;exitX=0.250;exitY=0.001;exitDx=0;exitDy=0;entryX=0.250;entryY=1.001;entryDx=0;entryDy=0;">
      <mxGeometry width="50" height="50" relative="1" as="geometry">
        <Array as="points">
          <mxPoint x="2725" y="6446" />
          <mxPoint x="1568" y="6446" />
          <mxPoint x="1568" y="6166" />
          <mxPoint x="1825" y="6166" />
        </Array>
      </mxGeometry>
    </mxCell>
    <mxCell id="label264" parent="edge44" vertex="1" connectable="0" value="1" style="edgeLabel;resizable=0;html=1;align=left;verticalAlign=top;strokeColor=default;">
      <mxGeometry x="2720" y="6822" as="geometry" />
    </mxCell>
    <mxCell id="label268" parent="edge44" vertex="1" connectable="0" value="1" style="edgeLabel;resizable=0;html=1;align=left;verticalAlign=top;strokeColor=default;">
      <mxGeometry x="2720" y="6822" as="geometry" />
    </mxCell>
    <mxCell id="label269" parent="edge44" vertex="1" connectable="0" value="findCompanyInterface" style="edgeLabel;resizable=0;html=1;align=left;verticalAlign=top;strokeColor=default;">
      <mxGeometry x="2663" y="6822" as="geometry" />
    </mxCell>
    <mxCell id="edge13" edge="1" value="" parent="1" source="node66" target="node70" style="html=1;rounded=1;edgeStyle=orthogonalEdgeStyle;dashed=0;startArrow=none;endArrow=block;endSize=12;strokeColor=#000082;exitX=0.750;exitY=0.000;exitDx=0;exitDy=0;entryX=0.500;entryY=1.000;entryDx=0;entryDy=0;">
      <mxGeometry width="50" height="50" relative="1" as="geometry">
        <Array as="points">
          <mxPoint x="3323" y="6526" />
          <mxPoint x="3308" y="6526" />
        </Array>
      </mxGeometry>
    </mxCell>
    <mxCell id="edge67" edge="1" value="" parent="1" source="node66" target="node67" style="html=1;rounded=1;edgeStyle=orthogonalEdgeStyle;dashed=0;startArrow=diamondThinstartSize=12;endArrow=openThin;endSize=12;strokeColor=#595959;exitX=0.250;exitY=0.000;exitDx=0;exitDy=0;entryX=0.750;entryY=1.001;entryDx=0;entryDy=0;">
      <mxGeometry width="50" height="50" relative="1" as="geometry">
        <Array as="points">
          <mxPoint x="3133" y="6806" />
          <mxPoint x="2928" y="6806" />
          <mxPoint x="2928" y="6326" />
          <mxPoint x="2428" y="6326" />
          <mxPoint x="2428" y="6166" />
          <mxPoint x="2368" y="6166" />
        </Array>
      </mxGeometry>
    </mxCell>
    <mxCell id="label402" parent="edge67" vertex="1" connectable="0" value="1" style="edgeLabel;resizable=0;html=1;align=left;verticalAlign=top;strokeColor=default;">
      <mxGeometry x="3127" y="6811" as="geometry" />
    </mxCell>
    <mxCell id="label406" parent="edge67" vertex="1" connectable="0" value="1" style="edgeLabel;resizable=0;html=1;align=left;verticalAlign=top;strokeColor=default;">
      <mxGeometry x="3127" y="6811" as="geometry" />
    </mxCell>
    <mxCell id="label407" parent="edge67" vertex="1" connectable="0" value="findCompanyAppInterface" style="edgeLabel;resizable=0;html=1;align=left;verticalAlign=top;strokeColor=default;">
      <mxGeometry x="3060" y="6811" as="geometry" />
    </mxCell>
    <mxCell id="edge40" edge="1" value="" parent="1" source="node66" target="node2" style="html=1;rounded=1;edgeStyle=orthogonalEdgeStyle;dashed=0;startArrow=diamondThinstartSize=12;endArrow=openThin;endSize=12;strokeColor=#595959;exitX=0.250;exitY=0.000;exitDx=0;exitDy=0;entryX=0.750;entryY=1.001;entryDx=0;entryDy=0;">
      <mxGeometry width="50" height="50" relative="1" as="geometry">
        <Array as="points">
          <mxPoint x="3133" y="6806" />
          <mxPoint x="2928" y="6806" />
          <mxPoint x="2928" y="6166" />
          <mxPoint x="2921" y="6166" />
        </Array>
      </mxGeometry>
    </mxCell>
    <mxCell id="label240" parent="edge40" vertex="1" connectable="0" value="1" style="edgeLabel;resizable=0;html=1;align=left;verticalAlign=top;strokeColor=default;">
      <mxGeometry x="3127" y="6811" as="geometry" />
    </mxCell>
    <mxCell id="label244" parent="edge40" vertex="1" connectable="0" value="1" style="edgeLabel;resizable=0;html=1;align=left;verticalAlign=top;strokeColor=default;">
      <mxGeometry x="3127" y="6811" as="geometry" />
    </mxCell>
    <mxCell id="label245" parent="edge40" vertex="1" connectable="0" value="findDeviceInterface" style="edgeLabel;resizable=0;html=1;align=left;verticalAlign=top;strokeColor=default;">
      <mxGeometry x="3079" y="6811" as="geometry" />
    </mxCell>
    <mxCell id="edge6" edge="1" value="" parent="1" source="node63" target="node22" style="html=1;rounded=1;edgeStyle=orthogonalEdgeStyle;dashed=0;startArrow=diamondThinstartSize=12;endArrow=openThin;endSize=12;strokeColor=#595959;exitX=0.500;exitY=0.000;exitDx=0;exitDy=0;entryX=0.500;entryY=0.000;entryDx=0;entryDy=0;">
      <mxGeometry width="50" height="50" relative="1" as="geometry">
        <Array as="points">
          <mxPoint x="1648" y="286" />
          <mxPoint x="1788" y="286" />
        </Array>
      </mxGeometry>
    </mxCell>
    <mxCell id="label36" parent="edge6" vertex="1" connectable="0" value="1" style="edgeLabel;resizable=0;html=1;align=left;verticalAlign=top;strokeColor=default;">
      <mxGeometry x="1643" y="1024" as="geometry" />
    </mxCell>
    <mxCell id="label40" parent="edge6" vertex="1" connectable="0" value="*" style="edgeLabel;resizable=0;html=1;align=left;verticalAlign=top;strokeColor=default;">
      <mxGeometry x="1644" y="1024" as="geometry" />
    </mxCell>
    <mxCell id="label41" parent="edge6" vertex="1" connectable="0" value="collectorDevices" style="edgeLabel;resizable=0;html=1;align=left;verticalAlign=top;strokeColor=default;">
      <mxGeometry x="1601" y="1024" as="geometry" />
    </mxCell>
    <mxCell id="edge24" edge="1" value="" parent="1" source="node82" target="node28" style="html=1;rounded=1;edgeStyle=orthogonalEdgeStyle;dashed=1;startArrow=none;endArrow=block;endSize=12;strokeColor=#008200;exitX=0.500;exitY=0.000;exitDx=0;exitDy=0;entryX=0.250;entryY=1.000;entryDx=0;entryDy=0;">
      <mxGeometry width="50" height="50" relative="1" as="geometry">
        <Array as="points">
          <mxPoint x="28" y="6266" />
          <mxPoint x="318" y="6266" />
        </Array>
      </mxGeometry>
    </mxCell>
    <mxCell id="edge50" edge="1" value="" parent="1" source="node1" target="node2" style="html=1;rounded=1;edgeStyle=orthogonalEdgeStyle;dashed=1;startArrow=none;endArrow=block;endSize=12;strokeColor=#008200;exitX=0.750;exitY=0.000;exitDx=0;exitDy=0;entryX=0.250;entryY=1.000;entryDx=0;entryDy=0;">
      <mxGeometry width="50" height="50" relative="1" as="geometry">
        <Array as="points">
          <mxPoint x="1883" y="6406" />
          <mxPoint x="2735" y="6406" />
        </Array>
      </mxGeometry>
    </mxCell>
    <mxCell id="edge26" edge="1" value="" parent="1" source="node1" target="node28" style="html=1;rounded=1;edgeStyle=orthogonalEdgeStyle;dashed=0;startArrow=diamondThinstartSize=12;endArrow=openThin;endSize=12;strokeColor=#595959;exitX=0.250;exitY=0.000;exitDx=0;exitDy=0;entryX=0.750;entryY=1.000;entryDx=0;entryDy=0;">
      <mxGeometry width="50" height="50" relative="1" as="geometry">
        <Array as="points">
          <mxPoint x="1694" y="6246" />
          <mxPoint x="688" y="6246" />
          <mxPoint x="688" y="6206" />
          <mxPoint x="498" y="6206" />
        </Array>
      </mxGeometry>
    </mxCell>
    <mxCell id="label156" parent="edge26" vertex="1" connectable="0" value="1" style="edgeLabel;resizable=0;html=1;align=left;verticalAlign=top;strokeColor=default;">
      <mxGeometry x="1688" y="6811" as="geometry" />
    </mxCell>
    <mxCell id="label160" parent="edge26" vertex="1" connectable="0" value="1" style="edgeLabel;resizable=0;html=1;align=left;verticalAlign=top;strokeColor=default;">
      <mxGeometry x="1688" y="6811" as="geometry" />
    </mxCell>
    <mxCell id="label161" parent="edge26" vertex="1" connectable="0" value="gatewayDeviceRepository" style="edgeLabel;resizable=0;html=1;align=left;verticalAlign=top;strokeColor=default;">
      <mxGeometry x="1621" y="6811" as="geometry" />
    </mxCell>
    <mxCell id="edge8" edge="1" value="" parent="1" source="node72" target="node35" style="html=1;rounded=1;edgeStyle=orthogonalEdgeStyle;dashed=1;startArrow=none;endArrow=block;endSize=12;strokeColor=#008200;exitX=0.500;exitY=0.001;exitDx=0;exitDy=0;entryX=0.750;entryY=1.001;entryDx=0;entryDy=0;">
      <mxGeometry width="50" height="50" relative="1" as="geometry">
        <Array as="points">
          <mxPoint x="988" y="7626" />
          <mxPoint x="990" y="7626" />
        </Array>
      </mxGeometry>
    </mxCell>
    <mxCell id="edge65" edge="1" value="" parent="1" source="node37" target="node0" style="html=1;rounded=1;edgeStyle=orthogonalEdgeStyle;dashed=0;startArrow=diamondThinstartSize=12;endArrow=openThin;endSize=12;strokeColor=#595959;exitX=0.750;exitY=0.000;exitDx=0;exitDy=0;entryX=0.250;entryY=0.000;entryDx=0;entryDy=0;">
      <mxGeometry width="50" height="50" relative="1" as="geometry">
        <Array as="points">
          <mxPoint x="1704" y="7586" />
          <mxPoint x="2868" y="7586" />
          <mxPoint x="2868" y="7306" />
          <mxPoint x="2993" y="7306" />
        </Array>
      </mxGeometry>
    </mxCell>
    <mxCell id="label390" parent="edge65" vertex="1" connectable="0" value="1" style="edgeLabel;resizable=0;html=1;align=left;verticalAlign=top;strokeColor=default;">
      <mxGeometry x="1699" y="7599" as="geometry" />
    </mxCell>
    <mxCell id="label394" parent="edge65" vertex="1" connectable="0" value="1" style="edgeLabel;resizable=0;html=1;align=left;verticalAlign=top;strokeColor=default;">
      <mxGeometry x="1699" y="7599" as="geometry" />
    </mxCell>
    <mxCell id="label395" parent="edge65" vertex="1" connectable="0" value="dispatcherService" style="edgeLabel;resizable=0;html=1;align=left;verticalAlign=top;strokeColor=default;">
      <mxGeometry x="1653" y="7599" as="geometry" />
    </mxCell>
    <mxCell id="edge58" edge="1" value="" parent="1" source="node37" target="node10" style="html=1;rounded=1;edgeStyle=orthogonalEdgeStyle;dashed=1;startArrow=none;endArrow=openThin;endSize=12;strokeColor=#595959;exitX=0.250;exitY=0.000;exitDx=0;exitDy=0;entryX=0.500;entryY=1.002;entryDx=0;entryDy=0;">
      <mxGeometry width="50" height="50" relative="1" as="geometry">
        <Array as="points">
          <mxPoint x="1552" y="7586" />
          <mxPoint x="1328" y="7586" />
        </Array>
      </mxGeometry>
    </mxCell>
    <mxCell id="label350" parent="edge58" vertex="1" connectable="0" value="«create»" style="edgeLabel;resizable=0;html=1;align=left;verticalAlign=top;strokeColor=default;">
      <mxGeometry x="1526" y="7599" as="geometry" />
    </mxCell>
    <mxCell id="edge52" edge="1" value="" parent="1" source="node30" target="node35" style="html=1;rounded=1;edgeStyle=orthogonalEdgeStyle;dashed=0;startArrow=diamondThinstartSize=12;endArrow=openThin;endSize=12;strokeColor=#595959;exitX=0.500;exitY=0.001;exitDx=0;exitDy=0;entryX=0.250;entryY=1.001;entryDx=0;entryDy=0;">
      <mxGeometry width="50" height="50" relative="1" as="geometry">
        <Array as="points">
          <mxPoint x="608" y="7626" />
          <mxPoint x="827" y="7626" />
        </Array>
      </mxGeometry>
    </mxCell>
    <mxCell id="label312" parent="edge52" vertex="1" connectable="0" value="1" style="edgeLabel;resizable=0;html=1;align=left;verticalAlign=top;strokeColor=default;">
      <mxGeometry x="603" y="7627" as="geometry" />
    </mxCell>
    <mxCell id="label316" parent="edge52" vertex="1" connectable="0" value="1" style="edgeLabel;resizable=0;html=1;align=left;verticalAlign=top;strokeColor=default;">
      <mxGeometry x="603" y="7627" as="geometry" />
    </mxCell>
    <mxCell id="label317" parent="edge52" vertex="1" connectable="0" value="producer" style="edgeLabel;resizable=0;html=1;align=left;verticalAlign=top;strokeColor=default;">
      <mxGeometry x="582" y="7627" as="geometry" />
    </mxCell>
    <mxCell id="edge27" edge="1" value="" parent="1" source="node31" target="node83" style="html=1;rounded=1;edgeStyle=orthogonalEdgeStyle;dashed=1;startArrow=none;endArrow=openThin;endSize=12;strokeColor=#595959;exitX=0.250;exitY=0.000;exitDx=0;exitDy=0;entryX=0.500;entryY=1.000;entryDx=0;entryDy=0;">
      <mxGeometry width="50" height="50" relative="1" as="geometry">
        <Array as="points">
          <mxPoint x="514" y="7326" />
          <mxPoint x="508" y="7326" />
        </Array>
      </mxGeometry>
    </mxCell>
    <mxCell id="label164" parent="edge27" vertex="1" connectable="0" value="«create»" style="edgeLabel;resizable=0;html=1;align=left;verticalAlign=top;strokeColor=default;">
      <mxGeometry x="488" y="7339" as="geometry" />
    </mxCell>
    <mxCell id="edge53" edge="1" value="" parent="1" source="node31" target="node71" style="html=1;rounded=1;edgeStyle=orthogonalEdgeStyle;dashed=0;startArrow=diamondThinstartSize=12;endArrow=openThin;endSize=12;strokeColor=#595959;exitX=0.750;exitY=0.000;exitDx=0;exitDy=0;entryX=0.250;entryY=1.001;entryDx=0;entryDy=0;">
      <mxGeometry width="50" height="50" relative="1" as="geometry">
        <Array as="points">
          <mxPoint x="702" y="7326" />
          <mxPoint x="708" y="7326" />
          <mxPoint x="708" y="7006" />
          <mxPoint x="1008" y="7006" />
          <mxPoint x="1008" y="6446" />
          <mxPoint x="1568" y="6446" />
          <mxPoint x="1568" y="6166" />
          <mxPoint x="1825" y="6166" />
        </Array>
      </mxGeometry>
    </mxCell>
    <mxCell id="label318" parent="edge53" vertex="1" connectable="0" value="1" style="edgeLabel;resizable=0;html=1;align=left;verticalAlign=top;strokeColor=default;">
      <mxGeometry x="697" y="7339" as="geometry" />
    </mxCell>
    <mxCell id="label322" parent="edge53" vertex="1" connectable="0" value="1" style="edgeLabel;resizable=0;html=1;align=left;verticalAlign=top;strokeColor=default;">
      <mxGeometry x="697" y="7339" as="geometry" />
    </mxCell>
    <mxCell id="label323" parent="edge53" vertex="1" connectable="0" value="findCompanyInterface" style="edgeLabel;resizable=0;html=1;align=left;verticalAlign=top;strokeColor=default;">
      <mxGeometry x="640" y="7339" as="geometry" />
    </mxCell>
    <mxCell id="edge55" edge="1" value="" parent="1" source="node31" target="node39" style="html=1;rounded=1;edgeStyle=orthogonalEdgeStyle;dashed=0;startArrow=diamondThinstartSize=12;endArrow=openThin;endSize=12;strokeColor=#595959;exitX=0.750;exitY=0.000;exitDx=0;exitDy=0;entryX=0.500;entryY=1.000;entryDx=0;entryDy=0;">
      <mxGeometry width="50" height="50" relative="1" as="geometry">
        <Array as="points">
          <mxPoint x="702" y="7326" />
          <mxPoint x="708" y="7326" />
          <mxPoint x="708" y="7006" />
          <mxPoint x="-172" y="7006" />
          <mxPoint x="-172" y="6246" />
          <mxPoint x="88" y="6246" />
        </Array>
      </mxGeometry>
    </mxCell>
    <mxCell id="label330" parent="edge55" vertex="1" connectable="0" value="1" style="edgeLabel;resizable=0;html=1;align=left;verticalAlign=top;strokeColor=default;">
      <mxGeometry x="697" y="7339" as="geometry" />
    </mxCell>
    <mxCell id="label334" parent="edge55" vertex="1" connectable="0" value="1" style="edgeLabel;resizable=0;html=1;align=left;verticalAlign=top;strokeColor=default;">
      <mxGeometry x="697" y="7339" as="geometry" />
    </mxCell>
    <mxCell id="label335" parent="edge55" vertex="1" connectable="0" value="tokenService" style="edgeLabel;resizable=0;html=1;align=left;verticalAlign=top;strokeColor=default;">
      <mxGeometry x="665" y="7339" as="geometry" />
    </mxCell>
    <mxCell id="edge74" edge="1" value="" parent="1" source="node39" target="node55" style="html=1;rounded=1;edgeStyle=orthogonalEdgeStyle;dashed=1;startArrow=none;endArrow=block;endSize=12;strokeColor=#008200;exitX=0.500;exitY=0.000;exitDx=0;exitDy=0;entryX=0.250;entryY=1.001;entryDx=0;entryDy=0;">
      <mxGeometry width="50" height="50" relative="1" as="geometry">
        <Array as="points">
          <mxPoint x="88" y="5566" />
          <mxPoint x="766" y="5566" />
        </Array>
      </mxGeometry>
    </mxCell>
  </root>
</mxGraphModel>